<svg width="922" height="1024" viewBox="0 0 922 1024" fill="none" xmlns="http://www.w3.org/2000/svg">
<g filter="url(#filter0_d_1333_43532)">
<path d="M528.265 1074L-92.6403 1022.73L-92.6402 -1.26449L836.496 -195.549L882.608 78.4416C904.756 210.043 834.24 339.771 711.757 392.755V392.755C641.175 423.288 601.169 498.651 615.427 574.221L641.594 712.903C656.72 793.068 642.603 876 601.807 946.646L528.265 1074Z" fill="url(#paint0_linear_1333_43532)"/>
</g>
<g clip-path="url(#clip0_1333_43532)">
<path fill-rule="evenodd" clip-rule="evenodd" d="M129.212 708.871C129.212 708.871 101.223 592.039 113.885 483.286C126.547 374.533 183.997 292.55 315.541 294.766C447.085 296.982 502.176 404.968 509.727 508.852C517.278 612.736 476.407 710.953 476.407 710.953L129.212 708.871Z" fill="#F3DFE1"/>
<path d="M222.084 605.066C222.084 596.432 215.059 589.407 206.425 589.407H193.047C187.853 589.407 183.6 585.474 183.363 580.453C183.24 577.85 184.16 575.381 185.953 573.503C187.747 571.623 190.165 570.588 192.763 570.588H267.207C271.64 570.588 275.777 568.831 278.856 565.64C281.934 562.451 283.541 558.25 283.383 553.812C283.078 545.211 275.654 538.214 266.835 538.214H110.621C110.617 538.658 110.613 539.103 110.61 539.547H266.833C274.943 539.547 281.769 545.967 282.05 553.859C282.195 557.934 280.719 561.789 277.895 564.715C275.069 567.643 271.273 569.255 267.205 569.255H192.761C189.795 569.255 187.034 570.437 184.987 572.584C182.94 574.729 181.891 577.546 182.03 580.516C182.3 586.249 187.139 590.74 193.045 590.74H206.423C214.323 590.74 220.749 597.167 220.749 605.066C220.749 612.966 214.323 619.392 206.423 619.392H114.776C114.823 619.837 114.87 620.282 114.917 620.725H206.424C215.059 620.725 222.084 613.7 222.084 605.066Z" fill="#E5BDC3"/>
<path d="M314.205 359.511V352.653C314.205 348.41 310.753 344.958 306.51 344.958H258.627C255.119 344.958 252.264 342.104 252.264 338.596C252.264 335.088 255.118 332.234 258.627 332.234H265.952C270.195 332.234 273.647 328.782 273.647 324.539V316.944C273.647 312.701 270.195 309.249 265.952 309.249H227.12C226.031 309.683 224.954 310.129 223.882 310.582H265.952C269.46 310.582 272.314 313.436 272.314 316.944V324.539C272.314 328.047 269.46 330.901 265.952 330.901H258.627C254.384 330.901 250.931 334.353 250.931 338.596C250.931 342.839 254.383 346.291 258.627 346.291H306.51C310.018 346.291 312.872 349.145 312.872 352.653V359.511C312.872 363.019 310.018 365.873 306.51 365.873H154.867C154.549 366.317 154.229 366.759 153.916 367.206H306.51C310.753 367.206 314.205 363.754 314.205 359.511Z" fill="#E5BDC3"/>
<path d="M508.176 492.778H397.731C394.223 492.778 391.369 489.924 391.369 486.416V478.821C391.369 475.313 394.223 472.459 397.731 472.459H405.056C409.299 472.459 412.751 469.007 412.751 464.764C412.751 460.521 409.299 457.069 405.056 457.069H357.173C353.665 457.069 350.811 454.215 350.811 450.707V443.849C350.811 440.341 353.665 437.487 357.173 437.487H496.503C496.365 437.042 496.226 436.598 496.086 436.154H357.173C352.93 436.154 349.478 439.606 349.478 443.849V450.707C349.478 454.95 352.93 458.402 357.173 458.402H405.056C408.564 458.402 411.419 461.256 411.419 464.764C411.419 468.272 408.565 471.126 405.056 471.126H397.731C393.488 471.126 390.036 474.578 390.036 478.821V486.416C390.036 490.659 393.488 494.111 397.731 494.111H508.335C508.283 493.667 508.229 493.222 508.176 492.778Z" fill="#E5BDC3"/>
<path d="M248.262 515.293C253.827 515.293 258.338 510.782 258.338 505.217V495.385C258.338 489.82 253.827 485.309 248.262 485.309H179.616C174.051 485.309 169.54 480.798 169.54 475.233C169.54 469.668 174.051 465.157 179.616 465.157H190.118C195.683 465.157 200.194 460.646 200.194 455.081V444.193C200.194 438.628 195.683 434.117 190.118 434.117H123.319C118.988 449.694 115.88 466.158 113.885 483.287C112.647 493.918 111.8 504.626 111.275 515.295H248.262V515.293Z" fill="#FCF0F2"/>
<path d="M445.086 347.521H392.559C389.163 347.521 386.411 350.274 386.411 353.669V359.668C386.411 363.064 389.164 365.816 392.559 365.816H434.443C437.838 365.816 440.591 368.569 440.591 371.964C440.591 375.359 437.838 378.112 434.443 378.112H428.035C424.639 378.112 421.887 380.865 421.887 384.26V390.903C421.887 394.298 424.64 397.051 428.035 397.051H480.164C470.851 378.803 459.235 362.004 445.086 347.521Z" fill="#FCF0F2"/>
<path fill-rule="evenodd" clip-rule="evenodd" d="M489.804 594.069C489.804 594.069 506.253 567.241 502.141 531.417C498.029 495.593 475.412 501.564 475.412 501.564C475.412 501.564 480.758 437.234 442.103 435.602C403.448 433.97 409.617 501.564 409.617 501.564C409.617 501.564 389.056 494.667 384.533 517.556C380.01 540.445 400.982 589.084 400.982 589.084C400.982 589.084 374.927 588.616 373.43 614.826C372.599 629.367 374.118 647.49 376.223 663.928C379.501 689.526 402.428 708.763 429.616 708.763H465.733C489.301 708.763 509.609 692.949 514.103 671.006C520.486 639.828 521.997 599.792 489.804 594.069Z" fill="#A84083"/>
<path d="M515.097 617.603L441.122 652.064C443.009 630.989 444.936 605.321 446.219 577.567L501.215 525.452C501.006 524.4 500.779 523.389 500.535 522.425L446.393 573.731C447.415 550.379 447.964 525.65 447.64 501.007L473.522 470.503C473.305 469.413 473.065 468.32 472.804 467.229L447.578 496.96C447.222 476.154 446.224 455.471 444.349 435.783C443.615 435.702 442.871 435.636 442.103 435.604C441.951 435.598 441.806 435.602 441.655 435.597C443.549 455.32 444.556 476.057 444.914 496.923L412.228 464.083C411.976 465.105 411.744 466.132 411.531 467.162L444.974 500.762C445.304 525.322 444.762 549.976 443.748 573.27L389.544 506.287C388.971 506.952 388.425 507.691 387.913 508.509L443.568 577.285C442.287 605.053 440.357 630.739 438.47 651.821L374.478 608.06C374.239 608.955 374.038 609.894 373.872 610.875L438.194 654.862C435.328 686.279 432.637 706.737 432.558 707.327L435.2 707.68C435.279 707.09 437.974 686.603 440.844 655.135L515.807 620.213C515.591 619.328 515.354 618.458 515.097 617.603Z" fill="#D3D7F4"/>
<path fill-rule="evenodd" clip-rule="evenodd" d="M418.884 635.6C418.884 635.6 429.511 618.268 426.854 595.123C424.197 571.979 409.585 575.836 409.585 575.836C409.585 575.836 413.039 534.275 388.066 533.221C363.093 532.167 367.078 575.836 367.078 575.836C367.078 575.836 353.794 571.38 350.872 586.168C347.95 600.955 361.499 632.379 361.499 632.379C361.499 632.379 344.666 632.077 343.699 649.01C343.162 658.404 344.143 670.113 345.503 680.733C347.621 697.271 362.433 709.699 379.998 709.699H403.331C418.557 709.699 431.677 699.482 434.581 685.306C438.706 665.163 439.682 639.297 418.884 635.6Z" fill="#CD77AF"/>
<path d="M374.801 709.326C375.675 709.451 376.56 709.541 377.453 709.603C378.013 705.176 379.584 692.271 381.235 674.334L434.761 649.399C434.46 648.547 434.117 647.728 433.744 646.933L381.514 671.264C382.364 661.784 383.22 651.036 383.958 639.482C384.359 633.207 384.736 626.467 385.061 619.399L423.431 583.039C422.965 582.189 422.471 581.433 421.959 580.762L385.23 615.567C385.895 599.87 386.276 582.683 386.042 565.277L404.253 543.814C403.799 542.988 403.308 542.193 402.778 541.432L385.975 561.235C385.798 551.906 385.435 542.547 384.842 533.349C383.917 533.466 383.041 533.656 382.207 533.905C382.783 542.94 383.137 552.132 383.311 561.296L369.881 547.802C369.556 548.751 369.264 549.719 369.002 550.698L383.375 565.139C383.612 582.459 383.235 599.571 382.576 615.212L353.651 579.467C353.121 580.169 352.636 580.984 352.207 581.921L382.399 619.231C382.075 626.291 381.698 633.024 381.298 639.292C380.56 650.846 379.704 661.591 378.855 671.064L343.885 647.149C343.803 647.748 343.736 648.362 343.699 649.01C343.676 649.405 343.66 649.81 343.643 650.213L378.579 674.104C376.926 692.074 375.352 704.978 374.801 709.326Z" fill="#D3D7F4"/>
<path fill-rule="evenodd" clip-rule="evenodd" d="M184.829 616.397C184.829 616.397 197.33 596.008 194.205 568.781C191.08 541.554 173.89 546.092 173.89 546.092C173.89 546.092 177.953 497.2 148.575 495.96C119.197 494.72 123.885 546.092 123.885 546.092C123.885 546.092 108.258 540.85 104.82 558.246C101.382 575.642 117.321 612.608 117.321 612.608C117.321 612.608 97.519 612.253 96.381 632.173C95.75 643.224 96.904 656.998 98.503 669.492C100.994 688.947 118.419 703.567 139.082 703.567H166.531C184.443 703.567 199.878 691.548 203.293 674.871C208.147 651.174 209.296 620.746 184.829 616.397Z" fill="#CD77AF"/>
<path d="M151.536 670.399L203.224 631.853C202.895 630.989 202.533 630.15 202.138 629.338L151.275 667.268C150.449 657.216 149.615 645.814 148.897 633.553C148.506 626.874 148.138 619.696 147.821 612.17L190.342 554.87C189.865 553.969 189.362 553.155 188.84 552.421L147.65 607.928C146.878 587.922 146.509 565.65 147.097 543.464L171.452 518.208C171.185 517.225 170.89 516.249 170.569 515.284L147.212 539.505C147.683 524.689 148.596 509.978 150.118 496.077C149.613 496.025 149.101 495.983 148.575 495.961C148.194 495.945 147.823 495.943 147.453 495.944C145.99 509.354 145.089 523.503 144.603 537.773L125.881 517.56C125.621 518.61 125.388 519.668 125.182 520.728L144.483 541.565C143.819 564.533 144.195 587.651 144.998 608.331L104.411 566.39C104.488 567.762 104.623 569.181 104.808 570.632L145.16 612.33C145.476 619.855 145.845 627.031 146.236 633.709C146.956 645.999 147.791 657.429 148.62 667.506L96.222 640.888C96.236 641.885 96.264 642.898 96.297 643.916L148.88 670.629C150.123 685.365 151.321 696.909 152.053 703.567H154.735C154.008 696.978 152.796 685.336 151.536 670.399Z" fill="#D3D7F4"/>
<path fill-rule="evenodd" clip-rule="evenodd" d="M395.286 691.579H225.969C197.699 691.579 115.422 700.018 115.422 710.428C115.422 720.838 197.699 729.277 225.969 729.277H395.285C423.555 729.277 505.832 720.838 505.832 710.428C505.833 700.018 423.555 691.579 395.286 691.579Z" fill="#AB1D79"/>
<path fill-rule="evenodd" clip-rule="evenodd" d="M278.437 379.185C278.437 379.185 273.772 374.419 269.107 374.752C264.442 375.085 260.666 383.637 264.109 387.191C267.552 390.745 275.993 388.695 275.993 388.695L278.437 379.185Z" fill="#332B28"/>
<path fill-rule="evenodd" clip-rule="evenodd" d="M278.437 377.641C278.437 377.641 276.327 375.864 274.661 377.641C272.995 379.418 273.167 384.136 266.109 394.523C254.336 411.849 239.675 410.994 238.564 416.183C237.453 421.372 247.783 421.068 247.227 425.622C246.672 430.176 245.887 430.765 248.338 432.508C253.336 436.062 256.002 432.397 258.001 433.841C260 435.285 265.109 427.184 266.886 423.46C268.663 419.736 278.104 393.191 277.771 387.193C277.438 381.195 278.437 377.641 278.437 377.641Z" fill="#F7F0E4"/>
<path d="M249.005 416.516C248.894 416.516 248.786 416.461 248.722 416.36C248.624 416.204 248.671 415.998 248.827 415.9C267.829 403.998 274.39 383.849 274.454 383.647C274.51 383.471 274.697 383.373 274.872 383.43C275.047 383.486 275.145 383.673 275.089 383.848C275.024 384.053 268.388 404.434 249.181 416.464C249.127 416.499 249.066 416.516 249.005 416.516Z" fill="#EADFCE"/>
<path d="M247.867 428.565C247.755 428.565 247.646 428.509 247.583 428.407C247.486 428.25 247.534 428.045 247.691 427.948C247.876 427.834 266.255 416.262 273.625 395.135C273.686 394.961 273.878 394.87 274.049 394.93C274.223 394.991 274.315 395.181 274.254 395.354C266.804 416.71 248.229 428.399 248.042 428.515C247.987 428.549 247.926 428.565 247.867 428.565Z" fill="#EADFCE"/>
<path fill-rule="evenodd" clip-rule="evenodd" d="M354.933 702.415C354.384 698.025 353.216 696.165 353.216 696.165L342.937 693.556C342.937 693.556 342.466 693.87 339.958 696.457C337.449 699.044 323.807 705.473 318.398 707.747C312.989 710.02 308.519 713.784 308.519 713.784L354.854 712.373C354.854 712.373 355.481 706.805 354.933 702.415Z" fill="#2B211F"/>
<path fill-rule="evenodd" clip-rule="evenodd" d="M399.738 703.669C395.402 703.737 388.02 708.294 384.499 711.795C383.795 712.496 384.296 713.696 385.289 713.691L410.466 713.547C410.466 713.547 423.206 700.589 423.989 699.569C424.773 698.55 421.271 694.836 420.017 692.954C418.763 691.072 414.679 688.732 414.679 688.732L402.507 690.866L402.142 697.843L399.738 703.669Z" fill="#2B211F"/>
<path fill-rule="evenodd" clip-rule="evenodd" d="M352.459 697.843C353.63 695.486 353.377 694.773 353.377 694.773C353.377 694.773 347.296 693.567 345.491 693.591C343.686 693.614 342.778 694.597 342.778 694.597C342.778 694.597 342.05 697.094 343.89 698.484C345.73 699.872 351.288 700.199 352.459 697.843Z" fill="#EBB495"/>
<path fill-rule="evenodd" clip-rule="evenodd" d="M354.259 696.76L369.117 546.855L331.839 529.557L341.408 693.778C341.408 693.778 345.404 696.489 349.472 696.848C353.539 697.208 354.259 696.76 354.259 696.76Z" fill="#4C4F89"/>
<path d="M353.114 546.58L346.536 692.951L347.202 692.981L353.781 546.61L353.114 546.58Z" fill="#686BB8"/>
<path fill-rule="evenodd" clip-rule="evenodd" d="M409.917 692.144C414.543 690.654 415.17 689.478 415.17 689.478L410.936 683.049L401.606 686.42L402.861 692.614C402.861 692.614 405.292 693.634 409.917 692.144Z" fill="#EBB495"/>
<path fill-rule="evenodd" clip-rule="evenodd" d="M338.818 458.396L337.116 429.654L320.158 456.358C320.158 456.358 325.176 480.639 325.96 480.662C326.744 480.684 338.818 458.396 338.818 458.396Z" fill="#686BB8"/>
<path fill-rule="evenodd" clip-rule="evenodd" d="M264.361 416.089C264.361 416.089 255.345 419.774 256.678 434.434C256.678 434.434 258.089 450.82 271.653 451.761C285.216 452.702 320.655 437.806 320.498 397.665C320.498 397.665 320.028 382.063 314.54 375.164C309.052 368.265 299.644 367.324 295.567 371.166C291.49 375.008 290.51 374.302 286.669 374.38C277.096 374.575 273.525 380.082 272.359 390.061C271.104 400.801 275.572 406.367 264.361 416.089Z" fill="#332B28"/>
<path fill-rule="evenodd" clip-rule="evenodd" d="M295.136 431.26C299.252 432.397 308.072 437.454 308.072 437.454C302.717 430.011 301.413 421.083 300.624 412.169L286.551 409.464C287.746 416.499 287.801 423.078 287.022 430.162C287.022 430.162 291.02 430.123 295.136 431.26Z" fill="#FFC3AE"/>
<path fill-rule="evenodd" clip-rule="evenodd" d="M300.624 412.169L286.551 409.464C287.169 413.1 287.476 416.615 287.527 420.14C287.849 420.095 288.172 420.05 288.52 420.006C293.549 419.375 299.067 421.488 302.076 422.9C301.353 419.387 300.943 415.777 300.624 412.169Z" fill="#F4AF9A"/>
<path fill-rule="evenodd" clip-rule="evenodd" d="M407.761 687.828C410.622 687.358 413.406 684.731 413.406 684.731L381.193 526.567C378.888 519.129 346.149 511.285 340.826 533.204L401.606 687.672C401.606 687.672 404.9 688.298 407.761 687.828Z" fill="#686BB8"/>
<path fill-rule="evenodd" clip-rule="evenodd" d="M381.193 526.566C378.888 519.128 346.149 511.284 340.826 533.203L345.716 545.63C354.346 544.943 372.419 542.983 383.538 538.084L381.193 526.566Z" fill="#4C4F89"/>
<path fill-rule="evenodd" clip-rule="evenodd" d="M289.151 405.661C289.151 405.661 286.721 403.936 284.644 403.818C275.856 403.32 283.435 417.399 292.367 413.109C292.367 413.109 296.405 417.421 301.07 419.029C309.528 421.943 313.056 419.195 313.458 410.444C313.615 407.033 313.704 405.717 313.704 405.717C313.704 405.717 316.589 404.051 316.04 402.013C315.491 399.975 311.695 396.881 311.695 396.881C310.763 391.345 307.707 378.148 299.426 380.339C295.722 381.319 294.051 384.964 294.051 384.964C298.9 391.693 295.14 401.014 289.151 405.661Z" fill="#FFC3AE"/>
<path fill-rule="evenodd" clip-rule="evenodd" d="M326.262 458.701C323.548 449.554 311.614 439.042 303.447 434.709C295.28 430.377 290.432 428.947 285.807 430.632C281.181 432.318 278.437 439.883 277.574 443.96C276.712 448.037 275.065 454.152 282.67 469.597C290.275 485.042 291.277 496.085 291.277 501.73C291.277 507.375 294.834 505.676 296.716 506.303C298.597 506.93 319.022 508.746 325.372 506.864C331.722 504.982 327.123 501.193 326.731 488.336C326.339 475.479 328.378 465.835 326.262 458.701Z" fill="#F7F0E4"/>
<path fill-rule="evenodd" clip-rule="evenodd" d="M306.609 450.83C306.609 450.83 314.832 462.816 319.571 463.653C324.31 464.489 324.31 464.489 324.31 464.489C324.31 464.489 326.261 477.591 322.637 479.402C319.014 481.215 306.609 450.83 306.609 450.83Z" fill="#EADFCE"/>
<path fill-rule="evenodd" clip-rule="evenodd" d="M335.084 563.645C330.066 502.963 326.526 499.338 326.526 499.338L291.752 502.682C291.752 502.682 277.945 515.746 266.19 546.273C255.421 574.24 216.855 675.988 211.838 688.375C210.059 692.768 208.851 695.741 208.034 697.749C206.963 700.378 209.004 703.239 211.837 703.048C211.889 703.044 211.942 703.041 211.995 703.037C217.326 702.645 220.149 698.646 226.735 704.84C233.321 711.034 226.421 716.443 241.474 717.463C256.527 718.482 253.089 713.001 263.124 713.706C273.159 714.411 266.327 719.893 280.125 720.207C293.924 720.521 290.921 713.706 301.035 713.785C311.149 713.864 309.997 719.502 319.169 720.129C324.83 720.516 331.312 717.739 335.446 715.556C338.046 714.183 339.68 711.497 339.681 708.557C339.689 689.743 339.428 616.178 335.084 563.645Z" fill="#F7F0E4"/>
<path d="M294.296 543.869C284.218 593.721 270.391 709.449 269.573 716.33C269.672 716.447 269.77 716.565 269.867 716.684L270.198 716.723C270.341 715.513 284.619 595.106 294.95 544.001L294.296 543.869Z" fill="#EADFCE"/>
<path d="M256.219 611.078L231 713.241C231.071 713.394 231.149 713.544 231.232 713.691L231.555 713.771L256.866 611.237L256.219 611.078Z" fill="#EADFCE"/>
<path d="M328.893 579.469L328.227 579.485L331.441 717.463C331.663 717.368 331.884 717.274 332.101 717.178L328.893 579.469Z" fill="#EADFCE"/>
<path d="M314.362 719.088C314.575 719.176 314.798 719.259 315.028 719.339V572.229H314.362V719.088Z" fill="#EADFCE"/>
<path d="M296.992 503.162L296.44 502.789C296.289 503.012 281.261 525.383 273.396 548.987C265.541 572.563 258.409 603.056 258.338 603.361L258.987 603.512C259.058 603.207 266.183 572.744 274.028 549.197C281.863 525.682 296.841 503.384 296.992 503.162Z" fill="#EADFCE"/>
<path d="M289.096 718.818L292.725 640.541L292.06 640.51L288.416 719.102C288.653 719.01 288.879 718.915 289.096 718.818Z" fill="#EADFCE"/>
<path d="M313.911 504.909H313.245V554.946H313.911V504.909Z" fill="#EADFCE"/>
<path d="M306.288 504.82C301.32 522.623 294.36 598.198 294.291 598.96L294.955 599.021C295.025 598.261 301.978 522.745 306.93 505L306.288 504.82Z" fill="#EADFCE"/>
<path d="M251.175 716.89C253.698 702.257 261.507 657.429 267.631 627.21L266.978 627.078C260.811 657.509 252.937 702.746 250.469 717.067C250.715 717.011 250.95 716.952 251.175 716.89Z" fill="#EADFCE"/>
<path d="M328.892 563.564C328.744 561.527 325.205 513.574 320.796 504.761L320.2 505.059C324.551 513.755 328.192 563.115 328.227 563.612L328.892 563.564Z" fill="#EADFCE"/>
<path fill-rule="evenodd" clip-rule="evenodd" d="M290.766 494.567C292.539 495.807 297.318 498.863 304.652 500.092C318.414 502.399 323.614 502.401 323.614 502.401L279.152 443.514C279.152 443.514 278.323 458.491 281.871 467.935C282.126 468.479 282.39 469.031 282.67 469.599C287.81 480.037 289.929 488.457 290.766 494.567Z" fill="#EADFCE"/>
<path fill-rule="evenodd" clip-rule="evenodd" d="M327.655 499.337C319.431 502.66 297.907 499.489 291.539 498.088C290.514 497.863 289.516 498.542 289.342 499.577L288.721 503.269C288.569 504.175 289.105 505.07 289.987 505.326C306.442 510.109 328.558 506.776 328.558 506.776L327.655 499.337Z" fill="#FA7070"/>
<path fill-rule="evenodd" clip-rule="evenodd" d="M362.159 405.718C362.159 405.718 364.034 400.122 365.706 393.651C369.418 379.291 372.829 364.261 352.099 369.293C351.888 359.718 341.8 359.623 339.986 367.137C335.72 360.617 327.605 365.56 329.873 375.879C332.994 390.08 350.924 399.164 362.159 405.718Z" fill="#332B28"/>
<path fill-rule="evenodd" clip-rule="evenodd" d="M387.667 435.777C386.995 421.649 378.066 413.469 361.941 414.332C353.16 414.802 345.085 418.017 339.519 425.465C333.952 432.913 331.444 450.632 330.739 456.747C330.034 462.862 330.661 502.533 331.288 510.765C331.915 518.997 330.428 530.094 330.428 530.094C330.428 530.094 335.739 534.038 342.717 536.547C349.695 539.056 353.595 535.339 353.595 535.339C353.595 535.339 353.005 528.718 360.296 526.994C367.587 525.269 372.762 535.853 372.762 535.853L384.993 527.386C384.993 527.386 376.684 505.434 377.154 494.771C377.624 484.109 388.137 445.656 387.667 435.777Z" fill="#686BB8"/>
<path fill-rule="evenodd" clip-rule="evenodd" d="M387.667 435.777C387.563 433.59 387.26 431.546 386.764 429.656C383.129 423.807 374.737 420.141 370.035 427.796L364.214 437.1L346.342 479.536C345.979 480.397 345.13 480.95 344.196 480.935L330.486 480.704C330.563 487.88 330.778 499.036 330.95 504.908L352.906 508.532C357.431 509.125 361.886 507.023 364.296 503.147C370.84 492.621 380.455 466.236 385.937 449.564C387.068 443.554 387.799 438.544 387.667 435.777Z" fill="#4C4F89"/>
<path fill-rule="evenodd" clip-rule="evenodd" d="M282.056 474.781C281.193 478.387 283.624 480.74 284.408 485.287C285.192 489.834 285.035 491.794 289.19 492.97C293.345 494.146 296.716 493.518 296.716 493.518C296.716 493.518 298.519 486.698 298.99 482.464C299.46 478.23 299.222 476.754 299.222 476.754C298.333 474.925 296.951 470.312 293.58 469.371C290.209 468.43 286.681 468.195 286.289 469.685C285.897 471.175 286.367 472.037 286.367 472.037C286.367 472.037 282.918 471.175 282.056 474.781Z" fill="#FFC3AE"/>
<path fill-rule="evenodd" clip-rule="evenodd" d="M359.397 420.257C361.3 418.542 362.923 417.211 364.215 416.213C365.013 415.597 364.579 414.324 363.571 414.305C363.037 414.295 362.494 414.304 361.941 414.333C355.589 414.673 349.607 416.45 344.676 420.227C342.716 422.74 341.803 422.189 341.245 432.224C340.831 439.67 342.716 442.956 342.716 442.956C342.716 442.956 354.192 424.948 359.397 420.257Z" fill="#F7F0E4"/>
<path fill-rule="evenodd" clip-rule="evenodd" d="M343.453 422.739C344.122 421.704 345.827 424.15 345.827 424.15C345.827 424.15 346.202 423.067 347.451 423.109C348.7 423.151 348.534 424.15 348.534 424.15C348.534 424.15 350.426 421.514 351.729 421.728C353.032 421.942 353.136 429.477 351.439 430.396C349.742 431.314 347.993 427.524 347.993 427.524C347.993 427.524 346.993 428.69 345.577 427.441C345.577 427.441 343.396 430.807 342.655 430.773C341.586 430.723 341.162 426.281 343.453 422.739Z" fill="#FF8888"/>
<path fill-rule="evenodd" clip-rule="evenodd" d="M386.014 427.977C383.135 421.182 373.522 415.94 368.359 424.345L362.538 433.649L344.666 476.085C344.303 476.946 343.454 477.5 342.52 477.484L299.221 476.755L296.715 493.519L348.111 500.253C352.636 500.846 357.091 498.744 359.501 494.868C369.003 479.587 391.555 441.053 386.014 427.977Z" fill="#686BB8"/>
<path d="M328.708 477.617L328.705 476.951L343.366 476.905C344.434 474.501 354.9 450.928 359.55 439.886C364.45 428.25 369.787 422.013 369.841 421.951L370.345 422.387C370.292 422.448 365.02 428.615 360.165 440.144C355.284 451.734 344.001 477.117 343.888 477.372L343.8 477.569L328.708 477.617Z" fill="#4C4F89"/>
<path fill-rule="evenodd" clip-rule="evenodd" d="M325.371 477.191L325.321 477.283C325.363 477.285 325.375 477.249 325.371 477.191Z" fill="#FFC3A1"/>
<path fill-rule="evenodd" clip-rule="evenodd" d="M364.684 414.803C362.089 406.034 360.064 397.657 358.255 388.696L344.068 409.748C344.068 409.748 344.692 417.077 344.692 419.899C344.692 422.721 344.692 422.721 344.692 422.721C344.692 422.721 347.985 423.113 356.844 420.134C365.703 417.156 364.684 414.803 364.684 414.803Z" fill="#FFC3AE"/>
<path fill-rule="evenodd" clip-rule="evenodd" d="M358.255 388.696L344.068 409.748C344.068 409.748 344.617 416.191 344.685 419.321C353.852 419.321 357.065 408.18 362.795 408.111C360.691 400.639 359.813 396.413 358.255 388.696Z" fill="#F4AF9A"/>
<path fill-rule="evenodd" clip-rule="evenodd" d="M347.434 384.698C344.886 383.365 339.986 384.384 336.889 383.561C333.792 382.738 330.873 379.185 330.873 379.185L331.267 391.246C330.791 395.846 325.539 399.314 329.164 401.817C330.811 402.954 331.523 402.546 331.595 404.208C332.25 419.321 343.068 418.689 350.793 412.919C354.352 410.261 353.833 405.614 354.844 400.025C354.844 400.025 359.313 400.888 359.783 394.459C360.253 388.03 358.45 385.384 356.647 385.227C354.844 385.07 353.08 386.775 352.453 390.813C351.826 394.851 352.1 395.517 352.1 395.517L349.395 396.458C349.395 396.458 349.982 386.031 347.434 384.698Z" fill="#FFC3AE"/>
<path d="M408.699 683.171L408.389 683.05L408.059 683.021C408.035 680.933 385.876 588.126 374.163 539.344L374.811 539.189C382.859 572.71 409.091 682.161 408.699 683.171Z" fill="#4C4F89"/>
<path d="M356.441 504.861L355.781 504.956L358.777 525.724L359.437 525.629L356.441 504.861Z" fill="#4C4F89"/>
<path fill-rule="evenodd" clip-rule="evenodd" d="M348.667 429.349C347.415 428.952 344.182 430.864 342.97 432.851C341.758 434.838 341.297 437.712 341.297 437.712C341.297 437.712 340.062 437.222 339.938 437.764C338.109 445.761 340.408 448.479 339.677 451.458L321.384 478.846C321.232 476.694 296.717 435.569 296.717 435.569C296.717 435.569 293.843 429.584 288.082 430.188C282.32 430.792 278.212 437.453 279.153 443.513C279.834 447.901 314.696 500.781 314.696 500.781C314.696 500.781 319.085 506.442 324.836 502.4C328.396 499.898 345.166 463.792 346.734 453.13C346.734 453.13 348.041 451.823 349.392 448.781C350.743 445.739 349.609 441.921 349.765 440.011C349.974 437.453 349.765 435.987 350.235 434.053C350.705 432.119 349.919 429.746 348.667 429.349Z" fill="#FFC3AE"/>
<path fill-rule="evenodd" clip-rule="evenodd" d="M307.616 398.607C307.808 399.515 307.543 400.339 307.026 400.449C306.508 400.558 305.933 399.911 305.742 399.003C305.55 398.095 305.815 397.271 306.332 397.161C306.85 397.052 307.425 397.699 307.616 398.607Z" fill="#332B28"/>
<path d="M302.134 397.893C302.127 397.895 302.119 397.897 302.112 397.899C301.932 397.939 301.755 397.826 301.714 397.647C301.687 397.526 301.074 394.668 303.097 393.344C305.145 392.003 307.686 394.298 307.793 394.396C307.929 394.52 307.938 394.731 307.813 394.866C307.689 395.001 307.478 395.011 307.342 394.887C307.32 394.867 305.076 392.847 303.461 393.901C301.826 394.971 302.357 397.477 302.363 397.502C302.403 397.673 302.301 397.844 302.134 397.893Z" fill="#332B28"/>
<path fill-rule="evenodd" clip-rule="evenodd" d="M336.501 394.762C336.5 395.69 336.071 396.442 335.542 396.441C335.013 396.441 334.585 395.688 334.585 394.76C334.586 393.832 335.015 393.08 335.544 393.081C336.074 393.082 336.502 393.835 336.501 394.762Z" fill="#332B28"/>
<path d="M333.055 390.873C333.048 390.872 333.04 390.871 333.032 390.869C332.852 390.831 332.736 390.655 332.774 390.475C332.799 390.354 333.417 387.497 335.807 387.123C338.226 386.744 339.596 389.882 339.653 390.016C339.725 390.185 339.647 390.38 339.478 390.453C339.309 390.525 339.113 390.447 339.04 390.278C339.028 390.25 337.815 387.486 335.909 387.781C333.978 388.083 333.431 390.585 333.426 390.61C333.39 390.784 333.227 390.897 333.055 390.873Z" fill="#332B28"/>
<path fill-rule="evenodd" clip-rule="evenodd" d="M307.725 411.912C307.725 411.912 309.918 414.024 312.913 411.048L307.725 411.912Z" fill="#F9A19D"/>
<path fill-rule="evenodd" clip-rule="evenodd" d="M332.805 408.249C332.805 408.249 334.912 412.853 338.818 408.471Z" fill="#F9A19D"/>
<path fill-rule="evenodd" clip-rule="evenodd" d="M353.727 395.415C353.727 395.415 354.797 387.627 357.184 388.414C359.571 389.201 358.461 391.968 358.239 392.19C358.017 392.412 356.406 389.969 355.851 390.524C355.296 391.08 353.727 395.415 353.727 395.415Z" fill="#F4AF9A"/>
<path fill-rule="evenodd" clip-rule="evenodd" d="M288.52 408.249C288.52 408.249 284.435 405.908 283.379 406.796C282.324 407.685 283.434 409.85 284.101 410.017C284.767 410.184 283.768 408.24 284.545 407.962C285.324 407.684 288.52 408.249 288.52 408.249Z" fill="#F4AF9A"/>
<path fill-rule="evenodd" clip-rule="evenodd" d="M224.77 430.786C222.038 430.647 219.279 431.489 216.877 436.182C214.475 431.489 211.715 430.647 208.984 430.786C205.787 430.948 202.578 434.79 203.722 439.651C205.995 449.313 216.877 455.138 216.877 455.138C216.877 455.138 227.759 449.313 230.033 439.651C231.176 434.79 227.967 430.949 224.77 430.786Z" fill="#FF8888"/>
<path fill-rule="evenodd" clip-rule="evenodd" d="M441.181 393.314C438.449 393.175 435.69 394.017 433.288 398.71C430.886 394.017 428.126 393.175 425.395 393.314C422.198 393.476 418.989 397.317 420.133 402.179C422.407 411.841 433.289 417.666 433.289 417.666C433.289 417.666 444.171 411.841 446.444 402.179C447.587 397.317 444.378 393.476 441.181 393.314Z" fill="#FF8888"/>
<path fill-rule="evenodd" clip-rule="evenodd" d="M404.841 368.929C403.537 368.863 402.221 369.264 401.074 371.504C399.927 369.264 398.611 368.862 397.307 368.929C395.781 369.006 394.25 370.84 394.796 373.16C395.881 377.771 401.074 380.551 401.074 380.551C401.074 380.551 406.267 377.771 407.352 373.16C407.898 370.839 406.367 369.006 404.841 368.929Z" fill="#FF8888"/>
<path fill-rule="evenodd" clip-rule="evenodd" d="M244.909 454.372C243.605 454.306 242.289 454.707 241.142 456.947C239.996 454.707 238.679 454.306 237.375 454.372C235.849 454.449 234.318 456.283 234.864 458.603C235.949 463.214 241.142 465.994 241.142 465.994C241.142 465.994 246.335 463.214 247.42 458.603C247.966 456.282 246.435 454.449 244.909 454.372Z" fill="#FF8888"/>
</g>
<defs>
<filter id="filter0_d_1333_43532" x="-99.6403" y="-212.549" width="1021.29" height="1311.54" filterUnits="userSpaceOnUse" color-interpolation-filters="sRGB">
<feFlood flood-opacity="0" result="BackgroundImageFix"/>
<feColorMatrix in="SourceAlpha" type="matrix" values="0 0 0 0 0 0 0 0 0 0 0 0 0 0 0 0 0 0 127 0" result="hardAlpha"/>
<feOffset dx="14" dy="4"/>
<feGaussianBlur stdDeviation="10.5"/>
<feComposite in2="hardAlpha" operator="out"/>
<feColorMatrix type="matrix" values="0 0 0 0 0 0 0 0 0 0 0 0 0 0 0 0 0 0 0.23 0"/>
<feBlend mode="normal" in2="BackgroundImageFix" result="effect1_dropShadow_1333_43532"/>
<feBlend mode="normal" in="SourceGraphic" in2="effect1_dropShadow_1333_43532" result="shape"/>
</filter>
<linearGradient id="paint0_linear_1333_43532" x1="413.841" y1="-195.549" x2="413.841" y2="1074" gradientUnits="userSpaceOnUse">
<stop stop-color="white"/>
<stop offset="1" stop-color="#AB1D79"/>
</linearGradient>
<clipPath id="clip0_1333_43532">
<rect width="500" height="500" fill="white" transform="translate(57 262)"/>
</clipPath>
</defs>
</svg>
