<svg width="500" height="500" viewBox="0 0 500 500" fill="none" xmlns="http://www.w3.org/2000/svg">
<g clip-path="url(#clip0_389_20757)">
<path fill-rule="evenodd" clip-rule="evenodd" d="M72.2109 446.871C72.2109 446.871 44.2219 330.039 56.8839 221.286C69.5459 112.533 126.996 30.5496 258.54 32.7656C390.084 34.9816 445.175 142.968 452.726 246.852C460.277 350.736 419.406 448.953 419.406 448.953L72.2109 446.871Z" fill="#F3DFE1"/>
<path d="M165.083 343.066C165.083 334.432 158.058 327.407 149.424 327.407H136.046C130.852 327.407 126.599 323.474 126.362 318.453C126.239 315.85 127.159 313.381 128.952 311.503C130.746 309.623 133.164 308.588 135.762 308.588H210.206C214.639 308.588 218.776 306.831 221.855 303.64C224.933 300.451 226.54 296.25 226.382 291.812C226.077 283.211 218.653 276.214 209.834 276.214H53.6204C53.6164 276.658 53.6124 277.103 53.6094 277.547H209.832C217.942 277.547 224.768 283.967 225.049 291.859C225.194 295.934 223.718 299.789 220.894 302.715C218.068 305.643 214.272 307.255 210.204 307.255H135.76C132.794 307.255 130.033 308.437 127.986 310.584C125.939 312.729 124.89 315.546 125.029 318.516C125.299 324.249 130.138 328.74 136.044 328.74H149.422C157.322 328.74 163.748 335.167 163.748 343.066C163.748 350.966 157.322 357.392 149.422 357.392H57.7754C57.8224 357.837 57.8694 358.282 57.9164 358.725H149.423C158.058 358.725 165.083 351.7 165.083 343.066Z" fill="#E5BDC3"/>
<path d="M257.205 97.511V90.653C257.205 86.41 253.753 82.958 249.51 82.958H201.627C198.119 82.958 195.264 80.104 195.264 76.596C195.264 73.088 198.118 70.234 201.627 70.234H208.952C213.195 70.234 216.647 66.782 216.647 62.539V54.944C216.647 50.701 213.195 47.249 208.952 47.249H170.12C169.031 47.683 167.954 48.129 166.882 48.582H208.952C212.46 48.582 215.314 51.436 215.314 54.944V62.539C215.314 66.047 212.46 68.901 208.952 68.901H201.627C197.384 68.901 193.931 72.353 193.931 76.596C193.931 80.839 197.383 84.291 201.627 84.291H249.51C253.018 84.291 255.872 87.145 255.872 90.653V97.511C255.872 101.019 253.018 103.873 249.51 103.873H97.867C97.549 104.317 97.229 104.759 96.916 105.206H249.51C253.753 105.206 257.205 101.754 257.205 97.511Z" fill="#E5BDC3"/>
<path d="M451.175 230.778H340.73C337.222 230.778 334.368 227.924 334.368 224.416V216.821C334.368 213.313 337.222 210.459 340.73 210.459H348.055C352.298 210.459 355.75 207.007 355.75 202.764C355.75 198.521 352.298 195.069 348.055 195.069H300.172C296.664 195.069 293.81 192.215 293.81 188.707V181.849C293.81 178.341 296.664 175.487 300.172 175.487H439.502C439.364 175.042 439.225 174.598 439.085 174.154H300.172C295.929 174.154 292.477 177.606 292.477 181.849V188.707C292.477 192.95 295.929 196.402 300.172 196.402H348.055C351.563 196.402 354.418 199.256 354.418 202.764C354.418 206.272 351.564 209.126 348.055 209.126H340.73C336.487 209.126 333.035 212.578 333.035 216.821V224.416C333.035 228.659 336.487 232.111 340.73 232.111H451.334C451.282 231.667 451.228 231.222 451.175 230.778Z" fill="#E5BDC3"/>
<path d="M191.262 253.292C196.827 253.292 201.338 248.781 201.338 243.216V233.384C201.338 227.819 196.827 223.308 191.262 223.308H122.616C117.051 223.308 112.54 218.797 112.54 213.232C112.54 207.667 117.051 203.156 122.616 203.156H133.118C138.683 203.156 143.194 198.645 143.194 193.08V182.192C143.194 176.627 138.683 172.116 133.118 172.116H66.3194C61.9884 187.693 58.8804 204.157 56.8854 221.286C55.6474 231.917 54.8004 242.625 54.2754 253.294H191.262V253.292Z" fill="#FCF0F2"/>
<path d="M388.087 85.5205H335.56C332.164 85.5205 329.412 88.2735 329.412 91.6685V97.6675C329.412 101.064 332.165 103.816 335.56 103.816H377.444C380.839 103.816 383.592 106.569 383.592 109.964C383.592 113.359 380.839 116.112 377.444 116.112H371.036C367.64 116.112 364.888 118.865 364.888 122.26V128.903C364.888 132.298 367.641 135.05 371.036 135.05H423.165C413.852 116.802 402.236 100.004 388.087 85.5205Z" fill="#FCF0F2"/>
<path fill-rule="evenodd" clip-rule="evenodd" d="M432.804 332.068C432.804 332.068 449.253 305.24 445.141 269.416C441.029 233.592 418.412 239.563 418.412 239.563C418.412 239.563 423.758 175.233 385.103 173.601C346.448 171.969 352.617 239.563 352.617 239.563C352.617 239.563 332.056 232.666 327.533 255.555C323.01 278.444 343.982 327.083 343.982 327.083C343.982 327.083 317.927 326.615 316.43 352.825C315.599 367.366 317.118 385.489 319.223 401.927C322.501 427.525 345.428 446.762 372.616 446.762H408.733C432.301 446.762 452.609 430.948 457.103 409.005C463.486 377.827 464.997 337.791 432.804 332.068Z" fill="#A84083"/>
<path d="M458.096 355.603L384.121 390.064C386.008 368.989 387.935 343.321 389.218 315.567L444.214 263.452C444.005 262.4 443.778 261.389 443.534 260.425L389.392 311.731C390.414 288.379 390.963 263.65 390.639 239.007L416.521 208.503C416.304 207.413 416.064 206.32 415.803 205.229L390.577 234.96C390.221 214.154 389.223 193.471 387.348 173.783C386.614 173.702 385.87 173.636 385.102 173.604C384.95 173.598 384.805 173.602 384.654 173.597C386.548 193.32 387.555 214.057 387.913 234.923L355.227 202.083C354.975 203.105 354.743 204.132 354.53 205.162L387.973 238.762C388.303 263.322 387.761 287.976 386.747 311.27L332.543 244.287C331.97 244.952 331.424 245.691 330.912 246.509L386.567 315.285C385.286 343.053 383.356 368.739 381.469 389.821L317.477 346.06C317.238 346.955 317.037 347.894 316.871 348.875L381.193 392.862C378.327 424.279 375.636 444.737 375.557 445.327L378.199 445.68C378.278 445.09 380.973 424.603 383.843 393.135L458.806 358.213C458.59 357.328 458.353 356.458 458.096 355.603Z" fill="#D3D7F4"/>
<path fill-rule="evenodd" clip-rule="evenodd" d="M361.883 373.6C361.883 373.6 372.51 356.268 369.853 333.123C367.196 309.979 352.584 313.836 352.584 313.836C352.584 313.836 356.038 272.275 331.065 271.221C306.092 270.167 310.077 313.836 310.077 313.836C310.077 313.836 296.793 309.38 293.871 324.168C290.949 338.955 304.498 370.379 304.498 370.379C304.498 370.379 287.665 370.077 286.698 387.01C286.161 396.404 287.142 408.113 288.502 418.733C290.62 435.271 305.432 447.699 322.997 447.699H346.33C361.556 447.699 374.676 437.482 377.58 423.306C381.705 403.163 382.681 377.297 361.883 373.6Z" fill="#CD77AF"/>
<path d="M317.801 447.326C318.675 447.451 319.56 447.541 320.453 447.603C321.013 443.176 322.584 430.271 324.235 412.334L377.761 387.399C377.46 386.547 377.117 385.728 376.744 384.933L324.514 409.264C325.364 399.784 326.22 389.036 326.958 377.482C327.359 371.207 327.736 364.467 328.061 357.399L366.431 321.039C365.965 320.189 365.471 319.433 364.959 318.762L328.23 353.567C328.895 337.87 329.276 320.683 329.042 303.277L347.253 281.814C346.799 280.988 346.308 280.193 345.778 279.432L328.975 299.235C328.798 289.906 328.435 280.547 327.842 271.349C326.917 271.466 326.041 271.656 325.207 271.905C325.783 280.94 326.137 290.132 326.311 299.296L312.881 285.802C312.556 286.751 312.264 287.719 312.002 288.698L326.375 303.139C326.612 320.459 326.235 337.571 325.576 353.212L296.651 317.467C296.121 318.169 295.636 318.984 295.207 319.921L325.399 357.231C325.075 364.291 324.698 371.024 324.298 377.292C323.56 388.846 322.704 399.591 321.855 409.064L286.885 385.149C286.803 385.748 286.736 386.362 286.699 387.01C286.676 387.405 286.66 387.81 286.643 388.213L321.579 412.104C319.926 430.074 318.352 442.978 317.801 447.326Z" fill="#D3D7F4"/>
<path fill-rule="evenodd" clip-rule="evenodd" d="M127.829 354.397C127.829 354.397 140.33 334.008 137.205 306.781C134.08 279.554 116.89 284.092 116.89 284.092C116.89 284.092 120.953 235.2 91.5746 233.96C62.1966 232.72 66.8846 284.092 66.8846 284.092C66.8846 284.092 51.2576 278.85 47.8196 296.246C44.3816 313.642 60.3206 350.608 60.3206 350.608C60.3206 350.608 40.5186 350.253 39.3806 370.173C38.7496 381.224 39.9036 394.998 41.5026 407.492C43.9936 426.947 61.4186 441.567 82.0816 441.567H109.531C127.443 441.567 142.878 429.548 146.293 412.871C151.147 389.174 152.296 358.746 127.829 354.397Z" fill="#CD77AF"/>
<path d="M94.5347 408.399L146.223 369.853C145.894 368.989 145.532 368.15 145.137 367.338L94.2737 405.268C93.4477 395.216 92.6137 383.814 91.8957 371.553C91.5047 364.874 91.1367 357.696 90.8197 350.17L133.341 292.87C132.864 291.969 132.361 291.155 131.839 290.421L90.6487 345.928C89.8767 325.922 89.5077 303.65 90.0957 281.464L114.451 256.208C114.184 255.225 113.889 254.249 113.568 253.284L90.2107 277.505C90.6817 262.689 91.5947 247.978 93.1167 234.077C92.6117 234.025 92.0997 233.983 91.5737 233.961C91.1927 233.945 90.8217 233.943 90.4517 233.944C88.9887 247.354 88.0877 261.503 87.6017 275.773L68.8797 255.56C68.6197 256.61 68.3867 257.668 68.1807 258.728L87.4817 279.565C86.8177 302.533 87.1937 325.651 87.9967 346.331L47.4097 304.39C47.4867 305.762 47.6217 307.181 47.8067 308.632L88.1587 350.33C88.4747 357.855 88.8437 365.031 89.2347 371.709C89.9547 383.999 90.7897 395.429 91.6187 405.506L39.2207 378.888C39.2347 379.885 39.2627 380.898 39.2957 381.916L91.8787 408.629C93.1217 423.365 94.3197 434.909 95.0517 441.567H97.7337C97.0067 434.978 95.7947 423.336 94.5347 408.399Z" fill="#D3D7F4"/>
<path fill-rule="evenodd" clip-rule="evenodd" d="M338.286 429.578H168.969C140.699 429.578 58.4219 438.017 58.4219 448.427C58.4219 458.837 140.699 467.276 168.969 467.276H338.285C366.555 467.276 448.832 458.837 448.832 448.427C448.833 438.017 366.555 429.578 338.286 429.578Z" fill="#AB1D79"/>
<path fill-rule="evenodd" clip-rule="evenodd" d="M221.436 117.185C221.436 117.185 216.771 112.419 212.106 112.752C207.441 113.085 203.665 121.637 207.108 125.191C210.551 128.745 218.992 126.695 218.992 126.695L221.436 117.185Z" fill="#332B28"/>
<path fill-rule="evenodd" clip-rule="evenodd" d="M221.437 115.64C221.437 115.64 219.327 113.863 217.661 115.64C215.995 117.417 216.167 122.135 209.109 132.522C197.336 149.848 182.675 148.993 181.564 154.182C180.453 159.371 190.783 159.067 190.227 163.621C189.672 168.175 188.887 168.764 191.338 170.507C196.336 174.061 199.002 170.396 201.001 171.84C203 173.284 208.109 165.183 209.886 161.459C211.663 157.735 221.104 131.19 220.771 125.192C220.438 119.194 221.437 115.64 221.437 115.64Z" fill="#F7F0E4"/>
<path d="M192.004 154.515C191.893 154.515 191.785 154.46 191.721 154.359C191.623 154.203 191.67 153.997 191.826 153.899C210.828 141.997 217.389 121.848 217.453 121.646C217.509 121.47 217.696 121.372 217.871 121.429C218.046 121.485 218.144 121.672 218.088 121.847C218.023 122.052 211.387 142.433 192.18 154.463C192.126 154.498 192.065 154.515 192.004 154.515Z" fill="#EADFCE"/>
<path d="M190.867 166.565C190.755 166.565 190.646 166.509 190.583 166.407C190.486 166.25 190.534 166.045 190.691 165.948C190.876 165.834 209.255 154.262 216.625 133.135C216.686 132.961 216.878 132.87 217.049 132.93C217.223 132.991 217.315 133.181 217.254 133.354C209.804 154.71 191.229 166.399 191.042 166.515C190.987 166.549 190.926 166.565 190.867 166.565Z" fill="#EADFCE"/>
<path fill-rule="evenodd" clip-rule="evenodd" d="M297.934 440.415C297.385 436.025 296.217 434.165 296.217 434.165L285.938 431.556C285.938 431.556 285.467 431.87 282.959 434.457C280.45 437.044 266.808 443.473 261.399 445.747C255.99 448.02 251.52 451.784 251.52 451.784L297.855 450.373C297.855 450.373 298.482 444.805 297.934 440.415Z" fill="#2B211F"/>
<path fill-rule="evenodd" clip-rule="evenodd" d="M342.738 441.668C338.402 441.736 331.02 446.293 327.499 449.794C326.795 450.495 327.296 451.695 328.289 451.69L353.466 451.546C353.466 451.546 366.206 438.588 366.989 437.568C367.773 436.549 364.271 432.835 363.017 430.953C361.763 429.071 357.679 426.731 357.679 426.731L345.507 428.865L345.142 435.842L342.738 441.668Z" fill="#2B211F"/>
<path fill-rule="evenodd" clip-rule="evenodd" d="M295.458 435.842C296.629 433.485 296.376 432.772 296.376 432.772C296.376 432.772 290.295 431.566 288.49 431.59C286.685 431.613 285.777 432.596 285.777 432.596C285.777 432.596 285.049 435.093 286.889 436.483C288.729 437.871 294.287 438.198 295.458 435.842Z" fill="#EBB495"/>
<path fill-rule="evenodd" clip-rule="evenodd" d="M297.258 434.76L312.116 284.855L274.838 267.557L284.407 431.778C284.407 431.778 288.403 434.489 292.471 434.848C296.538 435.208 297.258 434.76 297.258 434.76Z" fill="#4C4F89"/>
<path d="M296.114 284.58L289.535 430.95L290.201 430.98L296.78 284.61L296.114 284.58Z" fill="#686BB8"/>
<path fill-rule="evenodd" clip-rule="evenodd" d="M352.916 430.144C357.542 428.654 358.169 427.478 358.169 427.478L353.935 421.049L344.605 424.42L345.86 430.614C345.86 430.614 348.291 431.634 352.916 430.144Z" fill="#EBB495"/>
<path fill-rule="evenodd" clip-rule="evenodd" d="M281.818 196.395L280.116 167.653L263.158 194.357C263.158 194.357 268.176 218.638 268.96 218.661C269.744 218.683 281.818 196.395 281.818 196.395Z" fill="#686BB8"/>
<path fill-rule="evenodd" clip-rule="evenodd" d="M207.36 154.088C207.36 154.088 198.344 157.773 199.677 172.433C199.677 172.433 201.088 188.819 214.652 189.76C228.215 190.701 263.654 175.805 263.497 135.664C263.497 135.664 263.027 120.062 257.539 113.163C252.051 106.264 242.643 105.323 238.566 109.165C234.489 113.007 233.509 112.301 229.668 112.379C220.095 112.574 216.524 118.081 215.358 128.06C214.103 138.8 218.571 144.366 207.36 154.088Z" fill="#332B28"/>
<path fill-rule="evenodd" clip-rule="evenodd" d="M238.136 169.26C242.252 170.397 251.072 175.454 251.072 175.454C245.717 168.011 244.413 159.083 243.624 150.169L229.551 147.464C230.746 154.499 230.801 161.078 230.022 168.162C230.022 168.162 234.02 168.123 238.136 169.26Z" fill="#FFC3AE"/>
<path fill-rule="evenodd" clip-rule="evenodd" d="M243.624 150.169L229.551 147.464C230.169 151.1 230.476 154.615 230.527 158.14C230.849 158.095 231.172 158.05 231.52 158.006C236.549 157.375 242.067 159.488 245.076 160.9C244.353 157.387 243.943 153.777 243.624 150.169Z" fill="#F4AF9A"/>
<path fill-rule="evenodd" clip-rule="evenodd" d="M350.761 425.827C353.622 425.357 356.406 422.73 356.406 422.73L324.193 264.566C321.888 257.128 289.149 249.284 283.826 271.203L344.606 425.671C344.606 425.671 347.9 426.297 350.761 425.827Z" fill="#686BB8"/>
<path fill-rule="evenodd" clip-rule="evenodd" d="M324.193 264.565C321.888 257.127 289.149 249.283 283.826 271.202L288.716 283.629C297.346 282.942 315.419 280.982 326.538 276.083L324.193 264.565Z" fill="#4C4F89"/>
<path fill-rule="evenodd" clip-rule="evenodd" d="M232.151 143.661C232.151 143.661 229.721 141.936 227.644 141.818C218.856 141.32 226.435 155.399 235.367 151.109C235.367 151.109 239.405 155.421 244.07 157.029C252.528 159.943 256.056 157.195 256.458 148.444C256.615 145.033 256.704 143.717 256.704 143.717C256.704 143.717 259.589 142.051 259.04 140.013C258.491 137.975 254.695 134.881 254.695 134.881C253.763 129.345 250.707 116.148 242.426 118.339C238.722 119.319 237.051 122.964 237.051 122.964C241.9 129.693 238.14 139.014 232.151 143.661Z" fill="#FFC3AE"/>
<path fill-rule="evenodd" clip-rule="evenodd" d="M269.261 196.7C266.547 187.553 254.613 177.041 246.446 172.708C238.279 168.376 233.431 166.946 228.806 168.631C224.18 170.317 221.436 177.882 220.573 181.959C219.711 186.036 218.064 192.151 225.669 207.596C233.274 223.041 234.276 234.084 234.276 239.729C234.276 245.374 237.833 243.675 239.715 244.302C241.596 244.929 262.021 246.745 268.371 244.863C274.721 242.981 270.122 239.192 269.73 226.335C269.338 213.478 271.377 203.834 269.261 196.7Z" fill="#F7F0E4"/>
<path fill-rule="evenodd" clip-rule="evenodd" d="M249.609 188.829C249.609 188.829 257.832 200.815 262.571 201.652C267.31 202.488 267.31 202.488 267.31 202.488C267.31 202.488 269.261 215.59 265.637 217.401C262.014 219.214 249.609 188.829 249.609 188.829Z" fill="#EADFCE"/>
<path fill-rule="evenodd" clip-rule="evenodd" d="M278.084 301.645C273.066 240.963 269.526 237.338 269.526 237.338L234.752 240.682C234.752 240.682 220.945 253.746 209.19 284.273C198.421 312.24 159.855 413.988 154.838 426.375C153.059 430.768 151.851 433.741 151.034 435.749C149.963 438.378 152.004 441.239 154.837 441.048C154.889 441.044 154.942 441.041 154.995 441.037C160.326 440.645 163.149 436.646 169.735 442.84C176.321 449.034 169.421 454.443 184.474 455.463C199.527 456.482 196.089 451.001 206.124 451.706C216.159 452.411 209.327 457.893 223.125 458.207C236.924 458.521 233.921 451.706 244.035 451.785C254.149 451.864 252.997 457.502 262.169 458.129C267.83 458.516 274.312 455.739 278.446 453.556C281.046 452.183 282.68 449.497 282.681 446.557C282.689 427.743 282.428 354.178 278.084 301.645Z" fill="#F7F0E4"/>
<path d="M237.295 281.868C227.217 331.72 213.39 447.448 212.572 454.329C212.671 454.446 212.769 454.564 212.866 454.683L213.197 454.722C213.34 453.512 227.618 333.105 237.949 282L237.295 281.868Z" fill="#EADFCE"/>
<path d="M199.219 349.077L174 451.24C174.071 451.393 174.149 451.543 174.232 451.69L174.555 451.77L199.866 349.236L199.219 349.077Z" fill="#EADFCE"/>
<path d="M271.893 317.468L271.227 317.484L274.441 455.462C274.663 455.367 274.884 455.273 275.101 455.177L271.893 317.468Z" fill="#EADFCE"/>
<path d="M257.361 457.088C257.574 457.176 257.797 457.258 258.027 457.339V310.229H257.361V457.088Z" fill="#EADFCE"/>
<path d="M239.992 241.161L239.44 240.788C239.289 241.011 224.261 263.382 216.396 286.986C208.541 310.562 201.409 341.055 201.338 341.36L201.987 341.511C202.058 341.206 209.183 310.743 217.028 287.196C224.863 263.681 239.841 241.383 239.992 241.161Z" fill="#EADFCE"/>
<path d="M232.096 456.817L235.725 378.54L235.06 378.509L231.416 457.101C231.653 457.009 231.879 456.914 232.096 456.817Z" fill="#EADFCE"/>
<path d="M256.91 242.908H256.244V292.945H256.91V242.908Z" fill="#EADFCE"/>
<path d="M249.288 242.819C244.32 260.622 237.36 336.197 237.291 336.959L237.955 337.02C238.025 336.26 244.978 260.744 249.93 242.999L249.288 242.819Z" fill="#EADFCE"/>
<path d="M194.175 454.889C196.698 440.256 204.507 395.428 210.631 365.209L209.978 365.077C203.811 395.508 195.937 440.745 193.469 455.066C193.715 455.01 193.95 454.951 194.175 454.889Z" fill="#EADFCE"/>
<path d="M271.891 301.563C271.743 299.526 268.204 251.573 263.795 242.76L263.199 243.058C267.55 251.754 271.191 301.114 271.226 301.611L271.891 301.563Z" fill="#EADFCE"/>
<path fill-rule="evenodd" clip-rule="evenodd" d="M233.766 232.567C235.539 233.807 240.318 236.863 247.652 238.092C261.414 240.399 266.614 240.401 266.614 240.401L222.152 181.514C222.152 181.514 221.323 196.491 224.871 205.935C225.126 206.479 225.39 207.031 225.67 207.599C230.81 218.037 232.929 226.457 233.766 232.567Z" fill="#EADFCE"/>
<path fill-rule="evenodd" clip-rule="evenodd" d="M270.655 237.337C262.431 240.66 240.907 237.489 234.539 236.088C233.514 235.863 232.516 236.542 232.342 237.577L231.721 241.269C231.569 242.175 232.105 243.07 232.987 243.326C249.442 248.109 271.558 244.776 271.558 244.776L270.655 237.337Z" fill="#FA7070"/>
<path fill-rule="evenodd" clip-rule="evenodd" d="M305.159 143.718C305.159 143.718 307.034 138.122 308.706 131.651C312.418 117.291 315.829 102.261 295.099 107.293C294.888 97.7176 284.8 97.6226 282.986 105.137C278.72 98.6166 270.605 103.56 272.873 113.879C275.994 128.08 293.924 137.164 305.159 143.718Z" fill="#332B28"/>
<path fill-rule="evenodd" clip-rule="evenodd" d="M330.667 173.777C329.995 159.649 321.066 151.469 304.941 152.332C296.16 152.802 288.085 156.017 282.519 163.465C276.952 170.913 274.444 188.632 273.739 194.747C273.034 200.862 273.661 240.533 274.288 248.765C274.915 256.997 273.428 268.094 273.428 268.094C273.428 268.094 278.739 272.038 285.717 274.547C292.695 277.056 296.595 273.339 296.595 273.339C296.595 273.339 296.005 266.718 303.296 264.994C310.587 263.269 315.762 273.853 315.762 273.853L327.993 265.386C327.993 265.386 319.684 243.434 320.154 232.771C320.624 222.109 331.137 183.656 330.667 173.777Z" fill="#686BB8"/>
<path fill-rule="evenodd" clip-rule="evenodd" d="M330.667 173.776C330.563 171.589 330.26 169.545 329.764 167.655C326.129 161.806 317.737 158.14 313.035 165.795L307.214 175.099L289.342 217.535C288.979 218.396 288.13 218.949 287.196 218.934L273.486 218.703C273.563 225.879 273.778 237.035 273.95 242.907L295.906 246.531C300.431 247.124 304.886 245.022 307.296 241.146C313.84 230.62 323.455 204.235 328.937 187.563C330.068 181.553 330.799 176.543 330.667 173.776Z" fill="#4C4F89"/>
<path fill-rule="evenodd" clip-rule="evenodd" d="M225.056 212.78C224.193 216.386 226.624 218.739 227.408 223.286C228.192 227.833 228.035 229.793 232.19 230.969C236.345 232.145 239.716 231.517 239.716 231.517C239.716 231.517 241.519 224.697 241.99 220.463C242.46 216.229 242.222 214.753 242.222 214.753C241.333 212.924 239.951 208.311 236.58 207.37C233.209 206.429 229.681 206.194 229.289 207.684C228.897 209.174 229.367 210.036 229.367 210.036C229.367 210.036 225.918 209.174 225.056 212.78Z" fill="#FFC3AE"/>
<path fill-rule="evenodd" clip-rule="evenodd" d="M302.397 158.257C304.3 156.542 305.923 155.211 307.215 154.213C308.013 153.597 307.579 152.324 306.571 152.305C306.037 152.295 305.494 152.304 304.941 152.333C298.589 152.673 292.607 154.45 287.676 158.227C285.716 160.74 284.803 160.189 284.245 170.224C283.831 177.67 285.716 180.956 285.716 180.956C285.716 180.956 297.192 162.948 302.397 158.257Z" fill="#F7F0E4"/>
<path fill-rule="evenodd" clip-rule="evenodd" d="M286.452 160.738C287.121 159.703 288.826 162.149 288.826 162.149C288.826 162.149 289.201 161.066 290.45 161.108C291.699 161.15 291.533 162.149 291.533 162.149C291.533 162.149 293.425 159.513 294.728 159.727C296.031 159.941 296.135 167.476 294.438 168.395C292.741 169.313 290.992 165.523 290.992 165.523C290.992 165.523 289.992 166.689 288.576 165.44C288.576 165.44 286.395 168.806 285.654 168.772C284.585 168.722 284.161 164.28 286.452 160.738Z" fill="#FF8888"/>
<path fill-rule="evenodd" clip-rule="evenodd" d="M329.014 165.976C326.135 159.181 316.522 153.939 311.359 162.344L305.538 171.648L287.666 214.084C287.303 214.945 286.454 215.499 285.52 215.483L242.221 214.754L239.715 231.518L291.111 238.252C295.636 238.845 300.091 236.743 302.501 232.867C312.003 217.586 334.555 179.052 329.014 165.976Z" fill="#686BB8"/>
<path d="M271.708 215.616L271.705 214.95L286.366 214.904C287.434 212.5 297.9 188.927 302.55 177.885C307.45 166.249 312.787 160.012 312.841 159.95L313.345 160.386C313.292 160.447 308.02 166.614 303.165 178.143C298.284 189.733 287.001 215.116 286.888 215.371L286.8 215.568L271.708 215.616Z" fill="#4C4F89"/>
<path fill-rule="evenodd" clip-rule="evenodd" d="M268.37 215.19L268.32 215.282C268.362 215.284 268.374 215.248 268.37 215.19Z" fill="#FFC3A1"/>
<path fill-rule="evenodd" clip-rule="evenodd" d="M307.684 152.802C305.089 144.033 303.064 135.656 301.255 126.695L287.068 147.747C287.068 147.747 287.692 155.076 287.692 157.898C287.692 160.72 287.692 160.72 287.692 160.72C287.692 160.72 290.985 161.112 299.844 158.133C308.703 155.155 307.684 152.802 307.684 152.802Z" fill="#FFC3AE"/>
<path fill-rule="evenodd" clip-rule="evenodd" d="M301.255 126.695L287.068 147.747C287.068 147.747 287.617 154.19 287.685 157.32C296.852 157.32 300.065 146.179 305.795 146.11C303.691 138.638 302.813 134.412 301.255 126.695Z" fill="#F4AF9A"/>
<path fill-rule="evenodd" clip-rule="evenodd" d="M290.434 122.698C287.886 121.365 282.986 122.384 279.889 121.561C276.792 120.738 273.873 117.185 273.873 117.185L274.267 129.246C273.791 133.846 268.539 137.314 272.164 139.817C273.811 140.954 274.523 140.546 274.595 142.208C275.25 157.321 286.068 156.689 293.793 150.919C297.352 148.261 296.833 143.614 297.844 138.025C297.844 138.025 302.313 138.888 302.783 132.459C303.253 126.03 301.45 123.384 299.647 123.227C297.844 123.07 296.08 124.775 295.453 128.813C294.826 132.851 295.1 133.517 295.1 133.517L292.395 134.458C292.395 134.458 292.982 124.031 290.434 122.698Z" fill="#FFC3AE"/>
<path d="M351.698 421.17L351.388 421.049L351.058 421.02C351.034 418.932 328.875 326.125 317.162 277.343L317.81 277.188C325.858 310.709 352.09 420.16 351.698 421.17Z" fill="#4C4F89"/>
<path d="M299.441 242.861L298.781 242.956L301.777 263.724L302.438 263.629L299.441 242.861Z" fill="#4C4F89"/>
<path fill-rule="evenodd" clip-rule="evenodd" d="M291.666 167.349C290.414 166.952 287.181 168.864 285.969 170.851C284.757 172.838 284.296 175.712 284.296 175.712C284.296 175.712 283.061 175.222 282.937 175.764C281.108 183.761 283.407 186.479 282.676 189.458L264.383 216.846C264.231 214.694 239.716 173.569 239.716 173.569C239.716 173.569 236.842 167.584 231.081 168.188C225.319 168.792 221.211 175.453 222.152 181.513C222.833 185.901 257.695 238.781 257.695 238.781C257.695 238.781 262.084 244.442 267.835 240.4C271.395 237.898 288.165 201.792 289.733 191.13C289.733 191.13 291.04 189.823 292.391 186.781C293.742 183.739 292.608 179.921 292.764 178.011C292.973 175.453 292.764 173.987 293.234 172.053C293.704 170.119 292.918 167.746 291.666 167.349Z" fill="#FFC3AE"/>
<path fill-rule="evenodd" clip-rule="evenodd" d="M250.616 136.606C250.808 137.514 250.543 138.338 250.026 138.448C249.508 138.557 248.933 137.91 248.742 137.002C248.55 136.094 248.815 135.27 249.332 135.16C249.85 135.051 250.425 135.698 250.616 136.606Z" fill="#332B28"/>
<path d="M245.133 135.892C245.126 135.894 245.118 135.896 245.111 135.898C244.931 135.938 244.754 135.825 244.713 135.646C244.686 135.525 244.073 132.667 246.096 131.343C248.144 130.002 250.685 132.297 250.792 132.395C250.928 132.519 250.937 132.73 250.812 132.865C250.688 133 250.477 133.01 250.341 132.886C250.319 132.866 248.075 130.846 246.46 131.9C244.825 132.97 245.356 135.476 245.362 135.501C245.402 135.672 245.3 135.843 245.133 135.892Z" fill="#332B28"/>
<path fill-rule="evenodd" clip-rule="evenodd" d="M279.5 132.761C279.499 133.689 279.07 134.441 278.541 134.44C278.012 134.44 277.584 133.687 277.584 132.759C277.585 131.831 278.014 131.079 278.543 131.08C279.073 131.081 279.501 131.834 279.5 132.761Z" fill="#332B28"/>
<path d="M276.054 128.873C276.047 128.872 276.039 128.871 276.031 128.869C275.851 128.831 275.735 128.655 275.773 128.475C275.798 128.354 276.416 125.497 278.806 125.123C281.225 124.744 282.595 127.882 282.652 128.016C282.724 128.185 282.646 128.38 282.477 128.453C282.308 128.525 282.112 128.447 282.039 128.278C282.027 128.25 280.814 125.486 278.908 125.781C276.977 126.083 276.43 128.585 276.425 128.61C276.389 128.784 276.226 128.897 276.054 128.873Z" fill="#332B28"/>
<path fill-rule="evenodd" clip-rule="evenodd" d="M250.725 149.912C250.725 149.912 252.918 152.024 255.913 149.048L250.725 149.912Z" fill="#F9A19D"/>
<path fill-rule="evenodd" clip-rule="evenodd" d="M275.805 146.249C275.805 146.249 277.912 150.853 281.818 146.471L275.805 146.249Z" fill="#F9A19D"/>
<path fill-rule="evenodd" clip-rule="evenodd" d="M296.727 133.414C296.727 133.414 297.797 125.626 300.184 126.413C302.571 127.2 301.461 129.967 301.239 130.189C301.017 130.411 299.406 127.968 298.851 128.523C298.296 129.079 296.727 133.414 296.727 133.414Z" fill="#F4AF9A"/>
<path fill-rule="evenodd" clip-rule="evenodd" d="M231.52 146.249C231.52 146.249 227.435 143.908 226.379 144.796C225.324 145.685 226.434 147.85 227.101 148.017C227.767 148.184 226.768 146.24 227.545 145.962C228.324 145.684 231.52 146.249 231.52 146.249Z" fill="#F4AF9A"/>
<path fill-rule="evenodd" clip-rule="evenodd" d="M167.769 168.785C165.037 168.646 162.278 169.488 159.876 174.181C157.474 169.488 154.714 168.646 151.983 168.785C148.786 168.947 145.577 172.789 146.721 177.65C148.994 187.312 159.876 193.137 159.876 193.137C159.876 193.137 170.758 187.312 173.032 177.65C174.175 172.789 170.966 168.948 167.769 168.785Z" fill="#FF8888"/>
<path fill-rule="evenodd" clip-rule="evenodd" d="M384.181 131.314C381.449 131.175 378.69 132.017 376.288 136.71C373.886 132.017 371.126 131.175 368.395 131.314C365.198 131.476 361.989 135.317 363.133 140.179C365.407 149.841 376.289 155.666 376.289 155.666C376.289 155.666 387.171 149.841 389.444 140.179C390.587 135.317 387.378 131.476 384.181 131.314Z" fill="#FF8888"/>
<path fill-rule="evenodd" clip-rule="evenodd" d="M347.842 106.929C346.538 106.863 345.222 107.264 344.075 109.504C342.928 107.264 341.612 106.862 340.308 106.929C338.782 107.006 337.251 108.84 337.797 111.16C338.882 115.771 344.075 118.551 344.075 118.551C344.075 118.551 349.268 115.771 350.353 111.16C350.899 108.839 349.368 107.006 347.842 106.929Z" fill="#FF8888"/>
<path fill-rule="evenodd" clip-rule="evenodd" d="M187.908 192.372C186.604 192.306 185.288 192.707 184.141 194.947C182.995 192.707 181.678 192.306 180.374 192.372C178.848 192.449 177.317 194.283 177.863 196.603C178.948 201.214 184.141 203.994 184.141 203.994C184.141 203.994 189.334 201.214 190.419 196.603C190.965 194.282 189.434 192.449 187.908 192.372Z" fill="#FF8888"/>
</g>
<defs>
<clipPath id="clip0_389_20757">
<rect width="500" height="500" fill="white"/>
</clipPath>
</defs>
</svg>
