<svg width="246" height="43" viewBox="0 0 246 43" fill="none" xmlns="http://www.w3.org/2000/svg">
<path d="M20.023 22.1808C17.7722 22.1808 15.5206 21.4606 13.7878 19.3244C11.9416 17.0449 11.331 13.5357 12.2681 10.5931C13.2043 7.64871 15.6259 5.46753 18.2942 5.1669C20.1004 4.95712 21.775 5.667 22.7423 7.05868C23.8542 8.65358 23.9108 11.1129 22.8788 13.0365C21.9482 14.7728 20.375 15.5708 18.7627 15.1156C18.0076 14.8983 17.3803 14.2362 17.1241 13.3784C16.8631 12.5196 17.0004 11.5372 17.4801 10.8198C17.7052 10.4854 18.117 10.4292 18.3988 10.6887C18.6845 10.9509 18.7324 11.4332 18.5105 11.7666C18.3102 12.0654 18.2479 12.5093 18.3572 12.867C18.4682 13.2351 18.7483 13.531 19.0716 13.6228C20.5929 14.0545 21.4669 12.7846 21.7718 12.2189C22.3736 11.097 22.617 9.30727 21.7287 8.03079C20.9161 6.86481 19.4834 6.57637 18.4179 6.6953C16.2381 6.94255 14.2587 8.72384 13.4957 11.1307C12.7286 13.5367 13.2267 16.4052 14.7368 18.2661C18.3349 22.7099 24.9014 19.8516 27.5552 18.4225C32.7193 15.6345 37.4835 11.9651 41.7154 7.51477L42.1592 7.05025C45.7844 3.22922 49.8925 -1.09376 54.7039 0.255773C57.4232 1.02372 59.749 3.82862 60.4921 7.23102C61.1737 10.345 60.6302 13.8401 59.0019 16.822C57.6882 19.227 55.8732 20.4969 54.1124 20.2075C51.9334 19.8488 50.7298 17.1095 50.7019 14.7129C50.6747 12.3191 51.7331 10.6222 53.4643 10.2832C54.2122 10.1427 54.8755 10.5304 55.4294 10.934C55.7359 11.1588 55.8285 11.6327 55.6385 11.9923C55.4469 12.3566 55.0439 12.4606 54.7366 12.2396C54.3902 11.9867 53.9967 11.7319 53.679 11.7975C52.1042 12.1066 52.0037 14.0901 52.0117 14.6923C52.0316 16.4745 52.8912 18.4581 54.2944 18.6875C55.7486 18.9348 57.1047 17.4513 57.8997 15.9931C59.3108 13.4083 59.8073 10.2766 59.2238 7.61311C58.5973 4.74453 56.6569 2.38916 54.3974 1.75045C50.2589 0.57698 46.4181 4.62371 43.0332 8.19281L42.5894 8.66107C38.2586 13.2107 33.3842 16.9662 28.102 19.817C26.3979 20.7367 23.2117 22.1808 20.023 22.1808Z" fill="url(#paint0_linear_1391_28869)"/>
<path d="M52.8866 42.9264C48.8487 42.9264 45.3209 39.2084 42.1609 35.8791L41.7164 35.4117C37.4845 30.9632 32.7203 27.293 27.5562 24.505C24.9031 23.0758 18.3407 20.2166 14.7378 24.6613C13.2276 26.5241 12.7296 29.3917 13.4966 31.7967C14.2597 34.2027 16.2399 35.9858 18.4189 36.2321C19.4836 36.3529 20.9171 36.0645 21.7281 34.8976C22.618 33.6201 22.3754 31.8304 21.7727 30.7076C21.4687 30.1428 20.5955 28.8692 19.0726 29.3037C18.7493 29.3964 18.4692 29.6905 18.359 30.0576C18.2489 30.42 18.3103 30.8602 18.5115 31.1608C18.7334 31.4933 18.6855 31.9766 18.3997 32.2397C18.1172 32.501 17.7045 32.4439 17.481 32.1077C17.0014 31.3893 16.8641 30.4079 17.1267 29.5453C17.3813 28.6903 18.0102 28.0263 18.7645 27.8127C20.3672 27.3538 21.9483 28.1518 22.8798 29.89C23.9118 31.8136 23.8552 34.2711 22.7433 35.8697C21.7759 37.2576 20.1158 37.9609 18.2952 37.7596C15.6269 37.4599 13.2061 35.2797 12.2691 32.3343C11.332 29.3899 11.9426 25.8816 13.7888 23.6021C17.9735 18.4437 25.1945 21.539 28.103 23.1114C33.3852 25.9641 38.2603 29.7176 42.5904 34.2673L43.0349 34.7365C46.4215 38.3047 50.2599 42.3523 54.3983 41.1779C56.6587 40.5392 58.5982 38.1839 59.2248 35.3153C59.8083 32.6518 59.3118 29.5201 57.9006 26.9352C57.1049 25.478 55.7241 24.0049 54.2954 24.2427C52.8914 24.4722 52.0318 26.452 52.0126 28.2361C52.0046 28.8383 52.106 30.8218 53.68 31.1309C53.9976 31.1945 54.3927 30.9426 54.7375 30.6888C55.0432 30.4678 55.4471 30.5736 55.6387 30.9333C55.8302 31.2948 55.7368 31.7686 55.4304 31.9925C54.8796 32.398 54.2147 32.7932 53.4653 32.6452C51.7341 32.3043 50.6757 30.6083 50.7028 28.2164C50.73 25.8189 51.9336 23.0786 54.1134 22.7218C55.8566 22.4334 57.6875 23.6995 59.0029 26.1073C60.6312 29.0883 61.1747 32.5825 60.4931 35.6964C59.75 39.1007 57.4233 41.9019 54.7048 42.6717C54.0878 42.845 53.4804 42.9264 52.8866 42.9264Z" fill="url(#paint1_linear_1391_28869)"/>
<path d="M9.17977 25.1198C4.80985 25.1198 1.32189 22.1426 1.17662 22.0162L0.463867 21.3981L1.17662 20.7809C1.32269 20.6545 4.80985 17.6772 9.17977 17.6772C13.2895 17.6772 17.4503 18.9565 17.4503 21.3981C17.4503 23.8424 13.2895 25.1198 9.17977 25.1198ZM2.78491 21.3981C4.0037 22.2231 6.43011 23.5848 9.17977 23.5848C13.6846 23.5848 16.1413 22.1407 16.1413 21.3981C16.1413 20.6573 13.6854 19.2131 9.17977 19.2131C6.42053 19.2122 3.99971 20.572 2.78491 21.3981Z" fill="url(#paint2_linear_1391_28869)"/>
<path d="M131.418 22.2825H23.8256C23.464 22.2825 23.1719 21.9388 23.1719 21.5146C23.1719 21.0913 23.464 20.7476 23.8256 20.7476H131.419C131.781 20.7476 132.074 21.0913 132.074 21.5146C132.074 21.9388 131.781 22.2825 131.418 22.2825Z" fill="url(#paint3_linear_1391_28869)"/>
<path d="M72.4673 23.4022C72.3859 23.4022 72.3028 23.3835 72.2214 23.346C70.9412 22.7382 70.0353 21.2257 69.5284 18.8526C69.4702 18.5735 69.4127 18.2898 69.3584 18.0079C69.1014 16.6874 68.8564 15.4436 68.2035 14.5221C67.5107 13.5462 66.3318 13.049 65.2735 13.2962C64.2095 13.5425 63.2852 14.5221 62.9716 15.734C62.8638 16.1498 62.8447 16.5319 62.9157 16.8316C63.0298 17.3026 63.3818 17.7128 63.7442 18.0856C64.2079 18.5623 64.7618 19.0633 65.374 19.171C65.9096 19.2609 66.4779 18.9968 66.7604 18.5257C67.0358 18.0603 67.015 17.372 66.7149 16.9899C66.5761 16.81 66.351 16.6977 66.1139 16.6902C65.8673 16.6864 65.7132 16.7585 65.5911 16.899C65.3317 17.1903 64.9135 17.1856 64.6653 16.8784C64.4146 16.5721 64.4226 16.0861 64.6836 15.793C65.0659 15.3612 65.5983 15.1486 66.1538 15.1561C66.7429 15.1777 67.2992 15.467 67.6783 15.9494C68.3927 16.8615 68.4605 18.3469 67.834 19.4033C67.272 20.3529 66.2033 20.8633 65.1793 20.6891C64.2295 20.5234 63.4529 19.8294 62.8806 19.2413C62.3913 18.7365 61.8629 18.1062 61.6562 17.2474C61.5141 16.6555 61.5357 15.9962 61.7185 15.2882C62.1686 13.549 63.4952 12.1443 65.0204 11.7903C66.5673 11.4428 68.2051 12.1227 69.21 13.5416C70.0608 14.7412 70.3529 16.2256 70.6339 17.6623C70.6874 17.9376 70.7416 18.2111 70.7991 18.4817C71.1966 20.3501 71.8407 21.5086 72.7123 21.9216C73.0475 22.0808 73.2104 22.5294 73.0747 22.9218C72.9709 23.2215 72.7259 23.4022 72.4673 23.4022Z" fill="url(#paint4_linear_1391_28869)"/>
<path d="M72.6437 23.4046C72.3851 23.4046 72.1401 23.2239 72.0363 22.9242C71.9014 22.5318 72.0634 22.0832 72.3979 21.924C73.2695 21.511 73.9128 20.3525 74.3119 18.4841C74.3701 18.2088 74.4252 17.9316 74.4787 17.6553C74.7604 16.2224 75.0517 14.7427 75.9002 13.543C76.9059 12.1232 78.5517 11.4349 80.0905 11.7917C81.6142 12.1457 82.9416 13.5486 83.3909 15.2896C83.5737 15.9976 83.596 16.657 83.454 17.2479C83.2504 18.102 82.7213 18.7351 82.2304 19.2427C81.6597 19.8309 80.8823 20.5258 79.9285 20.6906C78.9172 20.8676 77.8381 20.3553 77.2762 19.4047C76.6489 18.3483 76.7167 16.8658 77.4319 15.9508C77.8118 15.4685 78.3665 15.181 78.9555 15.1576C79.5103 15.1379 80.0458 15.3627 80.4266 15.7926C80.6892 16.0866 80.6955 16.5717 80.4449 16.878C80.1959 17.1833 79.7816 17.1927 79.5206 16.9014C79.3961 16.7609 79.2078 16.7029 78.9947 16.6916C78.7592 16.7 78.5349 16.8115 78.3952 16.9913C78.0951 17.3734 78.0744 18.0608 78.3481 18.5235C78.6291 19.0001 79.203 19.2652 79.7338 19.1715C80.3475 19.0638 80.9023 18.5628 81.3652 18.0861C81.7276 17.7124 82.0803 17.2994 82.1913 16.8321C82.2631 16.5324 82.244 16.1503 82.137 15.7345C81.8233 14.5226 80.8975 13.543 79.8343 13.2967C78.768 13.0485 77.5955 13.5458 76.9051 14.5226C76.2554 15.4395 76.0103 16.6823 75.7517 17.9971C75.6959 18.2856 75.6392 18.5712 75.5793 18.8531C75.0733 21.2263 74.1674 22.7378 72.8871 23.3466C72.8081 23.3859 72.7251 23.4046 72.6437 23.4046Z" fill="url(#paint5_linear_1391_28869)"/>
<path d="M65.8359 31.4201C65.5645 31.4201 65.2907 31.3892 65.0209 31.3265C63.4957 30.9734 62.1699 29.5696 61.7189 27.8286C61.5362 27.1206 61.5146 26.4612 61.6567 25.8703C61.8634 25.0115 62.391 24.3793 62.8811 23.8755C63.4533 23.2873 64.2308 22.5924 65.1822 22.4276C66.2062 22.2497 67.2733 22.7638 67.8352 23.7153C68.4618 24.7717 68.394 26.2543 67.6796 27.1664C67.3005 27.6497 66.7442 27.94 66.1551 27.9615C65.6028 27.985 65.0664 27.7546 64.6849 27.3257C64.4239 27.0325 64.4159 26.5464 64.6666 26.2402C64.9148 25.9349 65.333 25.9265 65.5924 26.2196C65.7145 26.3564 65.8702 26.4275 66.1152 26.4266C66.3523 26.4172 66.5773 26.3067 66.7162 26.1269C67.0163 25.7457 67.0371 25.0565 66.7617 24.5919C66.4808 24.1199 65.9157 23.853 65.3753 23.9476C64.7639 24.0534 64.2084 24.5554 63.7455 25.0321C63.3823 25.4058 63.0311 25.816 62.917 26.2889C62.8459 26.5867 62.8651 26.967 62.9728 27.3837C63.2865 28.5956 64.2108 29.5771 65.2747 29.8215C66.3355 30.0697 67.5112 29.5743 68.2048 28.5956C68.8569 27.6768 69.1003 26.4294 69.3597 25.1126C69.4148 24.8279 69.4715 24.5451 69.5297 24.2651C70.0358 21.8919 70.9425 20.3823 72.2227 19.7726C72.5556 19.6143 72.9395 19.8007 73.076 20.1968C73.2108 20.5902 73.0488 21.0369 72.7136 21.1961C71.842 21.6091 71.1987 22.7676 70.8004 24.636C70.7429 24.9066 70.6887 25.182 70.6344 25.4564C70.3534 26.8911 70.0621 28.3764 69.2113 29.5771C68.3812 30.7477 67.1177 31.4201 65.8359 31.4201Z" fill="url(#paint6_linear_1391_28869)"/>
<path d="M79.2734 31.4194C77.9923 31.4194 76.7288 30.747 75.8987 29.5754C75.0503 28.3776 74.759 26.896 74.4772 25.465C74.4237 25.1859 74.3687 24.9096 74.3104 24.6352C73.9105 22.765 73.268 21.6074 72.3964 21.1935C72.062 21.0343 71.9 20.5876 72.0348 20.1942C72.1721 19.8 72.5512 19.6127 72.8873 19.77C74.1675 20.3769 75.0734 21.8893 75.5795 24.2625C75.6401 24.5444 75.696 24.831 75.7519 25.1194C76.0105 26.4334 76.2547 27.6752 76.9052 28.593C77.598 29.5717 78.7761 30.0662 79.8345 29.8189C80.8976 29.5745 81.8235 28.593 82.1371 27.3811C82.2441 26.9644 82.2633 26.5841 82.1914 26.2845C82.0805 25.8153 81.7277 25.4051 81.3653 25.0295C80.9024 24.5528 80.3461 24.0509 79.7347 23.945C79.2047 23.8504 78.6292 24.1183 78.3483 24.5893C78.0737 25.0529 78.0945 25.7432 78.3954 26.1243C78.535 26.3041 78.7593 26.4156 78.9948 26.424C79.2079 26.4362 79.3963 26.3547 79.5208 26.2152C79.7834 25.923 80.196 25.9323 80.4451 26.2376C80.6957 26.5439 80.6885 27.0299 80.4267 27.3231C80.0452 27.752 79.5128 27.9796 78.9557 27.959C78.3666 27.9365 77.8119 27.6471 77.432 27.1638C76.7168 26.2517 76.649 24.7673 77.2764 23.7118C77.8383 22.7622 78.903 22.2452 79.9294 22.426C80.8809 22.5908 81.659 23.2857 82.2297 23.8739C82.7206 24.3805 83.249 25.0145 83.4533 25.8686C83.5954 26.4596 83.5738 27.1189 83.3903 27.8269C82.9409 29.5679 81.6136 30.9737 80.0899 31.3249C79.8193 31.3876 79.5463 31.4194 79.2734 31.4194Z" fill="url(#paint7_linear_1391_28869)"/>
<path d="M225.746 22.1794C222.558 22.1794 219.373 20.7353 217.666 19.8147C212.384 16.9639 207.51 13.2085 203.179 8.65883L202.735 8.19057C199.351 4.62147 195.512 0.574742 191.372 1.74821C189.111 2.38692 187.17 4.74133 186.544 7.61084C185.962 10.2762 186.456 13.4061 187.868 15.989C188.666 17.4491 190.034 18.9325 191.474 18.6853C192.878 18.4558 193.736 16.4732 193.756 14.6901C193.764 14.0879 193.664 12.1043 192.089 11.7953C191.769 11.7334 191.376 11.9844 191.032 12.2373C190.724 12.4583 190.323 12.3543 190.13 11.99C189.939 11.6304 190.031 11.1566 190.339 10.9318C190.892 10.5272 191.562 10.1367 192.304 10.2809C194.034 10.6199 195.093 12.3178 195.065 14.7097C195.038 17.1082 193.833 19.8466 191.656 20.2052C189.893 20.4937 188.081 19.2247 186.766 16.8178C185.14 13.8406 184.596 10.3436 185.277 7.22875C186.022 3.82448 188.348 1.02146 191.065 0.253506C195.879 -1.10165 199.988 3.22698 203.611 7.04801L204.055 7.51253C208.286 11.9629 213.053 15.6322 218.214 18.4202C220.869 19.8522 227.433 22.7058 231.034 18.2638C232.543 16.403 233.043 13.5344 232.276 11.1284C231.51 8.72157 229.532 6.93937 227.352 6.69307C226.289 6.57413 224.854 6.86257 224.043 8.02855C223.153 9.3041 223.395 11.0938 223.998 12.2167C224.303 12.7833 225.177 14.0616 226.699 13.6205C227.021 13.5287 227.302 13.2328 227.412 12.8666C227.522 12.507 227.461 12.064 227.26 11.7643C227.038 11.4309 227.087 10.9486 227.372 10.6864C227.656 10.426 228.068 10.4822 228.29 10.8175C228.772 11.5358 228.907 12.5173 228.646 13.3798C228.391 14.2349 227.763 14.897 227.009 15.1143C225.394 15.576 223.822 14.7734 222.891 13.0352C221.86 11.1116 221.916 8.65226 223.031 7.05735C223.996 5.66661 225.672 4.96048 227.478 5.16558C230.145 5.46621 232.565 7.64738 233.502 10.5918C234.44 13.5353 233.83 17.0445 231.984 19.3231C230.252 21.4602 227.998 22.1794 225.746 22.1794Z" fill="url(#paint8_linear_1391_28869)"/>
<path d="M192.885 42.9237C192.288 42.9237 191.684 42.8422 191.064 42.669C188.347 41.8992 186.021 39.098 185.276 35.6937C184.595 32.577 185.139 29.0819 186.765 26.1046C188.081 23.6968 189.916 22.4335 191.656 22.7191C193.833 23.0759 195.037 25.8171 195.064 28.2137C195.092 30.6065 194.033 32.3026 192.303 32.6425C191.553 32.7849 190.889 32.3943 190.338 31.9898C190.03 31.7659 189.938 31.292 190.129 30.9305C190.322 30.5709 190.728 30.4651 191.031 30.6861C191.375 30.9399 191.766 31.189 192.088 31.1282C193.663 30.8191 193.763 28.8355 193.755 28.2352C193.736 26.4521 192.877 24.4704 191.474 24.24C190.039 23.9993 188.665 25.4753 187.867 26.9325C186.456 29.5155 185.961 32.6482 186.543 35.3126C187.171 38.1811 189.11 40.5375 191.371 41.1752C195.512 42.3496 199.348 38.3019 202.734 34.7338L203.178 34.2646C207.509 29.7149 212.383 25.9613 217.665 23.1087C220.575 21.5363 227.797 18.4382 231.981 23.5994C233.828 25.8799 234.438 29.3881 233.499 32.3316C232.563 35.277 230.142 37.4572 227.475 37.7569C225.65 37.9545 223.993 37.2549 223.026 35.867C221.914 34.2683 221.858 31.8109 222.888 29.8873C223.82 28.15 225.388 27.3483 227.006 27.81C227.758 28.0226 228.388 28.6866 228.644 29.5436C228.904 30.4052 228.768 31.3876 228.288 32.1049C228.065 32.4402 227.653 32.4964 227.369 32.237C227.084 31.9739 227.036 31.4906 227.257 31.1581C227.459 30.8584 227.519 30.4174 227.411 30.0577C227.299 29.6878 227.02 29.3937 226.698 29.301C225.177 28.8786 224.3 30.1401 223.995 30.7048C223.393 31.8277 223.15 33.6165 224.04 34.8949C224.853 36.0618 226.286 36.3446 227.349 36.2294C229.528 35.9822 231.508 34.2 232.273 31.794C233.04 29.389 232.54 26.5214 231.031 24.6586C227.428 20.2139 220.867 23.0694 218.212 24.5022C213.049 27.2912 208.283 30.9605 204.053 35.409L203.607 35.8763C200.45 39.2057 196.921 42.9218 192.885 42.9237Z" fill="url(#paint9_linear_1391_28869)"/>
<path d="M236.59 25.1188C232.481 25.1188 228.321 23.8414 228.321 21.3961C228.321 18.9546 232.481 17.6753 236.59 17.6753C240.96 17.6753 244.447 20.6525 244.593 20.7789L245.305 21.3961L244.593 22.0142C244.447 22.1416 240.96 25.1188 236.59 25.1188ZM236.59 19.2112C232.086 19.2112 229.629 20.6553 229.629 21.3961C229.629 22.1388 232.086 23.5829 236.59 23.5829C239.349 23.5829 241.77 22.224 242.987 21.398C241.765 20.572 239.341 19.2112 236.59 19.2112Z" fill="url(#paint10_linear_1391_28869)"/>
<path d="M221.945 22.2806H114.353C113.991 22.2806 113.698 21.9369 113.698 21.5126C113.698 21.0893 113.991 20.7456 114.353 20.7456H221.945C222.308 20.7456 222.601 21.0893 222.601 21.5126C222.601 21.9369 222.307 22.2806 221.945 22.2806Z" fill="url(#paint11_linear_1391_28869)"/>
<path d="M173.301 23.4017C173.044 23.4017 172.799 23.221 172.696 22.9213C172.56 22.5289 172.72 22.0803 173.056 21.9211C173.928 21.5081 174.573 20.3496 174.969 18.4812C175.026 18.2106 175.081 17.9371 175.135 17.6618C175.416 16.2251 175.707 14.7408 176.559 13.5411C177.563 12.1213 179.209 11.4329 180.747 11.7898C182.273 12.1438 183.6 13.5485 184.049 15.2877C184.232 15.9957 184.254 16.655 184.112 17.246C183.905 18.1057 183.377 18.736 182.887 19.2408C182.317 19.8289 181.539 20.5229 180.588 20.6886C179.559 20.8628 178.496 20.3524 177.933 19.4028C177.307 18.3464 177.375 16.861 178.089 15.9489C178.469 15.4665 179.025 15.1781 179.614 15.1556C180.187 15.151 180.704 15.3607 181.086 15.7925C181.346 16.0856 181.353 16.5717 181.103 16.8779C180.853 17.1851 180.437 17.1907 180.178 16.8985C180.055 16.759 179.885 16.6897 179.653 16.6897C179.416 16.6981 179.193 16.8095 179.052 16.9894C178.753 17.3705 178.733 18.0589 179.007 18.5252C179.288 18.9963 179.859 19.266 180.393 19.1705C181.006 19.0628 181.559 18.5618 182.023 18.0851C182.385 17.7133 182.737 17.3021 182.851 16.8292C182.922 16.5314 182.903 16.1493 182.796 15.7335C182.482 14.5216 181.558 13.542 180.494 13.2957C179.43 13.0475 178.256 13.5448 177.565 14.5216C176.912 15.4422 176.668 16.6859 176.409 18.0074C176.355 18.2902 176.297 18.5739 176.239 18.8521C175.733 21.2253 174.828 22.7368 173.546 23.3455C173.467 23.383 173.384 23.4017 173.301 23.4017Z" fill="url(#paint12_linear_1391_28869)"/>
<path d="M173.128 23.4033C173.045 23.4033 172.962 23.3846 172.882 23.3471C171.6 22.7393 170.694 21.2268 170.188 18.8537C170.129 18.5718 170.071 18.2861 170.015 17.9977C169.758 16.6828 169.514 15.441 168.863 14.5232C168.168 13.5445 166.986 13.0528 165.933 13.2973C164.87 13.5436 163.944 14.5232 163.631 15.735C163.524 16.1509 163.505 16.533 163.577 16.8326C163.689 17.3 164.041 17.713 164.403 18.0885C164.867 18.5633 165.42 19.0644 166.033 19.1721C166.572 19.2657 167.141 18.9998 167.419 18.5268C167.694 18.0614 167.673 17.374 167.374 16.9909C167.235 16.8111 167.01 16.6987 166.773 16.6912C166.529 16.6875 166.371 16.7596 166.249 16.9001C165.991 17.1913 165.574 17.1866 165.324 16.8795C165.073 16.5732 165.082 16.0872 165.342 15.794C165.722 15.3623 166.249 15.1497 166.812 15.1572C167.4 15.1787 167.958 15.4681 168.337 15.9504C169.053 16.8654 169.12 18.3479 168.493 19.4043C167.93 20.354 166.864 20.8634 165.84 20.6902C164.888 20.5254 164.111 19.8305 163.539 19.2423C163.048 18.7347 162.52 18.1016 162.316 17.2475C162.174 16.6566 162.196 15.9973 162.379 15.2892C162.827 13.5482 164.155 12.1453 165.681 11.7913C167.211 11.4411 168.862 12.1229 169.867 13.5426C170.717 14.7414 171.011 16.2211 171.291 17.6549C171.344 17.9312 171.4 18.2084 171.459 18.4837C171.857 20.3521 172.501 21.5106 173.372 21.9236C173.706 22.0828 173.868 22.5314 173.732 22.9238C173.631 23.2226 173.385 23.4033 173.128 23.4033Z" fill="url(#paint13_linear_1391_28869)"/>
<path d="M179.935 31.4207C178.652 31.4207 177.39 30.7483 176.56 29.5767C175.709 28.376 175.419 26.8907 175.136 25.456C175.082 25.1816 175.028 24.9062 174.97 24.6356C174.574 22.7672 173.929 21.6096 173.057 21.1957C172.722 21.0365 172.561 20.5898 172.697 20.1964C172.833 19.8003 173.213 19.6148 173.548 19.7722C174.83 20.3809 175.736 21.8915 176.242 24.2647C176.299 24.5447 176.357 24.8285 176.411 25.1123C176.67 26.429 176.916 27.6755 177.568 28.5952C178.26 29.5739 179.437 30.0684 180.497 29.8211C181.56 29.5767 182.484 28.5952 182.798 27.3833C182.906 26.9666 182.925 26.5863 182.854 26.2867C182.74 25.8156 182.388 25.4063 182.025 25.0317C181.561 24.555 181.007 24.0531 180.397 23.9472C179.846 23.848 179.289 24.1205 179.009 24.5915C178.734 25.0561 178.755 25.7454 179.054 26.1265C179.196 26.3063 179.418 26.4178 179.655 26.4262C179.886 26.4262 180.057 26.3569 180.181 26.2192C180.439 25.9261 180.856 25.9345 181.105 26.2398C181.356 26.5461 181.348 27.0321 181.088 27.3253C180.707 27.7542 180.185 27.9818 179.616 27.9612C179.027 27.9406 178.47 27.6493 178.091 27.166C177.377 26.2539 177.309 24.7714 177.935 23.715C178.498 22.7634 179.56 22.2493 180.59 22.4272C181.54 22.5921 182.319 23.287 182.89 23.8751C183.379 24.379 183.907 25.0111 184.114 25.8699C184.256 26.4608 184.234 27.1202 184.051 27.8282C183.603 29.5692 182.275 30.973 180.75 31.3261C180.479 31.3889 180.205 31.4207 179.935 31.4207Z" fill="url(#paint14_linear_1391_28869)"/>
<path d="M166.494 31.4201C166.223 31.4201 165.95 31.3892 165.681 31.3265C164.155 30.9753 162.828 29.5696 162.379 27.8286C162.196 27.1206 162.174 26.4612 162.316 25.8703C162.52 25.0162 163.048 24.3821 163.539 23.8755C164.111 23.2873 164.888 22.5924 165.842 22.4276C166.869 22.2506 167.93 22.7657 168.493 23.7153C169.12 24.7699 169.052 26.2543 168.337 27.1664C167.957 27.6497 167.4 27.94 166.812 27.9615C166.253 27.985 165.722 27.7546 165.342 27.3257C165.082 27.0325 165.073 26.5464 165.323 26.2402C165.574 25.9349 165.991 25.9265 166.249 26.2196C166.371 26.3564 166.531 26.4275 166.773 26.4266C167.01 26.4172 167.235 26.3067 167.374 26.1269C167.673 25.7457 167.693 25.0564 167.419 24.5938C167.139 24.118 166.567 23.8511 166.035 23.9476C165.422 24.0534 164.867 24.5554 164.403 25.0321C164.041 25.4067 163.689 25.8178 163.577 26.2861C163.505 26.5867 163.524 26.967 163.631 27.3837C163.944 28.5956 164.87 29.5771 165.933 29.8215C166.984 30.0697 168.168 29.5743 168.864 28.5956C169.515 27.6778 169.758 26.4359 170.015 25.122C170.071 24.8335 170.129 24.547 170.188 24.2651C170.694 21.8919 171.6 20.3804 172.882 19.7726C173.216 19.6143 173.598 19.8007 173.733 20.1968C173.869 20.5902 173.707 21.0369 173.373 21.1961C172.501 21.6091 171.858 22.7676 171.46 24.636C171.401 24.9122 171.344 25.1885 171.292 25.4676C171.011 26.8977 170.718 28.3793 169.87 29.578C169.04 30.7477 167.775 31.4201 166.494 31.4201Z" fill="url(#paint15_linear_1391_28869)"/>
<defs>
<linearGradient id="paint0_linear_1391_28869" x1="11.8344" y1="11.0919" x2="60.7808" y2="11.0919" gradientUnits="userSpaceOnUse">
<stop offset="0.0606" stop-color="#C79856"/>
<stop offset="0.2727" stop-color="#FAD983"/>
<stop offset="0.4727" stop-color="#DFB662"/>
<stop offset="0.7253" stop-color="#FAD983"/>
<stop offset="0.956" stop-color="#B27F32"/>
</linearGradient>
<linearGradient id="paint1_linear_1391_28869" x1="11.8345" y1="31.8354" x2="60.781" y2="31.8354" gradientUnits="userSpaceOnUse">
<stop offset="0.0606" stop-color="#C79856"/>
<stop offset="0.2727" stop-color="#FAD983"/>
<stop offset="0.4727" stop-color="#DFB662"/>
<stop offset="0.7253" stop-color="#FAD983"/>
<stop offset="0.956" stop-color="#B27F32"/>
</linearGradient>
<linearGradient id="paint2_linear_1391_28869" x1="0.463548" y1="21.3985" x2="17.4505" y2="21.3985" gradientUnits="userSpaceOnUse">
<stop offset="0.0606" stop-color="#C79856"/>
<stop offset="0.2727" stop-color="#FAD983"/>
<stop offset="0.4727" stop-color="#DFB662"/>
<stop offset="0.7253" stop-color="#FAD983"/>
<stop offset="0.956" stop-color="#B27F32"/>
</linearGradient>
<linearGradient id="paint3_linear_1391_28869" x1="23.1717" y1="21.5146" x2="132.073" y2="21.5146" gradientUnits="userSpaceOnUse">
<stop offset="0.0606" stop-color="#C79856"/>
<stop offset="0.2727" stop-color="#FAD983"/>
<stop offset="0.4727" stop-color="#DFB662"/>
<stop offset="0.7253" stop-color="#FAD983"/>
<stop offset="0.956" stop-color="#B27F32"/>
</linearGradient>
<linearGradient id="paint4_linear_1391_28869" x1="61.5642" y1="17.5513" x2="73.1229" y2="17.5513" gradientUnits="userSpaceOnUse">
<stop offset="0.0606" stop-color="#C79856"/>
<stop offset="0.2727" stop-color="#FAD983"/>
<stop offset="0.4727" stop-color="#DFB662"/>
<stop offset="0.7253" stop-color="#FAD983"/>
<stop offset="0.956" stop-color="#B27F32"/>
</linearGradient>
<linearGradient id="paint5_linear_1391_28869" x1="71.9887" y1="17.5521" x2="83.5465" y2="17.5521" gradientUnits="userSpaceOnUse">
<stop offset="0.0606" stop-color="#C79856"/>
<stop offset="0.2727" stop-color="#FAD983"/>
<stop offset="0.4727" stop-color="#DFB662"/>
<stop offset="0.7253" stop-color="#FAD983"/>
<stop offset="0.956" stop-color="#B27F32"/>
</linearGradient>
<linearGradient id="paint6_linear_1391_28869" x1="61.5647" y1="25.5672" x2="73.1234" y2="25.5672" gradientUnits="userSpaceOnUse">
<stop offset="0.0606" stop-color="#C79856"/>
<stop offset="0.2727" stop-color="#FAD983"/>
<stop offset="0.4727" stop-color="#DFB662"/>
<stop offset="0.7253" stop-color="#FAD983"/>
<stop offset="0.956" stop-color="#B27F32"/>
</linearGradient>
<linearGradient id="paint7_linear_1391_28869" x1="71.988" y1="25.5668" x2="83.5458" y2="25.5668" gradientUnits="userSpaceOnUse">
<stop offset="0.0606" stop-color="#C79856"/>
<stop offset="0.2727" stop-color="#FAD983"/>
<stop offset="0.4727" stop-color="#DFB662"/>
<stop offset="0.7253" stop-color="#FAD983"/>
<stop offset="0.956" stop-color="#B27F32"/>
</linearGradient>
<linearGradient id="paint8_linear_1391_28869" x1="184.989" y1="11.0898" x2="233.936" y2="11.0898" gradientUnits="userSpaceOnUse">
<stop offset="0.0606" stop-color="#C79856"/>
<stop offset="0.2727" stop-color="#FAD983"/>
<stop offset="0.4727" stop-color="#DFB662"/>
<stop offset="0.7253" stop-color="#FAD983"/>
<stop offset="0.956" stop-color="#B27F32"/>
</linearGradient>
<linearGradient id="paint9_linear_1391_28869" x1="184.989" y1="31.832" x2="233.935" y2="31.832" gradientUnits="userSpaceOnUse">
<stop offset="0.0606" stop-color="#C79856"/>
<stop offset="0.2727" stop-color="#FAD983"/>
<stop offset="0.4727" stop-color="#DFB662"/>
<stop offset="0.7253" stop-color="#FAD983"/>
<stop offset="0.956" stop-color="#B27F32"/>
</linearGradient>
<linearGradient id="paint10_linear_1391_28869" x1="228.321" y1="21.3975" x2="245.306" y2="21.3975" gradientUnits="userSpaceOnUse">
<stop offset="0.0606" stop-color="#C79856"/>
<stop offset="0.2727" stop-color="#FAD983"/>
<stop offset="0.4727" stop-color="#DFB662"/>
<stop offset="0.7253" stop-color="#FAD983"/>
<stop offset="0.956" stop-color="#B27F32"/>
</linearGradient>
<linearGradient id="paint11_linear_1391_28869" x1="113.698" y1="21.5126" x2="222.601" y2="21.5126" gradientUnits="userSpaceOnUse">
<stop offset="0.0606" stop-color="#C79856"/>
<stop offset="0.2727" stop-color="#FAD983"/>
<stop offset="0.4727" stop-color="#DFB662"/>
<stop offset="0.7253" stop-color="#FAD983"/>
<stop offset="0.956" stop-color="#B27F32"/>
</linearGradient>
<linearGradient id="paint12_linear_1391_28869" x1="172.648" y1="17.5492" x2="184.205" y2="17.5492" gradientUnits="userSpaceOnUse">
<stop offset="0.0606" stop-color="#C79856"/>
<stop offset="0.2727" stop-color="#FAD983"/>
<stop offset="0.4727" stop-color="#DFB662"/>
<stop offset="0.7253" stop-color="#FAD983"/>
<stop offset="0.956" stop-color="#B27F32"/>
</linearGradient>
<linearGradient id="paint13_linear_1391_28869" x1="162.225" y1="17.5519" x2="173.782" y2="17.5519" gradientUnits="userSpaceOnUse">
<stop offset="0.0606" stop-color="#C79856"/>
<stop offset="0.2727" stop-color="#FAD983"/>
<stop offset="0.4727" stop-color="#DFB662"/>
<stop offset="0.7253" stop-color="#FAD983"/>
<stop offset="0.956" stop-color="#B27F32"/>
</linearGradient>
<linearGradient id="paint14_linear_1391_28869" x1="172.648" y1="25.568" x2="184.206" y2="25.568" gradientUnits="userSpaceOnUse">
<stop offset="0.0606" stop-color="#C79856"/>
<stop offset="0.2727" stop-color="#FAD983"/>
<stop offset="0.4727" stop-color="#DFB662"/>
<stop offset="0.7253" stop-color="#FAD983"/>
<stop offset="0.956" stop-color="#B27F32"/>
</linearGradient>
<linearGradient id="paint15_linear_1391_28869" x1="162.224" y1="25.5672" x2="173.781" y2="25.5672" gradientUnits="userSpaceOnUse">
<stop offset="0.0606" stop-color="#C79856"/>
<stop offset="0.2727" stop-color="#FAD983"/>
<stop offset="0.4727" stop-color="#DFB662"/>
<stop offset="0.7253" stop-color="#FAD983"/>
<stop offset="0.956" stop-color="#B27F32"/>
</linearGradient>
</defs>
</svg>
