<svg width="36" height="36" viewBox="0 0 36 36" fill="none" xmlns="http://www.w3.org/2000/svg">
<g id="Group 1000004106">
<circle id="Ellipse 513" cx="18" cy="18" r="17.5" fill="#AB1D79" fill-opacity="0.17"/>
<path id="Vector" d="M24.4382 14.2106C23.8272 12.8066 22.7727 11.6417 21.4363 10.8943C20.0999 10.147 18.5553 9.85845 17.0392 10.0729C15.5231 10.2874 14.1191 10.9931 13.0425 12.0818C11.9658 13.1705 11.2758 14.5822 11.0782 16.1006C10.1248 16.3289 9.28842 16.8995 8.72794 17.7038C8.16745 18.5082 7.92188 19.4903 8.03786 20.4638C8.15384 21.4373 8.6233 22.3343 9.35707 22.9845C10.0908 23.6346 11.0378 23.9927 12.0182 23.9906C12.2834 23.9906 12.5378 23.8853 12.7253 23.6977C12.9128 23.5102 13.0182 23.2558 13.0182 22.9906C13.0182 22.7254 12.9128 22.471 12.7253 22.2835C12.5378 22.096 12.2834 21.9906 12.0182 21.9906C11.4878 21.9906 10.9791 21.7799 10.604 21.4048C10.2289 21.0298 10.0182 20.5211 10.0182 19.9906C10.0182 19.4602 10.2289 18.9515 10.604 18.5764C10.9791 18.2013 11.4878 17.9906 12.0182 17.9906C12.2834 17.9906 12.5378 17.8853 12.7253 17.6977C12.9128 17.5102 13.0182 17.2558 13.0182 16.9906C13.0208 15.8079 13.4425 14.6644 14.2085 13.7632C14.9745 12.862 16.0351 12.2616 17.202 12.0685C18.3688 11.8754 19.5663 12.1022 20.5818 12.7086C21.5972 13.315 22.3648 14.2618 22.7482 15.3806C22.8054 15.5525 22.9081 15.7055 23.0455 15.8236C23.1829 15.9416 23.3497 16.02 23.5282 16.0506C24.1943 16.1765 24.7981 16.5242 25.2412 17.0372C25.6844 17.5501 25.9408 18.198 25.9686 18.8753C25.9964 19.5525 25.7941 20.2193 25.3945 20.7669C24.9949 21.3144 24.4217 21.7105 23.7682 21.8906C23.5109 21.9569 23.2906 22.1227 23.1555 22.3515C23.0205 22.5803 22.9819 22.8534 23.0482 23.1106C23.1145 23.3679 23.2803 23.5883 23.5091 23.7233C23.7379 23.8583 24.0109 23.8969 24.2682 23.8306C25.3206 23.5525 26.2535 22.9386 26.9252 22.0821C27.5969 21.2256 27.9708 20.1732 27.99 19.0849C28.0093 17.9965 27.6728 16.9317 27.0318 16.0519C26.3907 15.1722 25.4801 14.5257 24.4382 14.2106ZM18.7282 16.2806C18.6331 16.1896 18.521 16.1182 18.3982 16.0706C18.1547 15.9706 17.8817 15.9706 17.6382 16.0706C17.5154 16.1182 17.4033 16.1896 17.3082 16.2806L14.3082 19.2806C14.1199 19.4689 14.0141 19.7243 14.0141 19.9906C14.0141 20.2569 14.1199 20.5123 14.3082 20.7006C14.4965 20.8889 14.7519 20.9947 15.0182 20.9947C15.2845 20.9947 15.5399 20.8889 15.7282 20.7006L17.0182 19.4006V24.9906C17.0182 25.2558 17.1236 25.5102 17.3111 25.6977C17.4986 25.8853 17.753 25.9906 18.0182 25.9906C18.2834 25.9906 18.5378 25.8853 18.7253 25.6977C18.9128 25.5102 19.0182 25.2558 19.0182 24.9906V19.4006L20.3082 20.7006C20.4012 20.7943 20.5118 20.8687 20.6336 20.9195C20.7555 20.9703 20.8862 20.9964 21.0182 20.9964C21.1502 20.9964 21.2809 20.9703 21.4028 20.9195C21.5246 20.8687 21.6352 20.7943 21.7282 20.7006C21.8219 20.6077 21.8963 20.4971 21.9471 20.3752C21.9979 20.2533 22.024 20.1226 22.024 19.9906C22.024 19.8586 21.9979 19.7279 21.9471 19.606C21.8963 19.4842 21.8219 19.3736 21.7282 19.2806L18.7282 16.2806Z" fill="#AB1D79"/>
</g>
</svg>
