<svg width="49" height="50" viewBox="0 0 49 50" fill="none" xmlns="http://www.w3.org/2000/svg">
<g id="ph:camera">
<rect x="0.3125" y="0.584229" width="48.5938" height="48.5938" rx="24.2969" fill="#AB1D79"/>
<path id="Vector" d="M35.8898 15.2927H31.9807L30.0585 12.4101C29.9555 12.2558 29.8161 12.1292 29.6525 12.0416C29.4889 11.9541 29.3062 11.9082 29.1207 11.9081H20.0951C19.9096 11.9082 19.7269 11.9541 19.5634 12.0416C19.3998 12.1292 19.2603 12.2558 19.1573 12.4101L17.2338 15.2927H13.326C12.4283 15.2927 11.5675 15.6492 10.9327 16.284C10.298 16.9187 9.94141 17.7796 9.94141 18.6772V34.4719C9.94141 35.3696 10.298 36.2305 10.9327 36.8652C11.5675 37.4999 12.4283 37.8565 13.326 37.8565H35.8898C36.7875 37.8565 37.6484 37.4999 38.2831 36.8652C38.9178 36.2305 39.2744 35.3696 39.2744 34.4719V18.6772C39.2744 17.7796 38.9178 16.9187 38.2831 16.284C37.6484 15.6492 36.7875 15.2927 35.8898 15.2927ZM37.018 34.4719C37.018 34.7712 36.8992 35.0581 36.6876 35.2697C36.476 35.4813 36.1891 35.6001 35.8898 35.6001H13.326C13.0268 35.6001 12.7398 35.4813 12.5282 35.2697C12.3167 35.0581 12.1978 34.7712 12.1978 34.4719V18.6772C12.1978 18.378 12.3167 18.0911 12.5282 17.8795C12.7398 17.6679 13.0268 17.549 13.326 17.549H17.8388C18.0245 17.5492 18.2075 17.5034 18.3713 17.4158C18.5352 17.3282 18.6749 17.2015 18.778 17.047L20.6987 14.1645H28.5157L30.4379 17.047C30.541 17.2015 30.6806 17.3282 30.8445 17.4158C31.0083 17.5034 31.1913 17.5492 31.3771 17.549H35.8898C36.1891 17.549 36.476 17.6679 36.6876 17.8795C36.8992 18.0911 37.018 18.378 37.018 18.6772V34.4719ZM24.6079 19.8054C23.3807 19.8054 22.181 20.1694 21.1606 20.8512C20.1402 21.533 19.3448 22.5021 18.8752 23.6359C18.4055 24.7697 18.2827 26.0174 18.5221 27.221C18.7615 28.4247 19.3525 29.5303 20.2203 30.3981C21.0881 31.2659 22.1937 31.8569 23.3974 32.0963C24.601 32.3358 25.8487 32.2129 26.9825 31.7432C28.1163 31.2736 29.0854 30.4783 29.7672 29.4578C30.4491 28.4374 30.813 27.2377 30.813 26.0105C30.8111 24.3654 30.1568 22.7882 28.9935 21.6249C27.8302 20.4616 26.253 19.8073 24.6079 19.8054ZM24.6079 29.9592C23.8269 29.9592 23.0635 29.7276 22.4141 29.2937C21.7648 28.8598 21.2587 28.2431 20.9598 27.5216C20.6609 26.8001 20.5828 26.0061 20.7351 25.2401C20.8875 24.4742 21.2635 23.7706 21.8158 23.2184C22.368 22.6661 23.0716 22.2901 23.8376 22.1377C24.6035 21.9853 25.3975 22.0635 26.119 22.3624C26.8405 22.6613 27.4572 23.1674 27.8911 23.8167C28.325 24.4661 28.5566 25.2295 28.5566 26.0105C28.5566 27.0577 28.1406 28.0621 27.4 28.8026C26.6595 29.5431 25.6552 29.9592 24.6079 29.9592Z" fill="white"/>
</g>
</svg>
