<svg width="52" height="53" viewBox="0 0 52 53" fill="none" xmlns="http://www.w3.org/2000/svg">
<g id="solar:videocamera-add-bold">
<path id="Vector" fill-rule="evenodd" clip-rule="evenodd" d="M6.45898 27.9228V25.7561C6.45898 18.6343 6.45898 15.0723 8.42632 12.6738C8.78619 12.2353 9.18823 11.8333 9.62665 11.4734C12.0273 9.5061 15.585 9.5061 22.709 9.5061C29.8308 9.5061 33.3928 9.5061 35.7913 11.4734C36.2297 11.8333 36.6318 12.2353 36.9917 12.6738C38.5127 14.5263 38.8572 17.0743 38.9352 21.4228L40.3868 20.7078C44.601 18.6018 46.7092 17.5466 48.2518 18.4999C49.7923 19.4533 49.7923 21.8106 49.7923 26.5231V27.1558C49.7923 31.8683 49.7923 34.2256 48.2518 35.1789C46.7092 36.1323 44.601 35.0771 40.3868 32.9689L38.9352 32.2561C38.8572 36.6046 38.5127 39.1526 36.9917 41.0051C36.6318 41.4435 36.2297 41.8456 35.7913 42.2054C33.3907 44.1728 29.833 44.1728 22.709 44.1728C15.5872 44.1728 12.0252 44.1728 9.62665 42.2054C9.18823 41.8456 8.78619 41.4435 8.42632 41.0051C6.45898 38.6044 6.45898 35.0468 6.45898 27.9228ZM22.709 19.7978C23.14 19.7978 23.5533 19.969 23.858 20.2737C24.1628 20.5785 24.334 20.9918 24.334 21.4228V25.2144H28.1257C28.5566 25.2144 28.97 25.3856 29.2747 25.6904C29.5794 25.9951 29.7507 26.4085 29.7507 26.8394C29.7507 27.2704 29.5794 27.6837 29.2747 27.9885C28.97 28.2932 28.5566 28.4644 28.1257 28.4644H24.334V32.2561C24.334 32.6871 24.1628 33.1004 23.858 33.4051C23.5533 33.7099 23.14 33.8811 22.709 33.8811C22.278 33.8811 21.8647 33.7099 21.5599 33.4051C21.2552 33.1004 21.084 32.6871 21.084 32.2561V28.4644H17.2923C16.8613 28.4644 16.448 28.2932 16.1433 27.9885C15.8385 27.6837 15.6673 27.2704 15.6673 26.8394C15.6673 26.4085 15.8385 25.9951 16.1433 25.6904C16.448 25.3856 16.8613 25.2144 17.2923 25.2144H21.084V21.4228C21.084 20.9918 21.2552 20.5785 21.5599 20.2737C21.8647 19.969 22.278 19.7978 22.709 19.7978Z" fill="#AB1D79"/>
</g>
</svg>
