<svg width="395" height="147" viewBox="0 0 395 147" fill="none" xmlns="http://www.w3.org/2000/svg">
<g filter="url(#filter0_d_3046_11980)">
<path d="M29 39.8242C29 33.7491 33.9249 28.8242 40 28.8242H354.879C360.954 28.8242 365.879 33.7491 365.879 39.8242V82.3446C365.879 88.4197 360.954 93.3446 354.879 93.3446H281.659H184.604C171.844 93.3446 162.833 105.845 166.868 117.951C139.799 101.846 108.885 93.3446 77.3869 93.3446H73.6379H40C33.9249 93.3446 29 88.4197 29 82.3446V39.8242Z" fill="#AB1D79"/>
</g>
<path d="M54.4341 46.2529H58.9341V47.1829L57.6291 47.3779L59.5191 54.1429L59.8641 55.8079L60.2091 54.1429L61.8141 48.6529L61.3941 47.3779L60.4041 47.1829V46.2529H65.0991V47.1829L63.6591 47.3779L65.5341 54.1429L65.9391 55.9429L66.2541 54.1429L67.9641 47.3779L66.6141 47.1829V46.2529H70.2291V47.1829L69.2691 47.3779L66.4191 57.4729H64.4391L62.3691 50.4679L60.3891 57.4729H58.4391L55.3491 47.3929L54.4341 47.1829V46.2529ZM70.4631 55.0579C70.4631 54.1479 70.9181 53.4629 71.8281 53.0029C72.7481 52.5429 73.9331 52.3079 75.3831 52.2979V51.9529C75.3831 51.5429 75.3381 51.2229 75.2481 50.9929C75.1681 50.7629 75.0131 50.5929 74.7831 50.4829C74.5631 50.3629 74.2381 50.3029 73.8081 50.3029C73.3181 50.3029 72.8781 50.3679 72.4881 50.4979C72.0981 50.6179 71.6931 50.7779 71.2731 50.9779L70.8081 50.0179C70.9581 49.8879 71.2081 49.7329 71.5581 49.5529C71.9181 49.3729 72.3431 49.2179 72.8331 49.0879C73.3231 48.9479 73.8281 48.8779 74.3481 48.8779C75.1181 48.8779 75.7181 48.9779 76.1481 49.1779C76.5881 49.3779 76.9031 49.6979 77.0931 50.1379C77.2831 50.5779 77.3781 51.1679 77.3781 51.9079V56.4979H78.1881V57.3379C77.9881 57.3879 77.7031 57.4379 77.3331 57.4879C76.9631 57.5379 76.6381 57.5629 76.3581 57.5629C76.0181 57.5629 75.7881 57.5129 75.6681 57.4129C75.5581 57.3129 75.5031 57.1079 75.5031 56.7979V56.3929C75.2331 56.6929 74.8831 56.9629 74.4531 57.2029C74.0231 57.4429 73.5381 57.5629 72.9981 57.5629C72.5381 57.5629 72.1131 57.4679 71.7231 57.2779C71.3431 57.0779 71.0381 56.7929 70.8081 56.4229C70.5781 56.0429 70.4631 55.5879 70.4631 55.0579ZM73.9581 56.3179C74.1681 56.3179 74.4081 56.2579 74.6781 56.1379C74.9481 56.0079 75.1831 55.8529 75.3831 55.6729V53.2129C74.4831 53.2129 73.8081 53.3679 73.3581 53.6779C72.9181 53.9779 72.6981 54.3679 72.6981 54.8479C72.6981 55.3279 72.8081 55.6929 73.0281 55.9429C73.2581 56.1929 73.5681 56.3179 73.9581 56.3179ZM81.6442 57.5329C81.0142 57.5329 80.5492 57.3879 80.2492 57.0979C79.9492 56.8079 79.7992 56.3479 79.7992 55.7179V50.2129H78.8242V49.4329C78.9042 49.4029 79.0492 49.3529 79.2592 49.2829C79.4692 49.2029 79.6292 49.1379 79.7392 49.0879C79.9092 48.9579 80.0542 48.7329 80.1742 48.4129C80.2642 48.2029 80.4292 47.6829 80.6692 46.8529H81.8692L81.9292 49.0579H84.2242V50.2129H81.9442V54.4279C81.9442 54.9879 81.9592 55.3829 81.9892 55.6129C82.0192 55.8429 82.0842 55.9929 82.1842 56.0629C82.2842 56.1229 82.4592 56.1529 82.7092 56.1529C82.9592 56.1529 83.2192 56.1279 83.4892 56.0779C83.7592 56.0179 83.9842 55.9479 84.1642 55.8679L84.4492 56.7079C84.1692 56.9179 83.7592 57.1079 83.2192 57.2779C82.6792 57.4479 82.1542 57.5329 81.6442 57.5329ZM85.0523 53.2729C85.0523 52.4129 85.2223 51.6479 85.5623 50.9779C85.9123 50.3079 86.4073 49.7879 87.0473 49.4179C87.6973 49.0379 88.4523 48.8479 89.3123 48.8479C89.7123 48.8479 90.0573 48.8779 90.3473 48.9379C90.6373 48.9979 90.9623 49.0779 91.3223 49.1779L91.7573 49.2979L91.6673 51.8629H90.3623L89.9873 50.2129C89.9273 49.9529 89.6323 49.8229 89.1023 49.8229C88.5423 49.8229 88.1023 50.0679 87.7823 50.5579C87.4723 51.0479 87.3123 51.8129 87.3023 52.8529C87.3023 53.9529 87.4923 54.7979 87.8723 55.3879C88.2523 55.9679 88.7573 56.2579 89.3873 56.2579C90.1473 56.2579 90.8473 56.0529 91.4873 55.6429L91.8323 56.4229C91.5723 56.7029 91.1723 56.9629 90.6323 57.2029C90.1023 57.4429 89.5273 57.5629 88.9073 57.5629C87.6273 57.5629 86.6623 57.1679 86.0123 56.3779C85.3723 55.5879 85.0523 54.5529 85.0523 53.2729ZM93.7306 46.4329L92.5906 46.2379V45.4279L95.3806 45.0979H95.4256L95.8156 45.3829L95.8306 48.7279L95.7256 50.0329C96.0356 49.7529 96.4556 49.4929 96.9856 49.2529C97.5256 49.0129 98.0906 48.8929 98.6806 48.8929C99.3106 48.8929 99.8006 49.0129 100.151 49.2529C100.501 49.4829 100.746 49.8379 100.886 50.3179C101.026 50.7979 101.096 51.4379 101.096 52.2379V56.3629L102.056 56.4979V57.3979H98.1106V56.4979L98.9806 56.3629V52.2379C98.9806 51.7179 98.9456 51.3129 98.8756 51.0229C98.8056 50.7329 98.6756 50.5179 98.4856 50.3779C98.3056 50.2379 98.0356 50.1679 97.6756 50.1679C97.3656 50.1679 97.0456 50.2429 96.7156 50.3929C96.3956 50.5329 96.1106 50.7029 95.8606 50.9029V56.3629L96.7756 56.4979V57.3979H92.8906V56.4979L93.7306 56.3779V46.4329ZM109.154 57.5329C108.524 57.5329 108.059 57.3879 107.759 57.0979C107.459 56.8079 107.309 56.3479 107.309 55.7179V50.2129H106.334V49.4329C106.414 49.4029 106.559 49.3529 106.769 49.2829C106.979 49.2029 107.139 49.1379 107.249 49.0879C107.419 48.9579 107.564 48.7329 107.684 48.4129C107.774 48.2029 107.939 47.6829 108.179 46.8529H109.379L109.439 49.0579H111.734V50.2129H109.454V54.4279C109.454 54.9879 109.469 55.3829 109.499 55.6129C109.529 55.8429 109.594 55.9929 109.694 56.0629C109.794 56.1229 109.969 56.1529 110.219 56.1529C110.469 56.1529 110.729 56.1279 110.999 56.0779C111.269 56.0179 111.494 55.9479 111.674 55.8679L111.959 56.7079C111.679 56.9179 111.269 57.1079 110.729 57.2779C110.189 57.4479 109.664 57.5329 109.154 57.5329ZM113.462 46.4329L112.322 46.2379V45.4279L115.112 45.0979H115.157L115.547 45.3829L115.562 48.7279L115.457 50.0329C115.767 49.7529 116.187 49.4929 116.717 49.2529C117.257 49.0129 117.822 48.8929 118.412 48.8929C119.042 48.8929 119.532 49.0129 119.882 49.2529C120.232 49.4829 120.477 49.8379 120.617 50.3179C120.757 50.7979 120.827 51.4379 120.827 52.2379V56.3629L121.787 56.4979V57.3979H117.842V56.4979L118.712 56.3629V52.2379C118.712 51.7179 118.677 51.3129 118.607 51.0229C118.537 50.7329 118.407 50.5179 118.217 50.3779C118.037 50.2379 117.767 50.1679 117.407 50.1679C117.097 50.1679 116.777 50.2429 116.447 50.3929C116.127 50.5329 115.842 50.7029 115.592 50.9029V56.3629L116.507 56.4979V57.3979H112.622V56.4979L113.462 56.3779V46.4329ZM124.591 47.6929C124.231 47.6929 123.946 47.5879 123.736 47.3779C123.526 47.1679 123.421 46.8979 123.421 46.5679C123.421 46.1879 123.541 45.8729 123.781 45.6229C124.021 45.3729 124.341 45.2479 124.741 45.2479C125.141 45.2479 125.446 45.3579 125.656 45.5779C125.866 45.7879 125.971 46.0529 125.971 46.3729C125.971 46.7729 125.851 47.0929 125.611 47.3329C125.371 47.5729 125.036 47.6929 124.606 47.6929H124.591ZM123.796 50.4829L122.731 50.1979V49.1929L125.476 48.8629H125.506L125.926 49.1629V56.3779L126.931 56.4979V57.3979H122.746V56.4979L123.796 56.3629V50.4829ZM129.671 56.1679C129.751 56.2879 129.931 56.4029 130.211 56.5129C130.501 56.6129 130.791 56.6629 131.081 56.6629C131.551 56.6629 131.901 56.5679 132.131 56.3779C132.371 56.1779 132.491 55.9179 132.491 55.5979C132.491 55.2679 132.346 55.0029 132.056 54.8029C131.766 54.5929 131.276 54.3379 130.586 54.0379L130.166 53.8579C129.476 53.5679 128.961 53.2179 128.621 52.8079C128.281 52.3979 128.111 51.8679 128.111 51.2179C128.111 50.7679 128.246 50.3679 128.516 50.0179C128.786 49.6579 129.166 49.3779 129.656 49.1779C130.146 48.9779 130.711 48.8779 131.351 48.8779C131.821 48.8779 132.221 48.9079 132.551 48.9679C132.891 49.0279 133.246 49.1079 133.616 49.2079C133.816 49.2779 133.966 49.3179 134.066 49.3279V51.2929H132.881L132.536 50.1529C132.476 50.0529 132.341 49.9629 132.131 49.8829C131.921 49.8029 131.681 49.7629 131.411 49.7629C131.001 49.7629 130.671 49.8529 130.421 50.0329C130.181 50.2029 130.061 50.4429 130.061 50.7529C130.061 51.0329 130.146 51.2679 130.316 51.4579C130.486 51.6379 130.671 51.7779 130.871 51.8779C131.071 51.9779 131.441 52.1429 131.981 52.3729C132.521 52.6029 132.966 52.8229 133.316 53.0329C133.676 53.2429 133.971 53.5179 134.201 53.8579C134.441 54.1879 134.561 54.5929 134.561 55.0729C134.561 55.8129 134.271 56.4129 133.691 56.8729C133.111 57.3329 132.276 57.5629 131.186 57.5629C130.676 57.5629 130.216 57.5179 129.806 57.4279C129.406 57.3379 128.941 57.2179 128.411 57.0679L128.081 56.9629V54.9829H129.326L129.671 56.1679ZM138.579 49.0579H142.539V49.9279L141.549 50.1229L142.914 54.2029L143.394 55.7929L143.799 54.2479L145.134 50.1229L144.189 49.9279V49.0579H147.489V49.9279L146.709 50.1229L143.919 57.5179H142.179L139.194 50.1229L138.579 49.9279V49.0579ZM149.698 47.6929C149.338 47.6929 149.053 47.5879 148.843 47.3779C148.633 47.1679 148.528 46.8979 148.528 46.5679C148.528 46.1879 148.648 45.8729 148.888 45.6229C149.128 45.3729 149.448 45.2479 149.848 45.2479C150.248 45.2479 150.553 45.3579 150.763 45.5779C150.973 45.7879 151.078 46.0529 151.078 46.3729C151.078 46.7729 150.958 47.0929 150.718 47.3329C150.478 47.5729 150.143 47.6929 149.713 47.6929H149.698ZM148.903 50.4829L147.838 50.1979V49.1929L150.583 48.8629H150.613L151.033 49.1629V56.3779L152.038 56.4979V57.3979H147.853V56.4979L148.903 56.3629V50.4829ZM156.248 57.5629C155.628 57.5629 155.073 57.4179 154.583 57.1279C154.093 56.8279 153.703 56.3679 153.413 55.7479C153.123 55.1279 152.978 54.3529 152.978 53.4229C152.978 52.5829 153.148 51.8179 153.488 51.1279C153.838 50.4279 154.348 49.8729 155.018 49.4629C155.688 49.0529 156.493 48.8479 157.433 48.8479C157.813 48.8479 158.173 48.8879 158.513 48.9679V46.4329L157.043 46.2229V45.3979L160.133 45.0979H160.178L160.598 45.4129V56.4829H161.408V57.3379C160.688 57.4879 160.093 57.5629 159.623 57.5629C159.303 57.5629 159.073 57.5079 158.933 57.3979C158.803 57.2979 158.738 57.0929 158.738 56.7829V56.3629C158.478 56.7129 158.123 57.0029 157.673 57.2329C157.223 57.4529 156.748 57.5629 156.248 57.5629ZM157.028 56.3179C157.358 56.3179 157.648 56.2529 157.898 56.1229C158.158 55.9829 158.363 55.8179 158.513 55.6279V50.1679C158.443 50.0679 158.293 49.9829 158.063 49.9129C157.843 49.8429 157.603 49.8079 157.343 49.8079C156.703 49.8079 156.188 50.0879 155.798 50.6479C155.418 51.1979 155.228 52.0829 155.228 53.3029C155.228 54.3229 155.393 55.0829 155.723 55.5829C156.053 56.0729 156.488 56.3179 157.028 56.3179ZM166.283 57.5629C164.963 57.5629 163.978 57.1779 163.328 56.4079C162.688 55.6279 162.368 54.5679 162.368 53.2279C162.368 52.3279 162.533 51.5479 162.863 50.8879C163.203 50.2279 163.678 49.7229 164.288 49.3729C164.898 49.0229 165.603 48.8479 166.403 48.8479C167.403 48.8479 168.173 49.1129 168.713 49.6429C169.253 50.1629 169.533 50.9079 169.553 51.8779C169.553 52.5379 169.513 53.0279 169.433 53.3479H164.558C164.598 54.2579 164.813 54.9679 165.203 55.4779C165.593 55.9779 166.148 56.2279 166.868 56.2279C167.258 56.2279 167.658 56.1629 168.068 56.0329C168.488 55.9029 168.818 55.7479 169.058 55.5679L169.433 56.3929C169.163 56.6829 168.723 56.9529 168.113 57.2029C167.513 57.4429 166.903 57.5629 166.283 57.5629ZM167.453 52.4479C167.473 52.1679 167.483 51.9529 167.483 51.8029C167.483 50.4729 167.038 49.8079 166.148 49.8079C165.658 49.8079 165.278 50.0029 165.008 50.3929C164.738 50.7829 164.588 51.4679 164.558 52.4479H167.453ZM170.75 53.2429C170.75 52.3029 170.935 51.5029 171.305 50.8429C171.685 50.1829 172.19 49.6879 172.82 49.3579C173.45 49.0179 174.135 48.8479 174.875 48.8479C176.135 48.8479 177.105 49.2379 177.785 50.0179C178.475 50.7879 178.82 51.8379 178.82 53.1679C178.82 54.1179 178.63 54.9279 178.25 55.5979C177.88 56.2579 177.38 56.7529 176.75 57.0829C176.13 57.4029 175.445 57.5629 174.695 57.5629C173.445 57.5629 172.475 57.1779 171.785 56.4079C171.095 55.6279 170.75 54.5729 170.75 53.2429ZM174.815 56.5879C175.945 56.5879 176.51 55.4979 176.51 53.3179C176.51 52.1779 176.375 51.3129 176.105 50.7229C175.835 50.1229 175.395 49.8229 174.785 49.8229C173.625 49.8229 173.045 50.9129 173.045 53.0929C173.045 54.2329 173.185 55.1029 173.465 55.7029C173.755 56.2929 174.205 56.5879 174.815 56.5879ZM186.263 57.5329C185.633 57.5329 185.168 57.3879 184.868 57.0979C184.568 56.8079 184.418 56.3479 184.418 55.7179V50.2129H183.443V49.4329C183.523 49.4029 183.668 49.3529 183.878 49.2829C184.088 49.2029 184.248 49.1379 184.358 49.0879C184.528 48.9579 184.673 48.7329 184.793 48.4129C184.883 48.2029 185.048 47.6829 185.288 46.8529H186.488L186.548 49.0579H188.843V50.2129H186.563V54.4279C186.563 54.9879 186.578 55.3829 186.608 55.6129C186.638 55.8429 186.703 55.9929 186.803 56.0629C186.903 56.1229 187.078 56.1529 187.328 56.1529C187.578 56.1529 187.838 56.1279 188.108 56.0779C188.378 56.0179 188.603 55.9479 188.783 55.8679L189.068 56.7079C188.788 56.9179 188.378 57.1079 187.838 57.2779C187.298 57.4479 186.773 57.5329 186.263 57.5329ZM196.631 57.5479C196.301 57.5479 196.061 57.4779 195.911 57.3379C195.761 57.1979 195.686 56.9879 195.686 56.7079V56.3029C195.416 56.6329 195.036 56.9279 194.546 57.1879C194.056 57.4379 193.566 57.5629 193.076 57.5629C192.116 57.5629 191.431 57.3179 191.021 56.8279C190.611 56.3279 190.406 55.5079 190.406 54.3679V50.1379L189.656 49.9279V49.0729L192.206 48.8779H192.221L192.521 49.0879V54.3679C192.521 55.0979 192.611 55.6079 192.791 55.8979C192.971 56.1879 193.306 56.3329 193.796 56.3329C194.386 56.3329 194.936 56.1029 195.446 55.6429V50.1379L194.441 49.9129V49.0729L197.156 48.8779H197.186L197.546 49.0879V56.4679H198.386L198.371 57.3229C198.331 57.3329 198.146 57.3729 197.816 57.4429C197.486 57.5129 197.091 57.5479 196.631 57.5479ZM201.966 57.5329C201.336 57.5329 200.871 57.3879 200.571 57.0979C200.271 56.8079 200.121 56.3479 200.121 55.7179V50.2129H199.146V49.4329C199.226 49.4029 199.371 49.3529 199.581 49.2829C199.791 49.2029 199.951 49.1379 200.061 49.0879C200.231 48.9579 200.376 48.7329 200.496 48.4129C200.586 48.2029 200.751 47.6829 200.991 46.8529H202.191L202.251 49.0579H204.546V50.2129H202.266V54.4279C202.266 54.9879 202.281 55.3829 202.311 55.6129C202.341 55.8429 202.406 55.9929 202.506 56.0629C202.606 56.1229 202.781 56.1529 203.031 56.1529C203.281 56.1529 203.541 56.1279 203.811 56.0779C204.081 56.0179 204.306 55.9479 204.486 55.8679L204.771 56.7079C204.491 56.9179 204.081 57.1079 203.541 57.2779C203.001 57.4479 202.476 57.5329 201.966 57.5329ZM205.57 53.2429C205.57 52.3029 205.755 51.5029 206.125 50.8429C206.505 50.1829 207.01 49.6879 207.64 49.3579C208.27 49.0179 208.955 48.8479 209.695 48.8479C210.955 48.8479 211.925 49.2379 212.605 50.0179C213.295 50.7879 213.64 51.8379 213.64 53.1679C213.64 54.1179 213.45 54.9279 213.07 55.5979C212.7 56.2579 212.2 56.7529 211.57 57.0829C210.95 57.4029 210.265 57.5629 209.515 57.5629C208.265 57.5629 207.295 57.1779 206.605 56.4079C205.915 55.6279 205.57 54.5729 205.57 53.2429ZM209.635 56.5879C210.765 56.5879 211.33 55.4979 211.33 53.3179C211.33 52.1779 211.195 51.3129 210.925 50.7229C210.655 50.1229 210.215 49.8229 209.605 49.8229C208.445 49.8229 207.865 50.9129 207.865 53.0929C207.865 54.2329 208.005 55.1029 208.285 55.7029C208.575 56.2929 209.025 56.5879 209.635 56.5879ZM215.003 56.5129L215.993 56.3929V50.4829L215.033 50.2129V49.1779L217.358 48.8629H217.403L217.778 49.1629V49.4929L217.733 50.7079H217.778C217.848 50.5079 218.013 50.2629 218.273 49.9729C218.533 49.6729 218.858 49.4129 219.248 49.1929C219.648 48.9629 220.078 48.8479 220.538 48.8479C220.758 48.8479 220.948 48.8779 221.108 48.9379V51.1879C220.808 50.9779 220.443 50.8729 220.013 50.8729C219.283 50.8729 218.648 51.0679 218.108 51.4579V56.3779L219.848 56.5129V57.3979H215.003V56.5129ZM223.849 47.6929C223.489 47.6929 223.204 47.5879 222.994 47.3779C222.784 47.1679 222.679 46.8979 222.679 46.5679C222.679 46.1879 222.799 45.8729 223.039 45.6229C223.279 45.3729 223.599 45.2479 223.999 45.2479C224.399 45.2479 224.704 45.3579 224.914 45.5779C225.124 45.7879 225.229 46.0529 225.229 46.3729C225.229 46.7729 225.109 47.0929 224.869 47.3329C224.629 47.5729 224.294 47.6929 223.864 47.6929H223.849ZM223.054 50.4829L221.989 50.1979V49.1929L224.734 48.8629H224.764L225.184 49.1629V56.3779L226.189 56.4979V57.3979H222.004V56.4979L223.054 56.3629V50.4829ZM227.099 55.0579C227.099 54.1479 227.554 53.4629 228.464 53.0029C229.384 52.5429 230.569 52.3079 232.019 52.2979V51.9529C232.019 51.5429 231.974 51.2229 231.884 50.9929C231.804 50.7629 231.649 50.5929 231.419 50.4829C231.199 50.3629 230.874 50.3029 230.444 50.3029C229.954 50.3029 229.514 50.3679 229.124 50.4979C228.734 50.6179 228.329 50.7779 227.909 50.9779L227.444 50.0179C227.594 49.8879 227.844 49.7329 228.194 49.5529C228.554 49.3729 228.979 49.2179 229.469 49.0879C229.959 48.9479 230.464 48.8779 230.984 48.8779C231.754 48.8779 232.354 48.9779 232.784 49.1779C233.224 49.3779 233.539 49.6979 233.729 50.1379C233.919 50.5779 234.014 51.1679 234.014 51.9079V56.4979H234.824V57.3379C234.624 57.3879 234.339 57.4379 233.969 57.4879C233.599 57.5379 233.274 57.5629 232.994 57.5629C232.654 57.5629 232.424 57.5129 232.304 57.4129C232.194 57.3129 232.139 57.1079 232.139 56.7979V56.3929C231.869 56.6929 231.519 56.9629 231.089 57.2029C230.659 57.4429 230.174 57.5629 229.634 57.5629C229.174 57.5629 228.749 57.4679 228.359 57.2779C227.979 57.0779 227.674 56.7929 227.444 56.4229C227.214 56.0429 227.099 55.5879 227.099 55.0579ZM230.594 56.3179C230.804 56.3179 231.044 56.2579 231.314 56.1379C231.584 56.0079 231.819 55.8529 232.019 55.6729V53.2129C231.119 53.2129 230.444 53.3679 229.994 53.6779C229.554 53.9779 229.334 54.3679 229.334 54.8479C229.334 55.3279 229.444 55.6929 229.664 55.9429C229.894 56.1929 230.204 56.3179 230.594 56.3179ZM236.63 46.4329L235.52 46.2379V45.4279L238.295 45.0979H238.325L238.73 45.3829V56.3779L239.825 56.4979V57.3979H235.58V56.4979L236.63 56.3629V46.4329ZM246.937 57.5329C246.307 57.5329 245.842 57.3879 245.542 57.0979C245.242 56.8079 245.092 56.3479 245.092 55.7179V50.2129H244.117V49.4329C244.197 49.4029 244.342 49.3529 244.552 49.2829C244.762 49.2029 244.922 49.1379 245.032 49.0879C245.202 48.9579 245.347 48.7329 245.467 48.4129C245.557 48.2029 245.722 47.6829 245.962 46.8529H247.162L247.222 49.0579H249.517V50.2129H247.237V54.4279C247.237 54.9879 247.252 55.3829 247.282 55.6129C247.312 55.8429 247.377 55.9929 247.477 56.0629C247.577 56.1229 247.752 56.1529 248.002 56.1529C248.252 56.1529 248.512 56.1279 248.782 56.0779C249.052 56.0179 249.277 55.9479 249.457 55.8679L249.742 56.7079C249.462 56.9179 249.052 57.1079 248.512 57.2779C247.972 57.4479 247.447 57.5329 246.937 57.5329ZM250.54 53.2429C250.54 52.3029 250.725 51.5029 251.095 50.8429C251.475 50.1829 251.98 49.6879 252.61 49.3579C253.24 49.0179 253.925 48.8479 254.665 48.8479C255.925 48.8479 256.895 49.2379 257.575 50.0179C258.265 50.7879 258.61 51.8379 258.61 53.1679C258.61 54.1179 258.42 54.9279 258.04 55.5979C257.67 56.2579 257.17 56.7529 256.54 57.0829C255.92 57.4029 255.235 57.5629 254.485 57.5629C253.235 57.5629 252.265 57.1779 251.575 56.4079C250.885 55.6279 250.54 54.5729 250.54 53.2429ZM254.605 56.5879C255.735 56.5879 256.3 55.4979 256.3 53.3179C256.3 52.1779 256.165 51.3129 255.895 50.7229C255.625 50.1229 255.185 49.8229 254.575 49.8229C253.415 49.8229 252.835 50.9129 252.835 53.0929C252.835 54.2329 252.975 55.1029 253.255 55.7029C253.545 56.2929 253.995 56.5879 254.605 56.5879ZM264.223 46.4329L263.143 46.2379V45.4279L265.903 45.0979H265.933L266.338 45.3829V52.5079L266.293 53.3029L269.353 50.0929L268.243 49.9279V49.0729H272.158V49.9279L270.943 50.1229L269.098 51.8929L271.723 56.3779L272.548 56.4979V57.3979H268.588V56.4979L269.353 56.3629L267.643 53.1979L266.293 54.5629L266.323 55.3279V56.3629L267.268 56.4979V57.3979H263.353V56.4979L264.223 56.3629V46.4329ZM273.807 50.4829L272.847 50.2129V49.1779L275.337 48.8629H275.382L275.757 49.1629V49.7479L275.742 50.1079C276.092 49.7779 276.547 49.4929 277.107 49.2529C277.667 49.0129 278.232 48.8929 278.802 48.8929C279.412 48.8929 279.887 49.0079 280.227 49.2379C280.577 49.4579 280.827 49.8079 280.977 50.2879C281.127 50.7679 281.202 51.4179 281.202 52.2379V56.3779L282.117 56.4979V57.3979H278.247V56.4979L279.057 56.3779V52.2379C279.057 51.7179 279.022 51.3129 278.952 51.0229C278.882 50.7229 278.752 50.5079 278.562 50.3779C278.382 50.2379 278.122 50.1679 277.782 50.1679C277.212 50.1679 276.602 50.4129 275.952 50.9029V56.3629L276.852 56.4979V57.3979H272.937V56.4979L273.807 56.3629V50.4829ZM283.177 53.2429C283.177 52.3029 283.362 51.5029 283.732 50.8429C284.112 50.1829 284.617 49.6879 285.247 49.3579C285.877 49.0179 286.562 48.8479 287.302 48.8479C288.562 48.8479 289.532 49.2379 290.212 50.0179C290.902 50.7879 291.247 51.8379 291.247 53.1679C291.247 54.1179 291.057 54.9279 290.677 55.5979C290.307 56.2579 289.807 56.7529 289.177 57.0829C288.557 57.4029 287.872 57.5629 287.122 57.5629C285.872 57.5629 284.902 57.1779 284.212 56.4079C283.522 55.6279 283.177 54.5729 283.177 53.2429ZM287.242 56.5879C288.372 56.5879 288.937 55.4979 288.937 53.3179C288.937 52.1779 288.802 51.3129 288.532 50.7229C288.262 50.1229 287.822 49.8229 287.212 49.8229C286.052 49.8229 285.472 50.9129 285.472 53.0929C285.472 54.2329 285.612 55.1029 285.892 55.7029C286.182 56.2929 286.632 56.5879 287.242 56.5879ZM291.726 49.0729H295.596V49.9279L294.546 50.1079L295.656 54.0979L296.016 55.7329L296.346 54.0829L297.696 49.0729H299.511L300.996 54.0829L301.356 55.7329L301.716 54.0979L302.766 50.1229L301.671 49.9279V49.0729H304.881V49.9279L304.116 50.0929L301.836 57.5179H300.111L298.596 52.6579L298.251 50.8729L297.981 52.6579L296.586 57.5179H294.846L292.446 50.0929L291.726 49.9279V49.0729ZM309.473 46.4329L308.333 46.2379V45.4279L311.123 45.0979H311.168L311.558 45.3829L311.573 48.7279L311.468 50.0329C311.778 49.7529 312.198 49.4929 312.728 49.2529C313.268 49.0129 313.833 48.8929 314.423 48.8929C315.053 48.8929 315.543 49.0129 315.893 49.2529C316.243 49.4829 316.488 49.8379 316.628 50.3179C316.768 50.7979 316.838 51.4379 316.838 52.2379V56.3629L317.798 56.4979V57.3979H313.853V56.4979L314.723 56.3629V52.2379C314.723 51.7179 314.688 51.3129 314.618 51.0229C314.548 50.7329 314.418 50.5179 314.228 50.3779C314.048 50.2379 313.778 50.1679 313.418 50.1679C313.108 50.1679 312.788 50.2429 312.458 50.3929C312.138 50.5329 311.853 50.7029 311.603 50.9029V56.3629L312.518 56.4979V57.3979H308.633V56.4979L309.473 56.3779V46.4329ZM318.817 53.2429C318.817 52.3029 319.002 51.5029 319.372 50.8429C319.752 50.1829 320.257 49.6879 320.887 49.3579C321.517 49.0179 322.202 48.8479 322.942 48.8479C324.202 48.8479 325.172 49.2379 325.852 50.0179C326.542 50.7879 326.887 51.8379 326.887 53.1679C326.887 54.1179 326.697 54.9279 326.317 55.5979C325.947 56.2579 325.447 56.7529 324.817 57.0829C324.197 57.4029 323.512 57.5629 322.762 57.5629C321.512 57.5629 320.542 57.1779 319.852 56.4079C319.162 55.6279 318.817 54.5729 318.817 53.2429ZM322.882 56.5879C324.012 56.5879 324.577 55.4979 324.577 53.3179C324.577 52.1779 324.442 51.3129 324.172 50.7229C323.902 50.1229 323.462 49.8229 322.852 49.8229C321.692 49.8229 321.112 50.9129 321.112 53.0929C321.112 54.2329 321.252 55.1029 321.532 55.7029C321.822 56.2929 322.272 56.5879 322.882 56.5879ZM327.365 49.0729H331.235V49.9279L330.185 50.1079L331.295 54.0979L331.655 55.7329L331.985 54.0829L333.335 49.0729H335.15L336.635 54.0829L336.995 55.7329L337.355 54.0979L338.405 50.1229L337.31 49.9279V49.0729H340.52V49.9279L339.755 50.0929L337.475 57.5179H335.75L334.235 52.6579L333.89 50.8729L333.62 52.6579L332.225 57.5179H330.485L328.085 50.0929L327.365 49.9279V49.0729ZM155.853 76.5329C155.223 76.5329 154.758 76.3879 154.458 76.0979C154.158 75.8079 154.008 75.3479 154.008 74.7179V69.2129H153.033V68.4329C153.113 68.4029 153.258 68.3529 153.468 68.2829C153.678 68.2029 153.838 68.1379 153.948 68.0879C154.118 67.9579 154.263 67.7329 154.383 67.4129C154.473 67.2029 154.638 66.6829 154.878 65.8529H156.078L156.138 68.0579H158.433V69.2129H156.153V73.4279C156.153 73.9879 156.168 74.3829 156.198 74.6129C156.228 74.8429 156.293 74.9929 156.393 75.0629C156.493 75.1229 156.668 75.1529 156.918 75.1529C157.168 75.1529 157.428 75.1279 157.698 75.0779C157.968 75.0179 158.193 74.9479 158.373 74.8679L158.658 75.7079C158.378 75.9179 157.968 76.1079 157.428 76.2779C156.888 76.4479 156.363 76.5329 155.853 76.5329ZM160.161 65.4329L159.021 65.2379V64.4279L161.811 64.0979H161.856L162.246 64.3829L162.261 67.7279L162.156 69.0329C162.466 68.7529 162.886 68.4929 163.416 68.2529C163.956 68.0129 164.521 67.8929 165.111 67.8929C165.741 67.8929 166.231 68.0129 166.581 68.2529C166.931 68.4829 167.176 68.8379 167.316 69.3179C167.456 69.7979 167.526 70.4379 167.526 71.2379V75.3629L168.486 75.4979V76.3979H164.541V75.4979L165.411 75.3629V71.2379C165.411 70.7179 165.376 70.3129 165.306 70.0229C165.236 69.7329 165.106 69.5179 164.916 69.3779C164.736 69.2379 164.466 69.1679 164.106 69.1679C163.796 69.1679 163.476 69.2429 163.146 69.3929C162.826 69.5329 162.541 69.7029 162.291 69.9029V75.3629L163.206 75.4979V76.3979H159.321V75.4979L160.161 75.3779V65.4329ZM171.29 66.6929C170.93 66.6929 170.645 66.5879 170.435 66.3779C170.225 66.1679 170.12 65.8979 170.12 65.5679C170.12 65.1879 170.24 64.8729 170.48 64.6229C170.72 64.3729 171.04 64.2479 171.44 64.2479C171.84 64.2479 172.145 64.3579 172.355 64.5779C172.565 64.7879 172.67 65.0529 172.67 65.3729C172.67 65.7729 172.55 66.0929 172.31 66.3329C172.07 66.5729 171.735 66.6929 171.305 66.6929H171.29ZM170.495 69.4829L169.43 69.1979V68.1929L172.175 67.8629H172.205L172.625 68.1629V75.3779L173.63 75.4979V76.3979H169.445V75.4979L170.495 75.3629V69.4829ZM176.37 75.1679C176.45 75.2879 176.63 75.4029 176.91 75.5129C177.2 75.6129 177.49 75.6629 177.78 75.6629C178.25 75.6629 178.6 75.5679 178.83 75.3779C179.07 75.1779 179.19 74.9179 179.19 74.5979C179.19 74.2679 179.045 74.0029 178.755 73.8029C178.465 73.5929 177.975 73.3379 177.285 73.0379L176.865 72.8579C176.175 72.5679 175.66 72.2179 175.32 71.8079C174.98 71.3979 174.81 70.8679 174.81 70.2179C174.81 69.7679 174.945 69.3679 175.215 69.0179C175.485 68.6579 175.865 68.3779 176.355 68.1779C176.845 67.9779 177.41 67.8779 178.05 67.8779C178.52 67.8779 178.92 67.9079 179.25 67.9679C179.59 68.0279 179.945 68.1079 180.315 68.2079C180.515 68.2779 180.665 68.3179 180.765 68.3279V70.2929H179.58L179.235 69.1529C179.175 69.0529 179.04 68.9629 178.83 68.8829C178.62 68.8029 178.38 68.7629 178.11 68.7629C177.7 68.7629 177.37 68.8529 177.12 69.0329C176.88 69.2029 176.76 69.4429 176.76 69.7529C176.76 70.0329 176.845 70.2679 177.015 70.4579C177.185 70.6379 177.37 70.7779 177.57 70.8779C177.77 70.9779 178.14 71.1429 178.68 71.3729C179.22 71.6029 179.665 71.8229 180.015 72.0329C180.375 72.2429 180.67 72.5179 180.9 72.8579C181.14 73.1879 181.26 73.5929 181.26 74.0729C181.26 74.8129 180.97 75.4129 180.39 75.8729C179.81 76.3329 178.975 76.5629 177.885 76.5629C177.375 76.5629 176.915 76.5179 176.505 76.4279C176.105 76.3379 175.64 76.2179 175.11 76.0679L174.78 75.9629V73.9829H176.025L176.37 75.1679ZM185.158 68.0729H189.028V68.9279L187.978 69.1079L189.088 73.0979L189.448 74.7329L189.778 73.0829L191.128 68.0729H192.943L194.428 73.0829L194.788 74.7329L195.148 73.0979L196.198 69.1229L195.103 68.9279V68.0729H198.313V68.9279L197.548 69.0929L195.268 76.5179H193.543L192.028 71.6579L191.683 69.8729L191.413 71.6579L190.018 76.5179H188.278L185.878 69.0929L185.158 68.9279V68.0729ZM198.641 72.2429C198.641 71.3029 198.826 70.5029 199.196 69.8429C199.576 69.1829 200.081 68.6879 200.711 68.3579C201.341 68.0179 202.026 67.8479 202.766 67.8479C204.026 67.8479 204.996 68.2379 205.676 69.0179C206.366 69.7879 206.711 70.8379 206.711 72.1679C206.711 73.1179 206.521 73.9279 206.141 74.5979C205.771 75.2579 205.271 75.7529 204.641 76.0829C204.021 76.4029 203.336 76.5629 202.586 76.5629C201.336 76.5629 200.366 76.1779 199.676 75.4079C198.986 74.6279 198.641 73.5729 198.641 72.2429ZM202.706 75.5879C203.836 75.5879 204.401 74.4979 204.401 72.3179C204.401 71.1779 204.266 70.3129 203.996 69.7229C203.726 69.1229 203.286 68.8229 202.676 68.8229C201.516 68.8229 200.936 69.9129 200.936 72.0929C200.936 73.2329 201.076 74.1029 201.356 74.7029C201.646 75.2929 202.096 75.5879 202.706 75.5879ZM208.074 75.5129L209.064 75.3929V69.4829L208.104 69.2129V68.1779L210.429 67.8629H210.474L210.849 68.1629V68.4929L210.804 69.7079H210.849C210.919 69.5079 211.084 69.2629 211.344 68.9729C211.604 68.6729 211.929 68.4129 212.319 68.1929C212.719 67.9629 213.149 67.8479 213.609 67.8479C213.829 67.8479 214.019 67.8779 214.179 67.9379V70.1879C213.879 69.9779 213.514 69.8729 213.084 69.8729C212.354 69.8729 211.719 70.0679 211.179 70.4579V75.3779L212.919 75.5129V76.3979H208.074V75.5129ZM215.825 65.4329L214.745 65.2379V64.4279L217.505 64.0979H217.535L217.94 64.3829V71.5079L217.895 72.3029L220.955 69.0929L219.845 68.9279V68.0729H223.76V68.9279L222.545 69.1229L220.7 70.8929L223.325 75.3779L224.15 75.4979V76.3979H220.19V75.4979L220.955 75.3629L219.245 72.1979L217.895 73.5629L217.925 74.3279V75.3629L218.87 75.4979V76.3979H214.955V75.4979L215.825 75.3629V65.4329ZM226.234 75.1679C226.314 75.2879 226.494 75.4029 226.774 75.5129C227.064 75.6129 227.354 75.6629 227.644 75.6629C228.114 75.6629 228.464 75.5679 228.694 75.3779C228.934 75.1779 229.054 74.9179 229.054 74.5979C229.054 74.2679 228.909 74.0029 228.619 73.8029C228.329 73.5929 227.839 73.3379 227.149 73.0379L226.729 72.8579C226.039 72.5679 225.524 72.2179 225.184 71.8079C224.844 71.3979 224.674 70.8679 224.674 70.2179C224.674 69.7679 224.809 69.3679 225.079 69.0179C225.349 68.6579 225.729 68.3779 226.219 68.1779C226.709 67.9779 227.274 67.8779 227.914 67.8779C228.384 67.8779 228.784 67.9079 229.114 67.9679C229.454 68.0279 229.809 68.1079 230.179 68.2079C230.379 68.2779 230.529 68.3179 230.629 68.3279V70.2929H229.444L229.099 69.1529C229.039 69.0529 228.904 68.9629 228.694 68.8829C228.484 68.8029 228.244 68.7629 227.974 68.7629C227.564 68.7629 227.234 68.8529 226.984 69.0329C226.744 69.2029 226.624 69.4429 226.624 69.7529C226.624 70.0329 226.709 70.2679 226.879 70.4579C227.049 70.6379 227.234 70.7779 227.434 70.8779C227.634 70.9779 228.004 71.1429 228.544 71.3729C229.084 71.6029 229.529 71.8229 229.879 72.0329C230.239 72.2429 230.534 72.5179 230.764 72.8579C231.004 73.1879 231.124 73.5929 231.124 74.0729C231.124 74.8129 230.834 75.4129 230.254 75.8729C229.674 76.3329 228.839 76.5629 227.749 76.5629C227.239 76.5629 226.779 76.5179 226.369 76.4279C225.969 76.3379 225.504 76.2179 224.974 76.0679L224.644 75.9629V73.9829H225.889L226.234 75.1679ZM234.912 72.6479H233.622L233.052 63.1229H235.467L234.912 72.6479ZM233.052 75.4079C233.052 75.0479 233.187 74.7479 233.457 74.5079C233.727 74.2679 234.047 74.1479 234.417 74.1479C234.787 74.1479 235.077 74.2629 235.287 74.4929C235.507 74.7129 235.617 74.9779 235.617 75.2879C235.617 75.6679 235.482 75.9729 235.212 76.2029C234.952 76.4229 234.617 76.5329 234.207 76.5329C233.897 76.5329 233.627 76.4279 233.397 76.2179C233.167 76.0079 233.052 75.7379 233.052 75.4079ZM240.185 72.6479H238.895L238.325 63.1229H240.74L240.185 72.6479ZM238.325 75.4079C238.325 75.0479 238.46 74.7479 238.73 74.5079C239 74.2679 239.32 74.1479 239.69 74.1479C240.06 74.1479 240.35 74.2629 240.56 74.4929C240.78 74.7129 240.89 74.9779 240.89 75.2879C240.89 75.6679 240.755 75.9729 240.485 76.2029C240.225 76.4229 239.89 76.5329 239.48 76.5329C239.17 76.5329 238.9 76.4279 238.67 76.2179C238.44 76.0079 238.325 75.7379 238.325 75.4079Z" fill="white"/>
<defs>
<filter id="filter0_d_3046_11980" x="0.5" y="0.324219" width="393.879" height="146.127" filterUnits="userSpaceOnUse" color-interpolation-filters="sRGB">
<feFlood flood-opacity="0" result="BackgroundImageFix"/>
<feColorMatrix in="SourceAlpha" type="matrix" values="0 0 0 0 0 0 0 0 0 0 0 0 0 0 0 0 0 0 127 0" result="hardAlpha"/>
<feOffset/>
<feGaussianBlur stdDeviation="14.25"/>
<feComposite in2="hardAlpha" operator="out"/>
<feColorMatrix type="matrix" values="0 0 0 0 1 0 0 0 0 1 0 0 0 0 1 0 0 0 0.25 0"/>
<feBlend mode="normal" in2="BackgroundImageFix" result="effect1_dropShadow_3046_11980"/>
<feBlend mode="normal" in="SourceGraphic" in2="effect1_dropShadow_3046_11980" result="shape"/>
</filter>
</defs>
</svg>
