<svg width="871" height="74" viewBox="0 0 871 74" fill="none" xmlns="http://www.w3.org/2000/svg">
<path d="M43.0141 38.1549C38.1737 38.1549 33.3315 36.9411 29.6051 33.3407C25.6349 29.4989 24.3218 23.5845 26.3369 18.6252C28.3504 13.6626 33.5581 9.98651 39.2962 9.47984C43.1806 9.12627 46.7817 10.3227 48.8621 12.6682C51.2531 15.3563 51.375 19.5012 49.1556 22.7432C47.1542 25.6696 43.771 27.0144 40.3038 26.2473C38.68 25.8811 37.3309 24.7652 36.7799 23.3194C36.2186 21.872 36.5139 20.2162 37.5454 19.0072C38.0295 18.4437 38.9152 18.3489 39.5211 18.7862C40.1356 19.2281 40.2386 20.041 39.7614 20.6029C39.3306 21.1064 39.1967 21.8546 39.4318 22.4575C39.6704 23.0778 40.2729 23.5766 40.9681 23.7313C44.2396 24.459 46.1192 22.3186 46.7749 21.3653C48.0691 19.4743 48.5926 16.458 46.6822 14.3066C44.9348 12.3415 41.8538 11.8553 39.5623 12.0558C34.8746 12.4725 30.6178 15.4747 28.9769 19.5312C27.3273 23.5861 28.3984 28.4208 31.646 31.5571C39.3838 39.0467 53.5051 34.2293 59.2123 31.8207C70.3179 27.1217 80.5634 20.9375 89.6641 13.4369L90.6185 12.654C98.4146 6.21408 107.249 -1.07183 117.596 1.20266C123.444 2.49696 128.446 7.2243 130.044 12.9587C131.51 18.2069 130.341 24.0975 126.839 29.1232C124.014 33.1766 120.111 35.3169 116.324 34.8291C111.638 34.2246 109.05 29.6077 108.99 25.5686C108.931 21.5342 111.207 18.6741 114.93 18.1027C116.539 17.866 117.965 18.5194 119.156 19.1997C119.816 19.5785 120.015 20.3772 119.606 20.9833C119.194 21.5973 118.327 21.7725 117.667 21.4C116.922 20.9738 116.075 20.5445 115.392 20.655C112.006 21.1759 111.789 24.5189 111.807 25.5339C111.849 28.5376 113.698 31.8807 116.716 32.2674C119.843 32.6841 122.759 30.1839 124.469 27.7263C127.504 23.3699 128.571 18.0917 127.316 13.6027C125.969 8.76797 121.796 4.79825 116.937 3.72177C108.037 1.74402 99.7775 8.56434 92.498 14.5797L91.5436 15.3689C82.2301 23.0368 71.7477 29.3663 60.3881 34.171C56.7235 35.721 49.8714 38.1549 43.0141 38.1549Z" fill="url(#paint0_linear_2408_10992)"/>
<path d="M113.686 73.1177C105.002 73.1177 97.4157 66.8514 90.6202 61.2402L89.6641 60.4525C80.5634 52.9551 70.3179 46.7693 59.2124 42.0703C53.5068 39.6617 39.3941 34.8428 31.646 42.3339C28.3984 45.4734 27.3273 50.3065 28.9769 54.3598C30.6178 58.4148 34.8763 61.4201 39.5623 61.8352C41.852 62.0388 44.9348 61.5527 46.6787 59.586C48.5926 57.433 48.0708 54.4167 46.7749 52.5242C46.1209 51.5724 44.2431 49.4257 40.9681 50.1581C40.2729 50.3144 39.6704 50.81 39.4336 51.4287C39.1967 52.0396 39.3288 52.7814 39.7614 53.2881C40.2386 53.8485 40.1356 54.6629 39.5211 55.1065C38.9135 55.5468 38.0261 55.4505 37.5454 54.8839C36.5139 53.6732 36.2186 52.0191 36.7833 50.5653C37.3309 49.1243 38.6835 48.0052 40.3055 47.6453C43.7522 46.8719 47.1525 48.2167 49.1556 51.1462C51.375 54.3883 51.2531 58.53 48.8621 61.2244C46.7817 63.5636 43.2115 64.749 39.2962 64.4096C33.5581 63.9045 28.3521 60.23 26.3369 55.2659C24.3218 50.3033 25.6349 44.3906 29.6051 40.5487C38.6045 31.8548 54.1333 37.0715 60.3881 39.7217C71.7477 44.5295 82.2318 50.8558 91.5437 58.5237L92.4997 59.3145C99.7827 65.3282 108.037 72.1502 116.937 70.1708C121.798 69.0944 125.969 65.1246 127.316 60.29C128.571 55.801 127.504 50.5227 124.469 46.1663C122.758 43.7103 119.788 41.2275 116.716 41.6284C113.696 42.0151 111.848 45.3519 111.806 48.3588C111.789 49.3737 112.007 52.7167 115.392 53.2376C116.075 53.3449 116.925 52.9204 117.666 52.4926C118.324 52.1201 119.192 52.2984 119.604 52.9045C120.016 53.5138 119.816 54.3125 119.156 54.6897C117.972 55.3732 116.542 56.0393 114.93 55.7899C111.207 55.2153 108.931 52.3568 108.99 48.3256C109.048 44.2848 111.637 39.6664 116.324 39.0651C120.073 38.5789 124.011 40.7129 126.839 44.771C130.341 49.7951 131.51 55.6841 130.044 60.9324C128.446 66.6699 123.442 71.391 117.596 72.6884C116.269 72.9804 114.963 73.1177 113.686 73.1177Z" fill="url(#paint1_linear_2408_10992)"/>
<path d="M19.693 43.1081C10.2954 43.1081 2.79441 38.0903 2.48202 37.8772L0.949219 36.8355L2.48202 35.7953C2.79613 35.5822 10.2954 30.5645 19.693 30.5645C28.5311 30.5645 37.479 32.7206 37.479 36.8355C37.479 40.9551 28.5311 43.1081 19.693 43.1081ZM5.94069 36.8355C8.56173 38.2261 13.7798 40.5211 19.693 40.5211C29.3807 40.5211 34.664 38.0872 34.664 36.8355C34.664 35.5869 29.3824 33.153 19.693 33.153C13.7592 33.1514 8.55315 35.4433 5.94069 36.8355Z" fill="url(#paint2_linear_2408_10992)"/>
<path d="M282.572 38.3253H51.1909C50.4134 38.3253 49.7852 37.746 49.7852 37.031C49.7852 36.3176 50.4134 35.7383 51.1909 35.7383H282.574C282.574 36.284 282.574 36.4044 282.574 37.1179C282.574 37.8329 282.572 37.7208 282.572 38.3253Z" fill="url(#paint3_linear_2408_10992)"/>
<path d="M155.797 40.2178C155.621 40.2178 155.443 40.1862 155.268 40.1231C152.515 39.0987 150.566 36.5495 149.477 32.5499C149.351 32.0795 149.228 31.6013 149.111 31.1262C148.558 28.9006 148.031 26.8044 146.627 25.2513C145.137 23.6066 142.602 22.7685 140.326 23.1852C138.038 23.6003 136.05 25.2513 135.376 27.2938C135.144 27.9946 135.103 28.6386 135.256 29.1437C135.501 29.9376 136.258 30.6289 137.037 31.2571C138.035 32.0605 139.226 32.905 140.542 33.0865C141.694 33.238 142.916 32.7929 143.524 31.999C144.116 31.2145 144.071 30.0544 143.426 29.4104C143.127 29.1074 142.643 28.9179 142.134 28.9053C141.603 28.899 141.272 29.0205 141.009 29.2573C140.451 29.7482 139.552 29.7403 139.018 29.2226C138.479 28.7064 138.496 27.8872 139.058 27.3932C139.88 26.6655 141.025 26.3072 142.219 26.3199C143.486 26.3562 144.682 26.8439 145.498 27.6568C147.034 29.1941 147.18 31.6975 145.832 33.478C144.624 35.0785 142.326 35.9387 140.124 35.6451C138.081 35.3657 136.411 34.1961 135.18 33.2049C134.128 32.3541 132.992 31.2919 132.547 29.8445C132.242 28.8469 132.288 27.7357 132.681 26.5424C133.649 23.6113 136.502 21.2437 139.782 20.6471C143.108 20.0615 146.631 21.2074 148.792 23.5987C150.621 25.6206 151.25 28.1224 151.854 30.5437C151.969 31.0077 152.086 31.4686 152.209 31.9248C153.064 35.0737 154.449 37.0262 156.324 37.7223C157.044 37.9907 157.395 38.7467 157.103 39.4081C156.88 39.9131 156.353 40.2178 155.797 40.2178Z" fill="url(#paint4_linear_2408_10992)"/>
<path d="M156.174 40.2176C155.618 40.2176 155.091 39.9129 154.868 39.4078C154.578 38.7465 154.926 37.9904 155.645 37.7221C157.52 37.026 158.903 35.0735 159.761 31.9246C159.887 31.4605 160.005 30.9933 160.12 30.5277C160.726 28.1127 161.353 25.6188 163.177 23.5969C165.34 21.204 168.879 20.0439 172.189 20.6452C175.465 21.2419 178.32 23.6063 179.286 26.5406C179.679 27.7339 179.727 28.8451 179.422 29.8411C178.984 31.2806 177.846 32.3476 176.791 33.2031C175.563 34.1943 173.891 35.3655 171.84 35.6433C169.665 35.9417 167.345 35.0782 166.136 33.4762C164.787 31.6957 164.933 29.1971 166.471 27.655C167.288 26.8421 168.481 26.3575 169.748 26.318C170.941 26.2849 172.093 26.6637 172.911 27.3882C173.476 27.8838 173.49 28.7015 172.951 29.2176C172.415 29.7322 171.524 29.7479 170.963 29.2571C170.695 29.0203 170.29 28.9224 169.832 28.9035C169.326 28.9177 168.843 29.1055 168.543 29.4086C167.898 30.0526 167.853 31.2111 168.442 31.9909C169.046 32.7943 170.28 33.241 171.421 33.0831C172.741 32.9016 173.934 32.0572 174.93 31.2538C175.709 30.624 176.468 29.9279 176.706 29.1402C176.861 28.6351 176.82 27.9912 176.59 27.2903C175.915 25.2479 173.924 23.5969 171.638 23.1817C169.344 22.7635 166.823 23.6016 165.338 25.2479C163.941 26.7931 163.414 28.8877 162.858 31.1038C162.738 31.59 162.616 32.0714 162.487 32.5465C161.399 36.5462 159.451 39.0938 156.698 40.1197C156.528 40.186 156.349 40.2176 156.174 40.2176Z" fill="url(#paint5_linear_2408_10992)"/>
<path d="M141.534 53.7294C140.951 53.7294 140.362 53.6773 139.782 53.5716C136.502 52.9765 133.651 50.6105 132.681 47.6762C132.288 46.4829 132.242 45.3717 132.547 44.3758C132.992 42.9284 134.126 41.8629 135.18 41.0137C136.411 40.0225 138.083 38.8513 140.129 38.5735C142.331 38.2736 144.626 39.1402 145.834 40.7438C147.182 42.5243 147.036 45.0229 145.499 46.5603C144.684 47.3748 143.488 47.8641 142.221 47.9004C141.033 47.9398 139.88 47.5516 139.059 46.8286C138.498 46.3346 138.481 45.5154 139.02 44.9992C139.554 44.4847 140.453 44.4705 141.011 44.9645C141.274 45.195 141.608 45.3149 142.135 45.3133C142.645 45.2975 143.129 45.1113 143.428 44.8083C144.073 44.1659 144.118 43.0041 143.526 42.2212C142.921 41.4257 141.706 40.9758 140.544 41.1353C139.229 41.3136 138.035 42.1597 137.039 42.9631C136.258 43.5929 135.503 44.2842 135.257 45.0813C135.105 45.5832 135.146 46.2241 135.377 46.9265C136.052 48.9689 138.04 50.6231 140.328 51.0351C142.609 51.4534 145.137 50.6184 146.629 48.9689C148.031 47.4205 148.555 45.3181 149.113 43.0988C149.231 42.619 149.353 42.1423 149.478 41.6704C150.566 37.6707 152.516 35.1263 155.27 34.0987C155.985 33.832 156.811 34.1461 157.104 34.8138C157.395 35.4767 157.046 36.2296 156.325 36.4979C154.451 37.194 153.067 39.1465 152.211 42.2954C152.087 42.7516 151.971 43.2157 151.854 43.6781C151.25 46.0963 150.623 48.5996 148.793 50.6231C147.008 52.5961 144.291 53.7294 141.534 53.7294Z" fill="url(#paint6_linear_2408_10992)"/>
<path d="M170.431 53.7276C167.676 53.7276 164.958 52.5943 163.173 50.6197C161.349 48.601 160.722 46.1039 160.116 43.6921C160.001 43.2217 159.883 42.7561 159.758 42.2936C158.898 39.1415 157.516 37.1906 155.642 36.4929C154.922 36.2246 154.574 35.4717 154.864 34.8088C155.159 34.1443 155.974 33.8286 156.697 34.0938C159.45 35.1166 161.399 37.6657 162.487 41.6654C162.617 42.1405 162.737 42.6235 162.858 43.1097C163.414 45.3242 163.939 47.4171 165.338 48.964C166.828 50.6134 169.361 51.4468 171.637 51.0301C173.924 50.6182 175.915 48.964 176.589 46.9215C176.819 46.2191 176.86 45.5783 176.706 45.0732C176.467 44.2824 175.709 43.5911 174.929 42.9581C173.934 42.1547 172.737 41.3087 171.423 41.1303C170.283 40.9709 169.045 41.4223 168.441 42.2163C167.851 42.9976 167.895 44.1609 168.542 44.8033C168.843 45.1063 169.325 45.2942 169.832 45.3084C170.29 45.3289 170.695 45.1916 170.963 44.9564C171.527 44.464 172.415 44.4797 172.95 44.9943C173.489 45.5104 173.474 46.3296 172.911 46.8237C172.09 47.5466 170.945 47.9302 169.747 47.8954C168.481 47.8575 167.288 47.3698 166.471 46.5553C164.933 45.0179 164.787 42.5162 166.136 40.7373C167.344 39.1368 169.634 38.2655 171.841 38.5701C173.888 38.8479 175.561 40.0192 176.788 41.0104C177.844 41.8643 178.98 42.9329 179.42 44.3724C179.725 45.3684 179.679 46.4796 179.284 47.6728C178.318 50.6071 175.463 52.9763 172.186 53.5682C171.605 53.674 171.018 53.7276 170.431 53.7276Z" fill="url(#paint7_linear_2408_10992)"/>
<path d="M827.983 38.1553C821.128 38.1553 814.279 35.7214 810.607 34.1698C799.248 29.3651 788.765 23.0357 779.452 15.3678L778.497 14.5786C771.22 8.56324 762.965 1.74293 754.06 3.72068C749.199 4.79715 745.025 8.76525 743.679 13.6015C742.428 18.0937 743.49 23.3687 746.525 27.722C748.241 30.1828 751.183 32.683 754.282 32.2663C757.301 31.8795 759.146 28.5381 759.189 25.5328C759.204 24.5178 758.99 21.1748 755.603 20.6539C754.915 20.5497 754.069 20.9727 753.331 21.3989C752.668 21.7714 751.805 21.5962 751.389 20.9822C750.979 20.376 751.178 19.5774 751.839 19.1986C753.029 18.5167 754.47 17.8585 756.065 18.1016C759.786 18.673 762.062 21.5346 762.004 25.5659C761.946 29.6082 759.354 34.2235 754.673 34.828C750.881 35.3141 746.983 33.1754 744.156 29.1189C740.658 24.1011 739.489 18.2073 740.953 12.9575C742.556 7.22 747.558 2.49582 753.401 1.20152C763.753 -1.08245 772.591 6.21299 780.382 12.6529L781.336 13.4358C790.435 20.9364 800.686 27.1206 811.787 31.8195C817.495 34.2329 831.612 39.0424 839.355 31.556C842.6 28.4196 843.675 23.585 842.025 19.53C840.379 15.4735 836.126 12.4698 831.437 12.0547C829.15 11.8542 826.066 12.3404 824.32 14.3055C822.408 16.4553 822.928 19.4716 824.224 21.3641C824.88 22.3191 826.759 24.4736 830.033 23.7302C830.726 23.5755 831.328 23.0767 831.565 22.4596C831.802 21.8534 831.672 21.1069 831.239 20.6018C830.762 20.0398 830.867 19.227 831.479 18.785C832.091 18.3462 832.976 18.4409 833.455 19.006C834.49 20.2167 834.78 21.8708 834.221 23.3245C833.671 24.7656 832.321 25.8815 830.699 26.2477C827.226 27.0259 823.846 25.6732 821.843 22.7437C819.627 19.5016 819.746 15.3567 822.144 12.6687C824.219 10.3247 827.823 9.13461 831.708 9.48028C837.442 9.98695 842.649 13.6631 844.662 18.6256C846.68 23.5866 845.369 29.5009 841.397 33.3412C837.673 36.9431 832.825 38.1553 827.983 38.1553Z" fill="url(#paint8_linear_2408_10992)"/>
<path d="M757.316 73.1158C756.034 73.1158 754.735 72.9785 753.401 72.6865C747.558 71.3891 742.556 66.668 740.953 60.9305C739.489 55.6775 740.658 49.7869 744.156 44.7691C746.985 40.711 750.933 38.5818 754.673 39.0632C759.355 39.6646 761.946 44.2845 762.004 48.3237C762.062 52.3565 759.786 55.215 756.065 55.788C754.451 56.0279 753.025 55.3697 751.839 54.6879C751.178 54.3106 750.979 53.5119 751.389 52.9027C751.805 52.2965 752.678 52.1182 753.331 52.4907C754.07 52.9185 754.912 53.3383 755.603 53.2357C758.99 52.7148 759.204 49.3718 759.189 48.36C759.146 45.3547 757.299 42.0148 754.282 41.6265C751.197 41.2209 748.241 43.7084 746.525 46.1644C743.492 50.5177 742.426 55.7975 743.679 60.2881C745.03 65.1228 749.199 69.0941 754.06 70.169C762.967 72.1483 771.216 65.3264 778.497 59.3126L779.452 58.5218C788.767 50.8539 799.248 44.5276 810.607 39.7198C816.866 37.0696 832.396 31.8482 841.394 40.5468C845.366 44.3903 846.677 50.303 844.659 55.264C842.645 60.2281 837.439 63.9026 831.704 64.4077C827.779 64.7408 824.215 63.5617 822.135 61.2225C819.744 58.5282 819.624 54.3864 821.84 51.1443C823.843 48.2164 827.216 46.8652 830.695 47.6434C832.312 48.0017 833.668 49.1208 834.217 50.5651C834.777 52.0172 834.485 53.6729 833.452 54.882C832.973 55.4471 832.087 55.5418 831.476 55.1046C830.863 54.661 830.759 53.8466 831.236 53.2862C831.668 52.7811 831.799 52.0377 831.565 51.4316C831.325 50.8081 830.724 50.3125 830.033 50.1562C826.763 49.4444 824.876 51.5705 824.221 52.5223C822.925 54.4148 822.403 57.4296 824.317 59.5841C826.064 61.5508 829.147 62.0275 831.433 61.8333C836.119 61.4166 840.376 58.4129 842.022 54.358C843.672 50.3046 842.597 45.4715 839.351 42.332C831.603 34.8409 817.492 39.6535 811.783 42.0685C800.681 46.769 790.43 52.9532 781.333 60.4506L780.375 61.2383C773.585 66.8495 765.996 73.1127 757.316 73.1158Z" fill="url(#paint9_linear_2408_10992)"/>
<path d="M851.306 43.1097C842.468 43.1097 833.523 40.9567 833.523 36.8355C833.523 32.7206 842.47 30.5645 851.306 30.5645C860.704 30.5645 868.203 35.5822 868.515 35.7953L870.048 36.8355L868.515 37.8772C868.203 38.0919 860.704 43.1097 851.306 43.1097ZM851.306 33.153C841.62 33.153 836.337 35.5869 836.337 36.8355C836.337 38.0872 841.62 40.5211 851.306 40.5211C857.24 40.5211 862.446 38.2308 865.062 36.8387C862.436 35.4465 857.221 33.153 851.306 33.153Z" fill="url(#paint10_linear_2408_10992)"/>
<path d="M819.81 38.3253H588.431C587.653 38.3253 587.023 37.746 587.023 37.031C587.023 36.3176 587.653 35.7383 588.431 35.7383H819.812C820.591 35.7383 821.221 36.3176 821.221 37.031C821.221 37.746 820.589 38.3253 819.81 38.3253Z" fill="url(#paint11_linear_2408_10992)"/>
<path d="M715.203 40.2177C714.651 40.2177 714.122 39.913 713.901 39.4079C713.609 38.7466 713.954 37.9905 714.675 37.7222C716.551 37.0261 717.938 35.0736 718.789 31.9247C718.913 31.4685 719.029 31.0076 719.146 30.5436C719.75 28.1223 720.377 25.6205 722.208 23.5986C724.368 21.2057 727.909 20.0456 731.216 20.647C734.496 21.2436 737.351 23.6112 738.316 26.5423C738.71 27.7356 738.757 28.8468 738.451 29.8428C738.007 31.2917 736.87 32.354 735.818 33.2048C734.591 34.196 732.919 35.3656 730.873 35.645C728.66 35.9386 726.374 35.0784 725.164 33.4779C723.818 31.6974 723.964 29.194 725.499 27.6567C726.316 26.8438 727.512 26.3576 728.779 26.3198C730.011 26.3119 731.124 26.6654 731.944 27.3931C732.504 27.8871 732.519 28.7063 731.98 29.2224C731.443 29.7402 730.549 29.7496 729.992 29.2572C729.726 29.022 729.362 28.9052 728.863 28.9052C728.353 28.9194 727.874 29.1072 727.57 29.4103C726.927 30.0527 726.884 31.2128 727.473 31.9989C728.078 32.7928 729.306 33.2474 730.454 33.0864C731.772 32.9049 732.962 32.0604 733.959 31.257C734.738 30.6304 735.495 29.9375 735.741 29.1404C735.894 28.6384 735.852 27.9945 735.621 27.2936C734.946 25.2512 732.958 23.6002 730.672 23.185C728.382 22.7668 725.857 23.6049 724.373 25.2512C722.969 26.8028 722.443 28.8989 721.885 31.126C721.77 31.6027 721.645 32.081 721.522 32.5497C720.433 36.5494 718.485 39.097 715.729 40.123C715.56 40.1861 715.38 40.2177 715.203 40.2177Z" fill="url(#paint12_linear_2408_10992)"/>
<path d="M714.829 40.2176C714.65 40.2176 714.472 40.1861 714.3 40.1229C711.544 39.0985 709.595 36.5494 708.507 32.5497C708.38 32.0746 708.255 31.5932 708.135 31.107C707.582 28.8909 707.057 26.798 705.656 25.2511C704.163 23.6017 701.621 22.773 699.357 23.185C697.07 23.6001 695.079 25.2511 694.405 27.2936C694.175 27.9944 694.135 28.6384 694.29 29.1435C694.53 29.9311 695.287 30.6272 696.066 31.2602C697.063 32.0604 698.253 32.9048 699.571 33.0864C700.73 33.2442 701.954 32.7959 702.553 31.9988C703.143 31.2144 703.099 30.0558 702.455 29.4103C702.156 29.1072 701.672 28.9178 701.162 28.9052C700.637 28.8988 700.299 29.0204 700.036 29.2571C699.48 29.748 698.584 29.7401 698.045 29.2224C697.506 28.7063 697.525 27.8871 698.085 27.393C698.902 26.6654 700.036 26.3071 701.246 26.3197C702.511 26.356 703.711 26.8437 704.527 27.6566C706.065 29.1987 706.21 31.6974 704.861 33.4778C703.651 35.0783 701.358 35.937 699.156 35.645C697.11 35.3672 695.438 34.196 694.207 33.2048C693.152 32.3493 692.015 31.2822 691.578 29.8427C691.272 28.8468 691.32 27.7355 691.713 26.5423C692.676 23.608 695.532 21.2436 698.814 20.6469C702.105 20.0566 705.654 21.2057 707.817 23.5985C709.645 25.6189 710.277 28.1128 710.879 30.5293C710.993 30.995 711.113 31.4622 711.24 31.9262C712.096 35.0752 713.48 37.0277 715.354 37.7238C716.072 37.9921 716.42 38.7481 716.128 39.4095C715.91 39.913 715.382 40.2176 714.829 40.2176Z" fill="url(#paint13_linear_2408_10992)"/>
<path d="M729.465 53.7284C726.707 53.7284 723.992 52.5951 722.208 50.6205C720.377 48.597 719.754 46.0936 719.146 43.6755C719.029 43.213 718.913 42.749 718.789 42.2928C717.938 39.1439 716.549 37.193 714.675 36.4953C713.954 36.227 713.609 35.4741 713.901 34.8112C714.192 34.1435 715.009 33.831 715.73 34.0961C718.487 35.1221 720.435 37.6681 721.523 41.6678C721.647 42.1397 721.772 42.618 721.887 43.0962C722.445 45.3155 722.974 47.4163 724.374 48.9663C725.863 50.6158 728.394 51.4492 730.674 51.0325C732.96 50.6205 734.948 48.9663 735.622 46.9239C735.856 46.2215 735.895 45.5806 735.743 45.0756C735.497 44.2816 734.74 43.5919 733.961 42.9605C732.964 42.1571 731.771 41.3111 730.459 41.1327C729.275 40.9654 728.077 41.4247 727.474 42.2186C726.884 43.0015 726.928 44.1632 727.572 44.8057C727.876 45.1087 728.355 45.2966 728.865 45.3108C729.361 45.3108 729.728 45.194 729.994 44.9619C730.55 44.4679 731.446 44.4821 731.982 44.9967C732.521 45.5128 732.505 46.332 731.946 46.826C731.125 47.5489 730.004 47.9325 728.781 47.8977C727.514 47.863 726.316 47.3721 725.5 46.5577C723.964 45.0203 723.818 42.5217 725.166 40.7412C726.376 39.1376 728.659 38.271 730.875 38.5709C732.917 38.8487 734.593 40.0199 735.82 41.0112C736.872 41.8604 738.008 42.9257 738.453 44.3732C738.758 45.3691 738.71 46.4803 738.317 47.6736C737.354 50.6079 734.498 52.974 731.218 53.569C730.636 53.6748 730.046 53.7284 729.465 53.7284Z" fill="url(#paint14_linear_2408_10992)"/>
<path d="M700.562 53.7275C699.98 53.7275 699.393 53.6754 698.814 53.5696C695.532 52.9777 692.678 50.6085 691.713 47.6743C691.32 46.481 691.272 45.3698 691.578 44.3738C692.015 42.9343 693.152 41.8657 694.207 41.0118C695.438 40.0205 697.11 38.8494 699.159 38.5716C701.368 38.2733 703.651 39.1414 704.861 40.7419C706.21 42.5192 706.065 45.021 704.527 46.5583C703.71 47.3728 702.511 47.8621 701.246 47.8984C700.045 47.9379 698.902 47.5496 698.085 46.8267C697.525 46.3326 697.506 45.5134 698.045 44.9973C698.584 44.4827 699.48 44.4685 700.036 44.9626C700.299 45.193 700.642 45.313 701.162 45.3114C701.672 45.2956 702.156 45.1094 702.455 44.8063C703.098 44.1639 703.141 43.0022 702.553 42.2224C701.948 41.4206 700.719 40.9707 699.576 41.1333C698.256 41.3117 697.063 42.1577 696.066 42.9611C695.287 43.5925 694.53 44.2854 694.29 45.0746C694.135 45.5813 694.176 46.2221 694.405 46.9245C695.079 48.967 697.07 50.6212 699.357 51.0331C701.617 51.4514 704.163 50.6164 705.659 48.967C707.058 47.4202 707.582 45.3272 708.135 43.1126C708.255 42.6265 708.38 42.1435 708.507 41.6684C709.595 37.6687 711.543 35.1212 714.3 34.0968C715.018 33.83 715.84 34.1441 716.13 34.8118C716.422 35.4747 716.073 36.2276 715.356 36.496C713.48 37.192 712.098 39.1445 711.241 42.2935C711.114 42.7591 710.992 43.2247 710.881 43.6951C710.277 46.1053 709.647 48.6024 707.822 50.6228C706.037 52.5942 703.316 53.7275 700.562 53.7275Z" fill="url(#paint15_linear_2408_10992)"/>
<defs>
<linearGradient id="paint0_linear_2408_10992" x1="25.4042" y1="19.4658" x2="130.665" y2="19.4658" gradientUnits="userSpaceOnUse">
<stop offset="0.0606" stop-color="#C79856"/>
<stop offset="0.2727" stop-color="#FAD983"/>
<stop offset="0.4727" stop-color="#DFB662"/>
<stop offset="0.7253" stop-color="#FAD983"/>
<stop offset="0.956" stop-color="#B27F32"/>
</linearGradient>
<linearGradient id="paint1_linear_2408_10992" x1="25.4025" y1="54.425" x2="130.663" y2="54.425" gradientUnits="userSpaceOnUse">
<stop offset="0.0606" stop-color="#C79856"/>
<stop offset="0.2727" stop-color="#FAD983"/>
<stop offset="0.4727" stop-color="#DFB662"/>
<stop offset="0.7253" stop-color="#FAD983"/>
<stop offset="0.956" stop-color="#B27F32"/>
</linearGradient>
<linearGradient id="paint2_linear_2408_10992" x1="0.948532" y1="36.8363" x2="37.4795" y2="36.8363" gradientUnits="userSpaceOnUse">
<stop offset="0.0606" stop-color="#C79856"/>
<stop offset="0.2727" stop-color="#FAD983"/>
<stop offset="0.4727" stop-color="#DFB662"/>
<stop offset="0.7253" stop-color="#FAD983"/>
<stop offset="0.956" stop-color="#B27F32"/>
</linearGradient>
<linearGradient id="paint3_linear_2408_10992" x1="49.7848" y1="37.031" x2="283.981" y2="37.031" gradientUnits="userSpaceOnUse">
<stop offset="0.0606" stop-color="#C79856"/>
<stop offset="0.2727" stop-color="#FAD983"/>
<stop offset="0.4727" stop-color="#DFB662"/>
<stop offset="0.7253" stop-color="#FAD983"/>
<stop offset="0.956" stop-color="#B27F32"/>
</linearGradient>
<linearGradient id="paint4_linear_2408_10992" x1="132.349" y1="30.3567" x2="157.206" y2="30.3567" gradientUnits="userSpaceOnUse">
<stop offset="0.0606" stop-color="#C79856"/>
<stop offset="0.2727" stop-color="#FAD983"/>
<stop offset="0.4727" stop-color="#DFB662"/>
<stop offset="0.7253" stop-color="#FAD983"/>
<stop offset="0.956" stop-color="#B27F32"/>
</linearGradient>
<linearGradient id="paint5_linear_2408_10992" x1="154.765" y1="30.3537" x2="179.621" y2="30.3537" gradientUnits="userSpaceOnUse">
<stop offset="0.0606" stop-color="#C79856"/>
<stop offset="0.2727" stop-color="#FAD983"/>
<stop offset="0.4727" stop-color="#DFB662"/>
<stop offset="0.7253" stop-color="#FAD983"/>
<stop offset="0.956" stop-color="#B27F32"/>
</linearGradient>
<linearGradient id="paint6_linear_2408_10992" x1="132.349" y1="43.865" x2="157.206" y2="43.865" gradientUnits="userSpaceOnUse">
<stop offset="0.0606" stop-color="#C79856"/>
<stop offset="0.2727" stop-color="#FAD983"/>
<stop offset="0.4727" stop-color="#DFB662"/>
<stop offset="0.7253" stop-color="#FAD983"/>
<stop offset="0.956" stop-color="#B27F32"/>
</linearGradient>
<linearGradient id="paint7_linear_2408_10992" x1="154.763" y1="43.8637" x2="179.619" y2="43.8637" gradientUnits="userSpaceOnUse">
<stop offset="0.0606" stop-color="#C79856"/>
<stop offset="0.2727" stop-color="#FAD983"/>
<stop offset="0.4727" stop-color="#DFB662"/>
<stop offset="0.7253" stop-color="#FAD983"/>
<stop offset="0.956" stop-color="#B27F32"/>
</linearGradient>
<linearGradient id="paint8_linear_2408_10992" x1="740.335" y1="19.4648" x2="845.595" y2="19.4648" gradientUnits="userSpaceOnUse">
<stop offset="0.0606" stop-color="#C79856"/>
<stop offset="0.2727" stop-color="#FAD983"/>
<stop offset="0.4727" stop-color="#DFB662"/>
<stop offset="0.7253" stop-color="#FAD983"/>
<stop offset="0.956" stop-color="#B27F32"/>
</linearGradient>
<linearGradient id="paint9_linear_2408_10992" x1="740.336" y1="54.4219" x2="845.597" y2="54.4219" gradientUnits="userSpaceOnUse">
<stop offset="0.0606" stop-color="#C79856"/>
<stop offset="0.2727" stop-color="#FAD983"/>
<stop offset="0.4727" stop-color="#DFB662"/>
<stop offset="0.7253" stop-color="#FAD983"/>
<stop offset="0.956" stop-color="#B27F32"/>
</linearGradient>
<linearGradient id="paint10_linear_2408_10992" x1="833.523" y1="36.8379" x2="870.05" y2="36.8379" gradientUnits="userSpaceOnUse">
<stop offset="0.0606" stop-color="#C79856"/>
<stop offset="0.2727" stop-color="#FAD983"/>
<stop offset="0.4727" stop-color="#DFB662"/>
<stop offset="0.7253" stop-color="#FAD983"/>
<stop offset="0.956" stop-color="#B27F32"/>
</linearGradient>
<linearGradient id="paint11_linear_2408_10992" x1="587.023" y1="37.031" x2="821.221" y2="37.031" gradientUnits="userSpaceOnUse">
<stop offset="0.0606" stop-color="#C79856"/>
<stop offset="0.2727" stop-color="#FAD983"/>
<stop offset="0.4727" stop-color="#DFB662"/>
<stop offset="0.7253" stop-color="#FAD983"/>
<stop offset="0.956" stop-color="#B27F32"/>
</linearGradient>
<linearGradient id="paint12_linear_2408_10992" x1="713.797" y1="30.3539" x2="738.651" y2="30.3539" gradientUnits="userSpaceOnUse">
<stop offset="0.0606" stop-color="#C79856"/>
<stop offset="0.2727" stop-color="#FAD983"/>
<stop offset="0.4727" stop-color="#DFB662"/>
<stop offset="0.7253" stop-color="#FAD983"/>
<stop offset="0.956" stop-color="#B27F32"/>
</linearGradient>
<linearGradient id="paint13_linear_2408_10992" x1="691.381" y1="30.3557" x2="716.235" y2="30.3557" gradientUnits="userSpaceOnUse">
<stop offset="0.0606" stop-color="#C79856"/>
<stop offset="0.2727" stop-color="#FAD983"/>
<stop offset="0.4727" stop-color="#DFB662"/>
<stop offset="0.7253" stop-color="#FAD983"/>
<stop offset="0.956" stop-color="#B27F32"/>
</linearGradient>
<linearGradient id="paint14_linear_2408_10992" x1="713.796" y1="43.8643" x2="738.65" y2="43.8643" gradientUnits="userSpaceOnUse">
<stop offset="0.0606" stop-color="#C79856"/>
<stop offset="0.2727" stop-color="#FAD983"/>
<stop offset="0.4727" stop-color="#DFB662"/>
<stop offset="0.7253" stop-color="#FAD983"/>
<stop offset="0.956" stop-color="#B27F32"/>
</linearGradient>
<linearGradient id="paint15_linear_2408_10992" x1="691.379" y1="43.863" x2="716.233" y2="43.863" gradientUnits="userSpaceOnUse">
<stop offset="0.0606" stop-color="#C79856"/>
<stop offset="0.2727" stop-color="#FAD983"/>
<stop offset="0.4727" stop-color="#DFB662"/>
<stop offset="0.7253" stop-color="#FAD983"/>
<stop offset="0.956" stop-color="#B27F32"/>
</linearGradient>
</defs>
</svg>
