<svg width="65" height="65" viewBox="0 0 65 65" fill="none" xmlns="http://www.w3.org/2000/svg">
<g id="Arrow button animation (web)" filter="url(#filter0_d_2449_23)">
<g clip-path="url(#clip0_2449_23)">
<circle id="Ellipse 1763" cx="32.6432" cy="32.444" r="0.00327444" transform="rotate(180 32.6432 32.444)" fill="#AB1D79"/>
<path id="Rectangle 78" d="M24.9392 17.5897C25.2886 17.1815 25.9136 17.1633 26.2862 17.5504L39.3375 31.1122C39.972 31.7715 39.9721 32.8145 39.3375 33.4739L26.2778 47.0443C25.909 47.4276 25.2908 47.4115 24.9424 47.0096C24.6918 46.7206 24.65 46.3052 24.8382 45.9721L32.0913 33.131C32.385 32.611 32.3849 31.9751 32.0909 31.4552L24.8384 18.6294C24.6499 18.2961 24.6902 17.8805 24.9392 17.5897Z" fill="#AB1D79"/>
</g>
<rect x="12.2518" y="12.0565" width="40.7717" height="40.7717" rx="20.3858" stroke="#AB1D79" stroke-width="1.22635" shape-rendering="crispEdges"/>
</g>
<defs>
<filter id="filter0_d_2449_23" x="0.491011" y="0.295698" width="64.2934" height="64.2934" filterUnits="userSpaceOnUse" color-interpolation-filters="sRGB">
<feFlood flood-opacity="0" result="BackgroundImageFix"/>
<feColorMatrix in="SourceAlpha" type="matrix" values="0 0 0 0 0 0 0 0 0 0 0 0 0 0 0 0 0 0 127 0" result="hardAlpha"/>
<feOffset/>
<feGaussianBlur stdDeviation="5.57383"/>
<feComposite in2="hardAlpha" operator="out"/>
<feColorMatrix type="matrix" values="0 0 0 0 0.670588 0 0 0 0 0.113725 0 0 0 0 0.47451 0 0 0 0.19 0"/>
<feBlend mode="normal" in2="BackgroundImageFix" result="effect1_dropShadow_2449_23"/>
<feBlend mode="normal" in="SourceGraphic" in2="effect1_dropShadow_2449_23" result="shape"/>
</filter>
<clipPath id="clip0_2449_23">
<rect x="11.6387" y="11.4434" width="41.998" height="41.998" rx="20.999" fill="white"/>
</clipPath>
</defs>
</svg>
