<svg width="58" height="58" viewBox="0 0 58 58" fill="none" xmlns="http://www.w3.org/2000/svg">
<g id="Arrow button animation (web)" filter="url(#filter0_d_1321_34557)">
<g clip-path="url(#clip0_1321_34557)">
<circle id="Ellipse 1763" cx="28.9037" cy="28.8949" r="0.00327444" fill="#AB1D79"/>
<path id="Rectangle 78" d="M35.7877 42.1645C35.4756 42.5291 34.9171 42.5454 34.5843 42.1996L22.925 30.0843C22.3582 29.4953 22.3582 28.5635 22.925 27.9745L34.5919 15.8514C34.9213 15.5091 35.4736 15.5234 35.7848 15.8824C36.0087 16.1406 36.046 16.5118 35.8779 16.8093L29.3984 28.2808C29.136 28.7454 29.1361 29.3134 29.3987 29.7778L35.8777 41.2357C36.0461 41.5334 36.0101 41.9047 35.7877 42.1645Z" fill="#AB1D79"/>
</g>
<rect x="47.3604" y="47.3474" width="36.4231" height="36.4231" rx="18.2115" transform="rotate(-180 47.3604 47.3474)" stroke="#AB1D79" stroke-width="1.09555" shape-rendering="crispEdges"/>
</g>
<defs>
<filter id="filter0_d_1321_34557" x="0.429991" y="0.417784" width="57.4369" height="57.436" filterUnits="userSpaceOnUse" color-interpolation-filters="sRGB">
<feFlood flood-opacity="0" result="BackgroundImageFix"/>
<feColorMatrix in="SourceAlpha" type="matrix" values="0 0 0 0 0 0 0 0 0 0 0 0 0 0 0 0 0 0 127 0" result="hardAlpha"/>
<feOffset/>
<feGaussianBlur stdDeviation="4.97934"/>
<feComposite in2="hardAlpha" operator="out"/>
<feColorMatrix type="matrix" values="0 0 0 0 0.670588 0 0 0 0 0.113725 0 0 0 0 0.47451 0 0 0 0.19 0"/>
<feBlend mode="normal" in2="BackgroundImageFix" result="effect1_dropShadow_1321_34557"/>
<feBlend mode="normal" in="SourceGraphic" in2="effect1_dropShadow_1321_34557" result="shape"/>
</filter>
<clipPath id="clip0_1321_34557">
<rect x="47.9082" y="47.8951" width="37.5186" height="37.5186" rx="18.7593" transform="rotate(-180 47.9082 47.8951)" fill="white"/>
</clipPath>
</defs>
</svg>
