<svg width="25" height="24" viewBox="0 0 25 24" fill="none" xmlns="http://www.w3.org/2000/svg">
<g id="tabler:mail">
<g id="Group">
<path id="Vector" d="M3.97266 7C3.97266 6.46957 4.18337 5.96086 4.55844 5.58579C4.93352 5.21071 5.44222 5 5.97266 5H19.9727C20.5031 5 21.0118 5.21071 21.3869 5.58579C21.7619 5.96086 21.9727 6.46957 21.9727 7V17C21.9727 17.5304 21.7619 18.0391 21.3869 18.4142C21.0118 18.7893 20.5031 19 19.9727 19H5.97266C5.44222 19 4.93352 18.7893 4.55844 18.4142C4.18337 18.0391 3.97266 17.5304 3.97266 17V7Z" stroke="black" stroke-width="2" stroke-linecap="round" stroke-linejoin="round"/>
<path id="Vector_2" d="M3.97266 7L12.9727 13L21.9727 7" stroke="black" stroke-width="2" stroke-linecap="round" stroke-linejoin="round"/>
</g>
</g>
</svg>
