<svg width="25" height="24" viewBox="0 0 25 24" fill="none" xmlns="http://www.w3.org/2000/svg">
<g id="material-symbols:call-sharp">
<path id="Vector" d="M20.5262 21C18.4428 21 16.3805 20.55 14.3392 19.65C12.2978 18.75 10.4435 17.4667 8.77617 15.8C7.10884 14.1333 5.82551 12.2833 4.92617 10.25C4.02684 8.21667 3.57684 6.15 3.57617 4.05V3H9.47617L10.4012 8.025L7.55117 10.9C7.91784 11.55 8.32617 12.1667 8.77617 12.75C9.22617 13.3333 9.70951 13.875 10.2262 14.375C10.7095 14.8583 11.2388 15.321 11.8142 15.763C12.3895 16.205 13.0102 16.6173 13.6762 17L16.5762 14.1L21.5762 15.125V21H20.5262Z" fill="black"/>
</g>
</svg>
