<svg width="41" height="41" viewBox="0 0 41 41" fill="none" xmlns="http://www.w3.org/2000/svg">
<g id="mingcute:link-line" clip-path="url(#clip0_1725_24019)">
<g id="Group">
<path id="Vector" d="M17.9235 17.5424C19.437 16.029 21.4742 15.1552 23.6138 15.1018C25.7535 15.0484 27.8318 15.8194 29.4189 17.2554L29.7209 17.5424L34.4391 22.2623C35.9758 23.8017 36.8504 25.8804 36.8766 28.0553C36.9028 30.2303 36.0785 32.3294 34.5793 33.9054C33.0802 35.4813 31.0248 36.4094 28.8513 36.4919C26.6777 36.5743 24.5579 35.8045 22.9438 34.3466L22.6434 34.0596L19.1031 30.5193C18.8038 30.219 18.6301 29.8161 18.6172 29.3925C18.6042 28.9688 18.7531 28.556 19.0334 28.2381C19.3138 27.9201 19.7046 27.7208 20.1266 27.6806C20.5486 27.6404 20.97 27.7624 21.3054 28.0217L21.4622 28.1601L25.0026 31.7005C25.9203 32.6236 27.1616 33.1529 28.4631 33.176C29.7646 33.1992 31.0239 32.7144 31.9739 31.8245C32.9239 30.9346 33.4898 29.7097 33.5517 28.4095C33.6135 27.1092 33.1664 25.8361 32.3052 24.86L32.08 24.6214L27.3617 19.9032C26.8969 19.4383 26.3451 19.0695 25.7378 18.8179C25.1305 18.5664 24.4795 18.4369 23.8222 18.4369C23.1648 18.4369 22.5139 18.5664 21.9066 18.8179C21.2992 19.0695 20.7474 19.4383 20.2826 19.9032C19.9696 20.216 19.5451 20.3917 19.1025 20.3915C18.6599 20.3914 18.2355 20.2154 17.9227 19.9023C17.6098 19.5893 17.4342 19.1647 17.4343 18.7222C17.4345 18.2796 17.6104 17.8552 17.9235 17.5424ZM7.30572 6.92458C8.81919 5.41121 10.8564 4.53746 12.9961 4.48405C15.1357 4.43063 17.214 5.20165 18.8011 6.63761L19.1031 6.92458L22.6418 10.4666C22.941 10.7669 23.1147 11.1697 23.1277 11.5934C23.1406 12.0171 22.9918 12.4299 22.7114 12.7478C22.4311 13.0657 22.0402 13.2651 21.6182 13.3053C21.1963 13.3455 20.7748 13.2235 20.4395 12.9642L20.2826 12.8258L16.7439 9.28705C15.8246 8.37369 14.5868 7.85251 13.291 7.83315C11.9953 7.81379 10.7425 8.29776 9.79627 9.18325C8.85005 10.0687 8.28415 11.2867 8.21764 12.5809C8.15112 13.8751 8.58917 15.1447 9.43962 16.1225L9.66486 16.3628L14.3848 21.0827C15.3234 22.0211 16.5963 22.5482 17.9235 22.5482C19.2507 22.5482 20.5236 22.0211 21.4622 21.0827C21.6171 20.9277 21.801 20.8047 22.0035 20.7208C22.2059 20.6369 22.4229 20.5936 22.642 20.5935C22.8612 20.5935 23.0782 20.6366 23.2807 20.7203C23.4832 20.8041 23.6672 20.927 23.8222 21.0819C23.9772 21.2368 24.1002 21.4207 24.1841 21.6231C24.268 21.8256 24.3113 22.0426 24.3114 22.2617C24.3114 22.4808 24.2684 22.6979 24.1846 22.9004C24.1008 23.1028 23.9779 23.2868 23.823 23.4419C22.3095 24.9552 20.2723 25.829 18.1327 25.8824C15.993 25.9358 13.9147 25.1648 12.3276 23.7288L12.024 23.4419L7.30572 18.7219C5.74183 17.1576 4.86328 15.0361 4.86328 12.8241C4.86328 10.6121 5.74183 8.48894 7.30572 6.92458Z" fill="black"/>
</g>
</g>
<defs>
<clipPath id="clip0_1725_24019">
<rect width="40.0419" height="40.0419" fill="white" transform="translate(0.851562 0.472656)"/>
</clipPath>
</defs>
</svg>
