<svg width="33" height="33" viewBox="0 0 33 33" fill="none" xmlns="http://www.w3.org/2000/svg">
<g id="material-symbols:share-outline">
<path id="Vector" d="M22.9648 29.4692C21.8537 29.4692 20.9093 29.0803 20.1315 28.3025C19.3537 27.5247 18.9648 26.5803 18.9648 25.4692C18.9648 25.3358 18.9982 25.0247 19.0648 24.5358L9.69818 19.0692C9.34262 19.4025 8.93151 19.6638 8.46484 19.8532C7.99818 20.0425 7.49818 20.1367 6.96484 20.1358C5.85373 20.1358 4.90929 19.7469 4.13151 18.9692C3.35373 18.1914 2.96484 17.2469 2.96484 16.1358C2.96484 15.0247 3.35373 14.0803 4.13151 13.3025C4.90929 12.5247 5.85373 12.1358 6.96484 12.1358C7.49818 12.1358 7.99818 12.2305 8.46484 12.4198C8.93151 12.6092 9.34262 12.87 9.69818 13.2025L19.0648 7.73582C19.0204 7.58027 18.9928 7.43049 18.9822 7.28649C18.9715 7.14249 18.9657 6.98116 18.9648 6.80249C18.9648 5.69138 19.3537 4.74693 20.1315 3.96916C20.9093 3.19138 21.8537 2.80249 22.9648 2.80249C24.076 2.80249 25.0204 3.19138 25.7982 3.96916C26.576 4.74693 26.9648 5.69138 26.9648 6.80249C26.9648 7.9136 26.576 8.85805 25.7982 9.63582C25.0204 10.4136 24.076 10.8025 22.9648 10.8025C22.4315 10.8025 21.9315 10.7078 21.4648 10.5185C20.9982 10.3292 20.5871 10.0683 20.2315 9.73582L10.8648 15.2025C10.9093 15.358 10.9373 15.5083 10.9488 15.6532C10.9604 15.798 10.9657 15.9589 10.9648 16.1358C10.964 16.3127 10.9586 16.474 10.9488 16.6198C10.9391 16.7656 10.9111 16.9154 10.8648 17.0692L20.2315 22.5358C20.5871 22.2025 20.9982 21.9416 21.4648 21.7532C21.9315 21.5647 22.4315 21.47 22.9648 21.4692C24.076 21.4692 25.0204 21.858 25.7982 22.6358C26.576 23.4136 26.9648 24.358 26.9648 25.4692C26.9648 26.5803 26.576 27.5247 25.7982 28.3025C25.0204 29.0803 24.076 29.4692 22.9648 29.4692ZM22.9648 26.8025C23.3426 26.8025 23.6595 26.6749 23.9155 26.4198C24.1715 26.1647 24.2991 25.8478 24.2982 25.4692C24.2973 25.0905 24.1693 24.774 23.9142 24.5198C23.6591 24.2656 23.3426 24.1376 22.9648 24.1358C22.5871 24.134 22.2706 24.262 22.0155 24.5198C21.7604 24.7776 21.6324 25.094 21.6315 25.4692C21.6306 25.8443 21.7586 26.1612 22.0155 26.4198C22.2724 26.6785 22.5888 26.806 22.9648 26.8025ZM6.96484 17.4692C7.34262 17.4692 7.65951 17.3412 7.91551 17.0852C8.17151 16.8292 8.29907 16.5127 8.29818 16.1358C8.29729 15.7589 8.16929 15.4425 7.91418 15.1865C7.65907 14.9305 7.34262 14.8025 6.96484 14.8025C6.58707 14.8025 6.27062 14.9305 6.01551 15.1865C5.7604 15.4425 5.6324 15.7589 5.63151 16.1358C5.63062 16.5127 5.75862 16.8296 6.01551 17.0865C6.2724 17.3434 6.58884 17.4709 6.96484 17.4692ZM22.9648 8.13582C23.3426 8.13582 23.6595 8.00782 23.9155 7.75182C24.1715 7.49582 24.2991 7.17938 24.2982 6.80249C24.2973 6.4256 24.1693 6.10916 23.9142 5.85316C23.6591 5.59716 23.3426 5.46916 22.9648 5.46916C22.5871 5.46916 22.2706 5.59716 22.0155 5.85316C21.7604 6.10916 21.6324 6.4256 21.6315 6.80249C21.6306 7.17938 21.7586 7.49627 22.0155 7.75316C22.2724 8.01005 22.5888 8.1376 22.9648 8.13582Z" fill="black"/>
</g>
</svg>
