<svg width="46" height="53" viewBox="0 0 46 53" fill="none" xmlns="http://www.w3.org/2000/svg">
<g id="Frame 1686558481">
<g id="Group 1686558097" filter="url(#filter0_d_2243_9754)">
<path id="Vector" d="M16.9286 20.8825C16.9286 23.0711 15.1539 24.8482 12.9628 24.8482C10.7742 24.8482 8.99707 23.0711 8.99707 20.8825C8.99707 18.6914 10.7742 16.9167 12.9628 16.9167C15.1539 16.9167 16.9286 18.6914 16.9286 20.8825Z" fill="#AB1D79"/>
<path id="Vector_2" d="M37.7662 20.8825C37.7662 23.0711 35.9915 24.8482 33.8005 24.8482C31.6094 24.8482 29.8347 23.0711 29.8347 20.8825C29.8347 18.6914 31.6094 16.9167 33.8005 16.9167C35.9915 16.9167 37.7662 18.6914 37.7662 20.8825Z" fill="#AB1D79"/>
<path id="Vector_3" d="M18.9107 33.3196V37.8406C18.9107 38.6635 18.2464 39.3278 17.4235 39.3278C16.6006 39.3278 15.9363 38.6635 15.9363 37.8406V46.6547C15.9363 47.4776 15.272 48.1419 14.4491 48.1419C13.6262 48.1419 12.9619 47.4776 12.9619 46.6547C12.9619 47.4776 12.2976 48.1419 11.4747 48.1419C10.6518 48.1419 9.98756 47.4776 9.98756 46.6547V37.8406C9.98756 38.6635 9.32328 39.3278 8.50037 39.3278C7.67746 39.3278 7.01318 38.6635 7.01318 37.8406V33.3196C7.01318 30.8013 8.61928 28.5508 11.0186 27.7378L11.0682 27.718C11.6828 27.5197 12.3174 27.4106 12.9618 27.4106C13.6062 27.4106 14.2506 27.5197 14.8555 27.718L14.905 27.7378C17.3043 28.5508 18.9107 30.8013 18.9107 33.3196Z" fill="#AB1D79"/>
<path id="Vector_4" d="M33.801 44.5432V46.655C33.801 47.4779 33.1368 48.1421 32.3138 48.1421C31.4909 48.1421 30.8267 47.4779 30.8267 46.655V44.5432H33.801Z" fill="#AB1D79"/>
<path id="Vector_5" d="M33.8026 44.5432H36.7769V46.655C36.7769 47.4779 36.1126 48.1421 35.2897 48.1421C34.4668 48.1421 33.8025 47.4779 33.8025 46.655L33.8026 44.5432Z" fill="#AB1D79"/>
<path id="Vector_6" d="M36.2776 38.3363V38.418L36.3036 38.4955L37.7775 42.8826H29.4948L31.2885 38.6916L31.3289 38.5974V38.4949V37.8406H30.8289H30.3289C30.3289 38.3873 29.8884 38.8278 29.3417 38.8278C28.7949 38.8278 28.3545 38.3873 28.3545 37.8406V33.3196C28.3545 31.0154 29.8243 28.9555 32.0204 28.2114L32.0331 28.2071L32.0456 28.2021L32.079 28.1887C32.6437 28.0082 33.2211 27.9106 33.8031 27.9106C34.3866 27.9106 34.9732 28.0086 35.5262 28.1883L35.5607 28.2021L35.5732 28.2071L35.5859 28.2114C37.7819 28.9555 39.252 31.0154 39.252 33.3196V37.8405C39.252 38.3873 38.8116 38.8277 38.2648 38.8277C37.718 38.8277 37.2776 38.3873 37.2776 37.8405H36.7776H36.2776V38.3363Z" fill="#AB1D79" stroke="#AB1D79"/>
<path id="Vector_7" d="M23.1951 18.1064L29.7383 11.5633C30.5041 10.7974 30.8908 9.78856 30.8859 8.78475C30.8908 7.78095 30.5042 6.76965 29.7383 6.00626C28.204 4.47199 25.7205 4.47694 24.1838 6.01122L23.1997 6.99523H23.1898L22.2058 6.01122C20.6715 4.47695 18.188 4.472 16.6513 6.00626C15.8854 6.77212 15.4988 7.78095 15.5037 8.78475C15.4988 9.78856 15.8854 10.7999 16.6513 11.5633L23.1951 18.1064Z" fill="#AB1D79"/>
</g>
</g>
<defs>
<filter id="filter0_d_2243_9754" x="3.01318" y="0.858032" width="40.7388" height="51.2841" filterUnits="userSpaceOnUse" color-interpolation-filters="sRGB">
<feFlood flood-opacity="0" result="BackgroundImageFix"/>
<feColorMatrix in="SourceAlpha" type="matrix" values="0 0 0 0 0 0 0 0 0 0 0 0 0 0 0 0 0 0 127 0" result="hardAlpha"/>
<feOffset/>
<feGaussianBlur stdDeviation="2"/>
<feComposite in2="hardAlpha" operator="out"/>
<feColorMatrix type="matrix" values="0 0 0 0 0.670588 0 0 0 0 0.113725 0 0 0 0 0.47451 0 0 0 0.73 0"/>
<feBlend mode="normal" in2="BackgroundImageFix" result="effect1_dropShadow_2243_9754"/>
<feBlend mode="normal" in="SourceGraphic" in2="effect1_dropShadow_2243_9754" result="shape"/>
</filter>
</defs>
</svg>
