<svg width="45" height="44" viewBox="0 0 45 44" fill="none" xmlns="http://www.w3.org/2000/svg">
<g id="process 1">
<g id="Vector" filter="url(#filter0_d_2243_9788)">
<path d="M24.111 11.0195C24.7355 11.4756 25.3239 12.1485 25.4531 12.9352C25.4615 12.9964 25.47 13.0576 25.4787 13.1207C25.5035 13.2918 25.5035 13.2918 25.5607 13.44C25.7907 13.5919 25.9373 13.6471 26.2122 13.6471C26.3766 13.5829 26.5007 13.5099 26.6479 13.4141C27.31 12.9875 28.0822 12.8827 28.857 13.0042C29.7429 13.1983 30.3989 13.6913 30.9452 14.4064C31.4102 15.1617 31.524 15.9914 31.3465 16.8528C31.227 17.3427 31.015 17.7189 30.7381 18.1342C30.7511 18.303 30.7511 18.303 30.8072 18.4794C30.8226 18.538 30.838 18.5967 30.8538 18.6571C30.9307 18.8424 30.9307 18.8424 31.1283 18.889C31.2032 18.9005 31.278 18.9119 31.3551 18.9238C32.2332 19.0957 32.8905 19.5572 33.3884 20.2953C33.8358 21.0446 33.9657 21.8654 33.7974 22.7241C33.5437 23.6201 33.0319 24.2536 32.2569 24.7614C31.9308 24.9421 31.6336 25.0427 31.2645 25.0936C31.0934 25.1184 31.0934 25.1184 30.9452 25.1756C30.7933 25.4057 30.7381 25.5522 30.7381 25.8271C30.8213 26.0402 30.9397 26.2147 31.0644 26.4058C31.4656 27.0924 31.5057 27.8997 31.3379 28.661C31.1098 29.4942 30.5677 30.1976 29.8307 30.6513C29.0182 31.0708 28.185 31.1227 27.301 30.9072C26.9921 30.8084 26.7269 30.6709 26.4581 30.4911C26.2694 30.3335 26.2694 30.3335 26.087 30.3703C25.9973 30.396 25.9973 30.396 25.9058 30.4221C25.8179 30.4452 25.8179 30.4452 25.7281 30.4688C25.5428 30.5457 25.5428 30.5457 25.4962 30.7433C25.4847 30.8181 25.4732 30.893 25.4614 30.9701C25.2895 31.8482 24.828 32.5054 24.0899 33.0033C23.3406 33.4507 22.5198 33.5807 21.6611 33.4124C20.7651 33.1586 20.1316 32.6468 19.6238 31.8718C19.4431 31.5457 19.3425 31.2485 19.2916 30.8795C19.2668 30.7083 19.2668 30.7083 19.2096 30.5602C18.9795 30.4082 18.833 30.3531 18.5581 30.3531C18.3936 30.4173 18.2696 30.4902 18.1223 30.5861C17.4603 31.0126 16.688 31.1175 15.9133 30.9959C15.0273 30.8018 14.3714 30.3088 13.825 29.5937C13.3601 28.8385 13.2463 28.0087 13.4238 27.1474C13.5433 26.6574 13.7553 26.2812 14.0321 25.8659C14.0129 25.7007 14.0129 25.7007 13.9631 25.5208C13.9397 25.3828 13.9165 25.2447 13.8941 25.1066C13.83 25.1123 13.7659 25.1179 13.6999 25.1238C12.9951 25.121 12.355 24.7033 11.8446 24.2523C11.1805 23.4984 10.897 22.7874 10.9065 21.7771C10.9683 20.9371 11.3302 20.2087 11.9611 19.6529C12.5456 19.1612 13.1242 18.8788 13.8941 18.8936C13.904 18.8324 13.914 18.7711 13.9243 18.708C13.9631 18.4794 13.9631 18.4794 14.0119 18.313C14.0384 18.0788 13.9741 17.9984 13.8423 17.8063C13.3921 17.1045 13.2495 16.3375 13.3936 15.5153C13.5877 14.635 14.081 13.9827 14.7915 13.44C15.5377 12.9806 16.3728 12.8702 17.2292 13.0344C17.6323 13.1327 17.9681 13.2788 18.3122 13.509C18.5009 13.6666 18.5009 13.6666 18.6832 13.6298C18.743 13.6127 18.8028 13.5956 18.8644 13.578C18.9231 13.5626 18.9817 13.5472 19.0421 13.5314C19.2274 13.4544 19.2274 13.4544 19.2741 13.2569C19.2855 13.182 19.297 13.1072 19.3088 13.0301C19.4808 12.1519 19.9423 11.4947 20.6803 10.9968C21.7432 10.3622 23.0574 10.3456 24.111 11.0195ZM21.6085 13.043C21.3232 13.4913 21.3285 13.9412 21.3111 14.4612C21.2787 14.6963 21.225 14.7829 21.0735 14.9587C21.0735 15.0042 21.0735 15.0498 21.0735 15.0968C20.9475 15.1373 20.9475 15.1373 20.8189 15.1787C20.2245 15.3778 19.6474 15.6011 19.0845 15.8777C18.6451 16.0831 18.3687 16.1511 17.898 15.9942C17.7076 15.8673 17.5793 15.745 17.4234 15.58C17.1703 15.3197 16.9525 15.1464 16.5863 15.0968C16.2966 15.1007 16.0687 15.1559 15.8361 15.333C15.6093 15.5696 15.4823 15.7997 15.4664 16.1298C15.5197 16.6162 15.8362 16.9265 16.1856 17.2397C16.4258 17.5002 16.4809 17.7669 16.4713 18.1195C16.4263 18.4179 16.2871 18.6769 16.1549 18.9453C15.916 19.451 15.7099 19.9445 15.5508 20.4813C15.4818 20.6884 15.4818 20.6884 15.3481 20.7661C15.3011 20.786 15.2541 20.806 15.2057 20.8265C15.1373 20.8607 15.1373 20.8607 15.0676 20.8955C14.9038 20.9064 14.7398 20.9146 14.5758 20.9214C14.0561 20.9513 13.6782 20.9944 13.2771 21.3529C13.1005 21.6418 13.0451 21.8701 13.0657 22.2072C13.1767 22.5342 13.3299 22.71 13.6179 22.8975C14.0196 23.059 14.4006 23.0609 14.8287 23.0741C15.076 23.1057 15.1616 23.1513 15.3437 23.3117C15.3893 23.3117 15.4349 23.3117 15.4818 23.3117C15.5074 23.3929 15.5331 23.474 15.5595 23.5576C15.6592 23.8563 15.7709 24.1496 15.8874 24.4421C15.9051 24.4867 15.9228 24.5313 15.9411 24.5772C16.0511 24.85 16.1722 25.1141 16.3016 25.3784C16.4851 25.7773 16.5213 26.061 16.3792 26.4872C16.2525 26.6774 16.129 26.8092 15.965 26.9661C15.6824 27.2405 15.5034 27.4576 15.471 27.8657C15.4864 28.1998 15.6061 28.4272 15.8361 28.6672C16.1063 28.8729 16.393 28.9267 16.7271 28.8864C17.1132 28.7749 17.347 28.5096 17.6097 28.2171C17.8773 27.9639 18.1364 27.9039 18.5046 27.9139C18.803 27.9589 19.0619 28.0981 19.3304 28.2303C19.8361 28.4692 20.3295 28.6753 20.8664 28.8343C21.0735 28.9034 21.0735 28.9034 21.1512 29.0371C21.1711 29.0841 21.191 29.1311 21.2116 29.1795C21.2343 29.2251 21.2571 29.2706 21.2806 29.3176C21.2914 29.4684 21.2996 29.6195 21.3065 29.7706C21.3426 30.2966 21.3842 30.7082 21.7379 31.1124C22.0271 31.2838 22.2574 31.34 22.5922 31.3195C22.9187 31.2087 23.0981 31.0571 23.2826 30.7673C23.4432 30.3699 23.4448 29.9713 23.4592 29.5457C23.4922 29.2988 23.5449 29.1683 23.6968 28.9724C23.8165 28.8929 23.8165 28.8929 23.9556 28.8387C24.0103 28.8166 24.0649 28.7945 24.1212 28.7718C24.1862 28.7469 24.2511 28.722 24.3181 28.6963C24.4431 28.6466 24.5682 28.5969 24.6932 28.5469C24.7828 28.5112 24.8725 28.4757 24.9624 28.4405C25.2357 28.3326 25.4994 28.2132 25.7634 28.0836C26.1624 27.9001 26.4461 27.8639 26.8723 28.0059C27.0626 28.1329 27.191 28.2551 27.3469 28.4201C27.6 28.6804 27.8177 28.8537 28.1839 28.9034C28.4737 28.8994 28.7016 28.8442 28.9341 28.6672C29.1609 28.4306 29.2879 28.2004 29.3038 27.8703C29.2506 27.3839 28.9341 27.0736 28.5846 26.7604C28.3444 26.4999 28.2893 26.2333 28.2989 25.8806C28.344 25.5822 28.4832 25.3233 28.6154 25.0548C28.8543 24.5491 29.0603 24.0557 29.2194 23.5188C29.2884 23.3117 29.2884 23.3117 29.4222 23.234C29.4927 23.2041 29.4927 23.2041 29.5646 23.1736C29.6101 23.1508 29.6557 23.1281 29.7026 23.1046C29.8665 23.0938 30.0305 23.0856 30.1945 23.0787C30.7141 23.0488 31.0921 23.0057 31.4932 22.6473C31.6698 22.3583 31.7252 22.1301 31.7046 21.793C31.5935 21.466 31.4404 21.2902 31.1523 21.1026C30.7507 20.9412 30.3696 20.9393 29.9416 20.926C29.6943 20.8945 29.6087 20.8488 29.4265 20.6884C29.3809 20.6884 29.3354 20.6884 29.2884 20.6884C29.2628 20.6073 29.2372 20.5261 29.2108 20.4425C29.1111 20.1438 28.9994 19.8505 28.8829 19.558C28.8651 19.5134 28.8474 19.4688 28.8291 19.4229C28.7192 19.1502 28.598 18.886 28.4687 18.6218C28.2852 18.2228 28.249 17.9391 28.391 17.5129C28.5179 17.3225 28.6402 17.1942 28.8052 17.0383C29.0655 16.7852 29.2388 16.5675 29.2884 16.2013C29.2845 15.9107 29.2303 15.6824 29.0498 15.4511C28.7843 15.2006 28.5571 15.0902 28.1839 15.0968C27.7131 15.2031 27.4799 15.4275 27.1606 15.783C26.893 16.0362 26.6338 16.0963 26.2657 16.0863C25.9673 16.0412 25.7083 15.902 25.4398 15.7698C24.9342 15.5309 24.4407 15.3249 23.9039 15.1658C23.6968 15.0968 23.6968 15.0968 23.6191 14.963C23.5892 14.8925 23.5892 14.8925 23.5587 14.8206C23.5359 14.7751 23.5131 14.7295 23.4897 14.6826C23.4788 14.5317 23.4706 14.3806 23.4638 14.2295C23.4277 13.7036 23.3861 13.292 23.0323 12.8877C22.5142 12.5807 22.0447 12.6069 21.6085 13.043Z" fill="#AB1D79"/>
</g>
<g id="Vector_2" filter="url(#filter1_d_2243_9788)">
<path d="M38.0575 25.5208C38.6168 25.8058 38.8187 26.2665 39.0442 26.8203C39.0712 26.8854 39.0982 26.9505 39.1261 27.0175C39.212 27.2245 39.297 27.4319 39.3821 27.6393C39.468 27.8473 39.5542 28.0553 39.6403 28.2633C39.6937 28.3925 39.7471 28.5218 39.8002 28.6512C39.8242 28.7095 39.8482 28.7678 39.8729 28.8279C39.894 28.8792 39.9151 28.9306 39.9368 28.9836C39.9747 29.0733 40.0159 29.1615 40.0595 29.2486C40.0947 29.6341 40.1105 29.9694 39.943 30.3229C39.653 30.6285 39.395 30.7435 38.9784 30.7754C38.6945 30.7612 38.4852 30.6685 38.2646 30.4912C38.041 30.2187 37.9076 29.9208 37.7814 29.5938C37.7634 29.6285 37.7453 29.6631 37.7268 29.6988C37.5168 30.1021 37.3049 30.5042 37.091 30.9054C37.0668 30.951 37.0425 30.9965 37.0175 31.0435C36.4505 32.0977 35.7428 33.0481 34.951 33.9429C34.8986 34.0029 34.8462 34.063 34.7922 34.1249C34.1823 34.8149 33.5385 35.4486 32.811 36.0139C32.7718 36.0449 32.7326 36.0759 32.6922 36.1079C29.7032 38.4687 26.0202 39.7066 22.223 39.6985C22.1232 39.6985 22.1232 39.6985 22.0214 39.6984C20.9243 39.6956 19.8732 39.6272 18.7973 39.3965C18.6929 39.3748 18.6929 39.3748 18.5864 39.3528C15.7243 38.7444 12.9489 37.375 10.8231 35.3492C10.6777 35.2106 10.5294 35.0809 10.3752 34.9525C8.28007 33.1208 6.83642 30.4464 5.98298 27.8378C5.9593 27.7662 5.93562 27.6947 5.91122 27.6211C5.76388 27.1521 5.65877 26.7458 5.82766 26.2672C6.02247 25.975 6.23856 25.7722 6.57839 25.6589C6.94135 25.6315 7.16939 25.6661 7.47582 25.866C7.84717 26.2149 7.95333 26.6264 8.09859 27.1058C8.63446 28.8611 9.44713 30.4289 10.5823 31.8719C10.6471 31.9578 10.6471 31.9578 10.7131 32.0455C11.8248 33.4752 13.2287 34.6315 14.7933 35.5306C14.8733 35.5768 14.8733 35.5768 14.955 35.6239C18.3366 37.5481 22.3416 37.9962 26.0907 37.0008C26.4724 36.8937 26.8468 36.7705 27.2193 36.6352C27.2669 36.6179 27.3144 36.6007 27.3634 36.583C29.1113 35.9361 30.6641 34.9714 32.0516 33.7358C32.0875 33.7042 32.1233 33.6726 32.1603 33.64C33.6399 32.333 35.0769 30.5279 35.7104 28.6273C35.6528 28.653 35.5952 28.6788 35.5359 28.7052C34.6798 29.0652 34.6798 29.0652 34.1917 28.9035C33.8539 28.7346 33.6901 28.5724 33.5704 28.2131C33.5255 27.8734 33.5315 27.6086 33.6739 27.2941C34.0299 26.9114 34.4989 26.7046 34.9769 26.5105C35.03 26.4885 35.083 26.4665 35.1377 26.4438C35.3054 26.3744 35.4734 26.3057 35.6413 26.237C35.7539 26.1905 35.8664 26.144 35.979 26.0974C37.5716 25.4397 37.5716 25.4397 38.0575 25.5208Z" fill="#AB1D79"/>
</g>
<g id="Vector_3" filter="url(#filter2_d_2243_9788)">
<path d="M22.5495 4.30168C22.6493 4.30173 22.6493 4.30173 22.7511 4.30179C23.848 4.30462 24.8997 4.3722 25.9752 4.6037C26.0456 4.61849 26.1159 4.63328 26.1883 4.64853C28.6941 5.18996 30.9917 6.28229 33.0166 7.84825C33.0807 7.89755 33.1448 7.94685 33.2108 7.99765C34.0341 8.65192 34.8294 9.3858 35.5018 10.1954C35.5301 10.2294 35.5584 10.2633 35.5876 10.2984C37.0289 12.043 38.0865 14.0136 38.7895 16.1624C38.8132 16.2339 38.8369 16.3054 38.8613 16.3791C39.0086 16.8481 39.1137 17.2544 38.9448 17.7329C38.75 18.0252 38.5339 18.228 38.1941 18.3413C37.8422 18.3758 37.6029 18.3164 37.2894 18.1728C36.9194 17.8683 36.8156 17.3946 36.697 16.952C36.1605 15.0696 35.1942 13.2662 33.9141 11.7831C33.8694 11.7309 33.8247 11.6787 33.7787 11.6249C33.6201 11.4441 33.4575 11.268 33.2928 11.0928C33.2566 11.0543 33.2203 11.0157 33.183 10.976C32.2344 9.97429 31.1747 9.15659 29.9792 8.46955C29.8992 8.42338 29.8992 8.42338 29.8175 8.37628C26.3091 6.37992 22.2634 6.03844 18.3947 7.07008C16.6794 7.55605 15.0269 8.42093 13.6183 9.50505C13.5509 9.55657 13.4834 9.6081 13.4139 9.66118C11.8835 10.8752 10.6815 12.3149 9.70931 14.0051C9.67416 14.0662 9.63901 14.1273 9.60279 14.1903C9.43616 14.4865 9.2919 14.7671 9.20019 15.0967C9.26653 15.0668 9.26653 15.0668 9.33421 15.0363C9.73935 14.8624 10.0771 14.7208 10.5164 14.8686C10.8494 15.0146 11.0528 15.1687 11.2022 15.5109C11.2546 15.8772 11.2492 16.1708 11.09 16.5076C10.7363 16.8891 10.3022 17.0626 9.82931 17.257C9.7645 17.284 9.69969 17.311 9.63291 17.3389C9.427 17.4246 9.22083 17.5097 9.01466 17.5949C8.87528 17.6529 8.73591 17.7109 8.59655 17.7689C8.34207 17.8748 8.08757 17.9805 7.83282 18.0857C7.7818 18.1068 7.73078 18.1279 7.6782 18.1496C7.29217 18.3031 6.9549 18.3326 6.56399 18.1946C6.14386 17.9145 5.9559 17.546 5.77415 17.0911C5.75231 17.0382 5.73047 16.9853 5.70797 16.9307C5.63881 16.7626 5.5707 16.5941 5.5026 16.4256C5.45669 16.3136 5.41072 16.2016 5.36467 16.0896C5.2769 15.8758 5.18979 15.6618 5.10334 15.4475C5.03579 15.2801 4.96708 15.1135 4.89684 14.9471C4.71891 14.5228 4.64316 14.1782 4.71303 13.7161C4.85925 13.381 5.06148 13.2147 5.38854 13.0692C5.74487 12.968 6.04811 13.0476 6.38277 13.1854C6.6797 13.4691 6.83608 13.8221 6.99113 14.1993C6.99113 14.2449 6.99113 14.2904 6.99113 14.3374C7.03669 14.3374 7.08225 14.3374 7.1292 14.3374C7.14059 14.2993 7.15199 14.2612 7.16373 14.2219C7.28582 13.8331 7.4415 13.4874 7.64263 13.1336C7.67238 13.0807 7.70214 13.0279 7.7328 12.9734C8.22209 12.118 8.76803 11.2915 9.40729 10.5405C9.46863 10.4665 9.52993 10.3924 9.5912 10.3183C10.3062 9.46113 11.0752 8.66784 11.9615 7.98632C12.0004 7.95559 12.0393 7.92485 12.0794 7.89319C15.0766 5.52537 18.7432 4.29355 22.5495 4.30168Z" fill="#AB1D79"/>
</g>
<g id="Vector_4" filter="url(#filter3_d_2243_9788)">
<path d="M24.1515 19.3524C24.8055 19.8321 25.3217 20.5014 25.4922 21.3099C25.5817 22.2768 25.5035 23.1252 24.9141 23.9288C24.4136 24.5161 23.7275 25.0464 22.9322 25.12C21.9281 25.1564 21.1066 25.0821 20.3093 24.4026C19.748 23.8767 19.2889 23.1828 19.2603 22.3931C19.2316 21.3679 19.3832 20.5643 20.1076 19.7911C21.1444 18.6955 22.9026 18.5558 24.1515 19.3524ZM21.4969 21.4566C21.3803 21.7547 21.3737 22.0296 21.4193 22.3454C21.5686 22.6495 21.7228 22.8423 22.0406 22.9667C22.3887 23.0139 22.6502 23.0063 22.9682 22.8502C23.2001 22.6409 23.331 22.5013 23.374 22.1844C23.3924 21.7897 23.35 21.5444 23.076 21.2408C22.8112 21.0071 22.549 20.9983 22.2088 21.0095C21.8869 21.0559 21.7056 21.22 21.4969 21.4566Z" fill="#AB1D79"/>
</g>
</g>
<defs>
<filter id="filter0_d_2243_9788" x="6.90625" y="6.51746" width="30.9619" height="30.9657" filterUnits="userSpaceOnUse" color-interpolation-filters="sRGB">
<feFlood flood-opacity="0" result="BackgroundImageFix"/>
<feColorMatrix in="SourceAlpha" type="matrix" values="0 0 0 0 0 0 0 0 0 0 0 0 0 0 0 0 0 0 127 0" result="hardAlpha"/>
<feOffset/>
<feGaussianBlur stdDeviation="2"/>
<feComposite in2="hardAlpha" operator="out"/>
<feColorMatrix type="matrix" values="0 0 0 0 0.670588 0 0 0 0 0.113725 0 0 0 0 0.47451 0 0 0 1 0"/>
<feBlend mode="normal" in2="BackgroundImageFix" result="effect1_dropShadow_2243_9788"/>
<feBlend mode="normal" in="SourceGraphic" in2="effect1_dropShadow_2243_9788" result="shape"/>
</filter>
<filter id="filter1_d_2243_9788" x="1.74097" y="21.4841" width="42.3413" height="22.2145" filterUnits="userSpaceOnUse" color-interpolation-filters="sRGB">
<feFlood flood-opacity="0" result="BackgroundImageFix"/>
<feColorMatrix in="SourceAlpha" type="matrix" values="0 0 0 0 0 0 0 0 0 0 0 0 0 0 0 0 0 0 127 0" result="hardAlpha"/>
<feOffset/>
<feGaussianBlur stdDeviation="2"/>
<feComposite in2="hardAlpha" operator="out"/>
<feColorMatrix type="matrix" values="0 0 0 0 0.670588 0 0 0 0 0.113725 0 0 0 0 0.47451 0 0 0 1 0"/>
<feBlend mode="normal" in2="BackgroundImageFix" result="effect1_dropShadow_2243_9788"/>
<feBlend mode="normal" in="SourceGraphic" in2="effect1_dropShadow_2243_9788" result="shape"/>
</filter>
<filter id="filter2_d_2243_9788" x="0.687256" y="0.301636" width="42.3442" height="22.0492" filterUnits="userSpaceOnUse" color-interpolation-filters="sRGB">
<feFlood flood-opacity="0" result="BackgroundImageFix"/>
<feColorMatrix in="SourceAlpha" type="matrix" values="0 0 0 0 0 0 0 0 0 0 0 0 0 0 0 0 0 0 127 0" result="hardAlpha"/>
<feOffset/>
<feGaussianBlur stdDeviation="2"/>
<feComposite in2="hardAlpha" operator="out"/>
<feColorMatrix type="matrix" values="0 0 0 0 0.670588 0 0 0 0 0.113725 0 0 0 0 0.47451 0 0 0 1 0"/>
<feBlend mode="normal" in2="BackgroundImageFix" result="effect1_dropShadow_2243_9788"/>
<feBlend mode="normal" in="SourceGraphic" in2="effect1_dropShadow_2243_9788" result="shape"/>
</filter>
<filter id="filter3_d_2243_9788" x="15.2571" y="14.8456" width="14.2661" height="14.2819" filterUnits="userSpaceOnUse" color-interpolation-filters="sRGB">
<feFlood flood-opacity="0" result="BackgroundImageFix"/>
<feColorMatrix in="SourceAlpha" type="matrix" values="0 0 0 0 0 0 0 0 0 0 0 0 0 0 0 0 0 0 127 0" result="hardAlpha"/>
<feOffset/>
<feGaussianBlur stdDeviation="2"/>
<feComposite in2="hardAlpha" operator="out"/>
<feColorMatrix type="matrix" values="0 0 0 0 0.670588 0 0 0 0 0.113725 0 0 0 0 0.47451 0 0 0 1 0"/>
<feBlend mode="normal" in2="BackgroundImageFix" result="effect1_dropShadow_2243_9788"/>
<feBlend mode="normal" in="SourceGraphic" in2="effect1_dropShadow_2243_9788" result="shape"/>
</filter>
</defs>
</svg>
