<svg width="37" height="37" viewBox="0 0 37 37" fill="none" xmlns="http://www.w3.org/2000/svg">
<g id="documents-file 1" clip-path="url(#clip0_2243_9821)">
<g id="Vector" filter="url(#filter0_d_2243_9821)">
<path d="M8.43364 8.87147C8.49417 8.87119 8.5547 8.8709 8.61707 8.87061C8.68321 8.87102 8.74935 8.87144 8.81749 8.87187C8.88803 8.87175 8.95856 8.87163 9.03124 8.8715C9.26823 8.87126 9.50521 8.87205 9.7422 8.87284C9.91182 8.87288 10.0815 8.87285 10.2511 8.87277C10.7122 8.87273 11.1733 8.87358 11.6344 8.87458C12.0673 8.87545 12.5002 8.87553 12.9331 8.87567C13.7906 8.87599 14.648 8.87694 15.5054 8.8783C16.3383 8.87962 17.1713 8.88063 18.0042 8.88124C18.0555 8.88128 18.1069 8.88132 18.1598 8.88136C18.4173 8.88154 18.6749 8.88172 18.9324 8.8819C21.0692 8.88339 23.2059 8.88593 25.3427 8.88912C25.3206 8.95402 25.3206 8.95402 25.2981 9.02024C25.2692 9.10622 25.2692 9.10622 25.2396 9.19394C25.2204 9.25052 25.2013 9.3071 25.1816 9.3654C25.0953 9.6353 25.0468 9.86532 25.0471 10.1496C25.0469 10.2155 25.0468 10.2813 25.0467 10.3492C25.0469 10.4213 25.0471 10.4935 25.0473 10.5678C25.0473 10.6446 25.0472 10.7214 25.0472 10.8005C25.0471 11.0588 25.0475 11.3171 25.0479 11.5754C25.0479 11.7602 25.0479 11.945 25.0478 12.1299C25.0478 12.4767 25.0478 12.8236 25.048 13.1704C25.0484 13.8523 25.0478 14.5341 25.0468 15.2159C25.0467 15.3233 25.0465 15.4307 25.0464 15.538C25.0461 15.7554 25.0458 15.9728 25.0455 16.1902C25.0447 16.749 25.044 17.3079 25.0434 17.8667C25.0433 17.9508 25.0433 17.9508 25.0432 18.0367C25.0423 18.945 25.0426 19.8533 25.0434 20.7617C25.0442 21.6946 25.0433 22.6276 25.0409 23.5605C25.0396 24.1357 25.0395 24.7109 25.0411 25.2861C25.0422 25.7273 25.0411 26.1684 25.0391 26.6095C25.0386 26.7902 25.0389 26.9709 25.04 27.1517C25.0413 27.3987 25.04 27.6455 25.0381 27.8925C25.0391 27.9638 25.0401 28.0351 25.0412 28.1086C25.0329 28.6315 24.8687 28.9216 24.5537 29.3298C23.8243 30.6411 23.5896 32.1837 23.9576 33.6465C24.0826 34.051 24.2432 34.4363 24.4277 34.8173C24.482 34.9958 24.482 34.9958 24.433 35.1552C24.2779 35.3646 24.0809 35.4365 23.8365 35.4978C23.2647 35.5783 22.801 35.4792 22.3304 35.1392C21.9553 34.7452 21.8896 34.3737 21.8824 33.8488C21.88 33.7334 21.8777 33.6181 21.8753 33.5028C21.8719 33.3213 21.8687 33.1399 21.8659 32.9584C21.863 32.783 21.8593 32.6076 21.8555 32.4323C21.8546 32.3514 21.8546 32.3514 21.8537 32.2688C21.8469 31.9776 21.8269 31.7387 21.6849 31.4814C21.4171 31.3029 21.2094 31.3172 20.8993 31.318C20.8111 31.3174 20.8111 31.3174 20.7212 31.3167C20.5237 31.3155 20.3261 31.3153 20.1285 31.3151C19.9872 31.3144 19.8458 31.3137 19.7045 31.3129C19.3201 31.311 18.9357 31.3099 18.5514 31.3089C18.1499 31.3078 17.7485 31.3059 17.347 31.3041C16.5865 31.3007 15.826 31.2981 15.0655 31.2957C14.1998 31.293 13.3342 31.2894 12.4685 31.2858C10.6875 31.2784 8.90644 31.272 7.12541 31.2662C7.11884 28.5624 7.11379 25.8585 7.11076 23.1546C7.1104 22.8353 7.11003 22.5161 7.10965 22.1969C7.10958 22.1333 7.1095 22.0698 7.10942 22.0043C7.10818 20.9753 7.10591 19.9463 7.10328 18.9173C7.10059 17.8614 7.099 16.8056 7.09842 15.7497C7.09802 15.0982 7.09678 14.4467 7.09445 13.7952C7.09293 13.3484 7.09248 12.9016 7.09285 12.4548C7.09303 12.197 7.09275 11.9393 7.09121 11.6815C7.08955 11.4019 7.09013 11.1223 7.09091 10.8426C7.09008 10.7614 7.08924 10.6802 7.08838 10.5965C7.09225 10.0864 7.15278 9.66338 7.5161 9.28229C7.80126 9.03309 8.05265 8.87107 8.43364 8.87147ZM15.8186 10.8046C15.3419 11.401 14.7886 11.9102 14.0107 12.0449C13.4724 12.0947 13.0277 11.9238 12.5628 11.6683C12.3661 11.567 12.286 11.5428 12.0563 11.5383C11.8027 11.6363 11.7216 11.7479 11.5721 11.9731C11.5297 12.176 11.5297 12.176 11.5362 12.395C11.5355 12.4784 11.5348 12.5618 11.5341 12.6477C11.5349 12.7375 11.5357 12.8273 11.5366 12.9198C11.5365 13.0134 11.5364 13.1069 11.5363 13.2033C11.5362 13.4017 11.537 13.6001 11.5387 13.7985C11.5407 14.0489 11.5405 14.2992 11.5396 14.5496C11.5331 16.8965 11.8742 19.0079 13.5086 20.7949C13.5638 20.8559 13.619 20.9169 13.6759 20.9798C14.1214 21.4491 14.6151 21.8097 15.1582 22.1576C15.2113 22.1922 15.2643 22.2268 15.319 22.2625C15.4903 22.3737 15.6625 22.4833 15.8351 22.5924C15.8894 22.6275 15.9437 22.6627 15.9997 22.6989C16.4091 22.9537 16.4091 22.9537 16.8795 22.9465C17.1196 22.8356 17.3414 22.7012 17.5654 22.561C17.629 22.5218 17.6927 22.4826 17.7583 22.4423C19.8125 21.1593 21.0801 19.5246 21.6518 17.1668C21.7644 16.5774 21.7681 16 21.7687 15.4012C21.7689 15.303 21.7691 15.2048 21.7694 15.1066C21.7698 14.9019 21.7699 14.6972 21.7699 14.4925C21.7699 14.2304 21.7709 13.9684 21.7721 13.7063C21.7729 13.504 21.773 13.3017 21.773 13.0994C21.7731 12.9559 21.7739 12.8124 21.7747 12.6689C21.7745 12.5818 21.7743 12.4946 21.774 12.4048C21.7741 12.3282 21.7742 12.2516 21.7743 12.1726C21.7564 11.9713 21.7215 11.8551 21.6132 11.6863C21.4446 11.5599 21.3489 11.5423 21.138 11.5473C20.8536 11.6263 20.6142 11.7496 20.3555 11.8902C19.8573 12.1239 19.3443 12.0863 18.8362 11.9062C18.6031 11.7972 18.4129 11.6498 18.2156 11.4859C18.1038 11.3851 18.1038 11.3851 17.9554 11.3994C17.9274 11.3371 17.9274 11.3371 17.8988 11.2736C17.806 11.1016 17.701 10.9746 17.5699 10.8301C17.4222 10.6655 17.281 10.502 17.144 10.328C16.9889 10.1384 16.9207 10.1139 16.6778 10.0815C16.2689 10.1296 16.063 10.496 15.8186 10.8046ZM8.81531 24.3748C8.66633 24.5731 8.66633 24.5731 8.63156 24.8113C8.74336 25.1073 8.74336 25.1073 8.96345 25.3251C9.20477 25.4102 9.4385 25.4051 9.69121 25.4038C9.77598 25.4042 9.77598 25.4042 9.86247 25.4046C10.052 25.4053 10.2416 25.4051 10.4312 25.4048C10.567 25.4051 10.7028 25.4055 10.8387 25.4059C11.2078 25.4069 11.5769 25.4069 11.946 25.4067C12.254 25.4066 12.562 25.407 12.87 25.4073C13.5966 25.4081 14.3231 25.4082 15.0496 25.4077C15.7995 25.4073 16.5493 25.4082 17.2992 25.4097C17.9427 25.411 18.5863 25.4114 19.2298 25.4112C19.6143 25.411 19.9987 25.4112 20.3832 25.4122C20.7447 25.4131 21.1062 25.413 21.4677 25.412C21.6005 25.4119 21.7332 25.4121 21.8659 25.4127C22.047 25.4134 22.2281 25.4128 22.4092 25.4119C22.4618 25.4124 22.5144 25.413 22.5686 25.4135C22.8835 25.4102 23.0854 25.3659 23.3345 25.1699C23.4543 24.9718 23.4543 24.9718 23.4779 24.7396C23.3683 24.4293 23.3683 24.4293 23.1193 24.2375C22.9348 24.2301 22.7522 24.2269 22.5676 24.227C22.4812 24.2266 22.4812 24.2266 22.393 24.2262C22.1989 24.2254 22.0047 24.2251 21.8106 24.2248C21.6718 24.2244 21.5331 24.2239 21.3943 24.2234C21.0166 24.2222 20.6389 24.2214 20.2611 24.2208C20.0253 24.2204 19.7896 24.22 19.5538 24.2196C18.8166 24.2182 18.0794 24.2172 17.3422 24.2166C16.4902 24.2159 15.6382 24.214 14.7862 24.2111C14.1283 24.2089 13.4704 24.2079 12.8125 24.2076C12.4193 24.2075 12.026 24.2068 11.6328 24.205C11.263 24.2033 10.8932 24.203 10.5234 24.2038C10.3875 24.2038 10.2516 24.2034 10.1157 24.2024C9.93046 24.2011 9.74533 24.2016 9.5601 24.2026C9.50606 24.2018 9.45202 24.201 9.39634 24.2002C9.1462 24.2033 9.01491 24.2181 8.81531 24.3748ZM8.81531 28.176C8.66633 28.3743 8.66633 28.3743 8.63156 28.6125C8.74336 28.9085 8.74336 28.9085 8.96345 29.1263C9.20477 29.2114 9.4385 29.2063 9.69121 29.205C9.77598 29.2054 9.77598 29.2054 9.86247 29.2058C10.052 29.2066 10.2416 29.2063 10.4312 29.206C10.567 29.2063 10.7028 29.2067 10.8387 29.2071C11.2078 29.2081 11.5769 29.2081 11.946 29.2079C12.254 29.2079 12.562 29.2082 12.87 29.2086C13.5966 29.2094 14.3231 29.2094 15.0496 29.209C15.7995 29.2085 16.5493 29.2094 17.2992 29.2109C17.9427 29.2122 18.5863 29.2126 19.2298 29.2124C19.6143 29.2123 19.9987 29.2125 20.3832 29.2135C20.7447 29.2144 21.1062 29.2142 21.4677 29.2133C21.6005 29.2131 21.7332 29.2133 21.8659 29.2139C22.047 29.2146 22.2281 29.2141 22.4092 29.2132C22.4618 29.2137 22.5144 29.2142 22.5686 29.2148C22.8835 29.2114 23.0856 29.1675 23.3345 28.9712C23.4534 28.7697 23.4534 28.7697 23.4779 28.5408C23.3824 28.3308 23.2819 28.2014 23.1193 28.0388C22.9329 28.0243 22.7541 28.0188 22.5676 28.0196C22.51 28.0193 22.4524 28.0189 22.393 28.0186C22.1989 28.0177 22.0047 28.0178 21.8106 28.0179C21.6718 28.0175 21.5331 28.017 21.3943 28.0165C21.0166 28.0152 20.6389 28.0149 20.2611 28.0148C19.9462 28.0146 19.6312 28.0141 19.3163 28.0136C18.5734 28.0124 17.8305 28.0121 17.0876 28.0122C16.3205 28.0123 15.5534 28.0108 14.7862 28.0085C14.1283 28.0066 13.4704 28.0059 12.8125 28.0059C12.4193 28.006 12.026 28.0056 11.6328 28.0041C11.263 28.0027 10.8932 28.0027 10.5234 28.0037C10.3875 28.0039 10.2516 28.0035 10.1157 28.0026C9.93046 28.0015 9.74533 28.0022 9.5601 28.0033C9.50606 28.0026 9.45202 28.0018 9.39634 28.0011C9.14625 28.0044 9.01485 28.0194 8.81531 28.176Z" fill="#AB1D79"/>
</g>
<g id="Vector_2" filter="url(#filter1_d_2243_9821)">
<path d="M12.2447 3.56074C12.3283 3.56104 12.4119 3.56135 12.498 3.56166C12.7632 3.56286 13.0284 3.56556 13.2937 3.5683C13.4742 3.56938 13.6547 3.57036 13.8352 3.57124C14.2763 3.57361 14.7174 3.5772 15.1584 3.58175C15.1594 3.65091 15.1605 3.72006 15.1615 3.79131C15.1666 3.92722 15.1666 3.92722 15.1719 4.06587C15.1756 4.20067 15.1756 4.20067 15.1794 4.33819C15.2105 4.58583 15.2105 4.58583 15.356 4.7426C15.7222 4.94737 16.0814 4.91142 16.494 4.90758C16.5859 4.90786 16.6778 4.90813 16.7726 4.90841C17.0242 4.9091 17.2758 4.90801 17.5274 4.90655C17.7909 4.90529 18.0543 4.90554 18.3178 4.9056C18.7602 4.90546 19.2025 4.90422 19.6449 4.90226C20.1562 4.9 20.6676 4.89925 21.1789 4.89935C21.7235 4.89945 22.2681 4.89846 22.8128 4.89714C22.9696 4.89683 23.1265 4.89673 23.2833 4.89667C23.5756 4.8965 23.8678 4.89511 24.1601 4.89358C24.247 4.89364 24.3339 4.89371 24.4235 4.89377C24.5428 4.89285 24.5428 4.89285 24.6645 4.89192C24.7336 4.89168 24.8027 4.89144 24.8738 4.89119C25.0652 4.8718 25.1818 4.83301 25.3429 4.7293C25.4491 4.51689 25.4399 4.3108 25.455 4.07484C25.461 3.98294 25.467 3.89104 25.4732 3.79635C25.4775 3.72554 25.4819 3.65472 25.4863 3.58175C26.0159 3.57627 26.5454 3.57252 27.0749 3.56993C27.2549 3.56885 27.4349 3.56739 27.6148 3.56552C27.8742 3.56289 28.1336 3.56168 28.393 3.56074C28.5127 3.55907 28.5127 3.55907 28.6349 3.55737C29.3333 3.55722 29.8668 3.67161 30.383 4.15804C30.7542 4.58043 30.8745 5.05315 30.8743 5.60702C30.8744 5.68169 30.8746 5.75635 30.8747 5.83328C30.8745 5.91484 30.8743 5.9964 30.8741 6.08043C30.8742 6.21093 30.8742 6.21093 30.8743 6.34406C30.8744 6.5853 30.8741 6.82654 30.8738 7.06778C30.8735 7.32802 30.8736 7.58826 30.8736 7.84849C30.8737 8.29929 30.8734 8.75009 30.873 9.20089C30.8724 9.85268 30.8723 10.5045 30.8722 11.1562C30.872 12.2137 30.8715 13.2712 30.8709 14.3287C30.8702 15.3559 30.8697 16.3831 30.8694 17.4104C30.8694 17.5053 30.8694 17.5053 30.8693 17.6022C30.8692 17.9199 30.8691 18.2375 30.8691 18.5552C30.8683 21.1904 30.8671 23.8257 30.8654 26.4609C30.8035 26.4603 30.7416 26.4597 30.6778 26.459C30.4453 26.4569 30.2129 26.4554 29.9804 26.4543C29.8803 26.4537 29.7802 26.4529 29.6801 26.4518C28.9558 26.4444 28.3185 26.4735 27.638 26.7478C27.5298 26.7905 27.5298 26.7905 27.4194 26.8341C27.0534 26.9904 26.7167 27.1764 26.3871 27.3992C26.2753 27.465 26.2753 27.465 26.1318 27.465C26.1318 22.8497 26.1318 18.2345 26.1318 13.4793C27.9424 13.4438 27.9424 13.4438 29.7896 13.4076C30.0876 13.1372 30.0876 13.1372 30.1136 12.8044C30.115 12.7113 30.115 12.7113 30.1164 12.6164C30.1158 12.5497 30.1152 12.4831 30.1146 12.4144C30.115 12.3104 30.115 12.3104 30.1154 12.2042C30.1156 12.0573 30.1151 11.9104 30.1139 11.7635C30.1124 11.5409 30.1139 11.3184 30.1157 11.0958C30.117 10.146 30.0851 9.26414 29.3772 8.54679C28.9062 8.1107 28.4026 7.80563 27.7485 7.80338C27.6845 7.80298 27.6204 7.80259 27.5545 7.80219C27.4844 7.80212 27.4144 7.80205 27.3422 7.80197C27.2676 7.80162 27.1929 7.80127 27.116 7.8009C26.8652 7.7998 26.6143 7.7992 26.3634 7.7986C26.1839 7.79791 26.0044 7.79719 25.8249 7.79644C25.438 7.79491 25.0511 7.79358 24.6642 7.79246C24.1048 7.79083 23.5454 7.78881 22.9861 7.7867C22.0785 7.78328 21.171 7.78017 20.2634 7.77727C19.3818 7.77445 18.5002 7.77147 17.6185 7.7683C17.5642 7.76811 17.5099 7.76791 17.4539 7.76771C17.1813 7.76673 16.9087 7.76575 16.6361 7.76476C14.3744 7.75659 12.1127 7.74893 9.85103 7.7416C9.8421 7.35638 9.83563 6.97123 9.83133 6.58593C9.82954 6.45515 9.8271 6.32439 9.82398 6.19363C9.79039 4.7504 9.79039 4.7504 10.2096 4.22724C10.8136 3.64708 11.435 3.54952 12.2447 3.56074Z" fill="#AB1D79"/>
</g>
<g id="Vector_3" filter="url(#filter2_d_2243_9821)">
<path d="M32.229 28.2541C33.2452 29.0142 34.006 30.077 34.2372 31.3382C34.4224 32.6316 34.1877 33.8581 33.4527 34.9464C32.7044 35.9228 31.6686 36.6679 30.4359 36.8607C28.9965 36.9909 27.7043 36.7832 26.5641 35.8398C26.5164 35.798 26.4687 35.7562 26.4195 35.7132C26.3762 35.6758 26.333 35.6385 26.2884 35.6C25.5291 34.8955 24.972 33.8603 24.9018 32.8159C24.876 31.2882 25.105 30.0386 26.1897 28.9003C27.7797 27.3102 30.3343 27.0191 32.229 28.2541ZM30.2465 31.1028C30.1451 31.2062 30.0437 31.3095 29.9423 31.4127C29.7844 31.5736 29.6269 31.7348 29.4701 31.8967C29.3173 32.0543 29.1634 32.2107 29.0093 32.3669C28.9624 32.4159 28.9155 32.4649 28.8671 32.5154C28.8231 32.5597 28.779 32.6041 28.7336 32.6498C28.6952 32.6892 28.6568 32.7286 28.6172 32.7692C28.4994 32.8443 28.4994 32.8443 28.3517 32.8321C28.2125 32.7726 28.2125 32.7726 28.0467 32.5888C27.8648 32.3918 27.8648 32.3918 27.5984 32.3737C27.3515 32.3955 27.3515 32.3955 27.1815 32.535C27.0493 32.7233 26.9989 32.8292 26.9933 33.0595C27.1534 33.3848 27.3873 33.6162 27.6433 33.8664C27.6821 33.9052 27.721 33.944 27.7611 33.984C28.0421 34.269 28.0421 34.269 28.4139 34.3743C28.7101 34.3435 28.7975 34.25 29.0066 34.0413C29.0401 34.0084 29.0737 33.9755 29.1082 33.9416C29.2184 33.833 29.3269 33.7228 29.4355 33.6125C29.5118 33.5363 29.5882 33.4602 29.6646 33.3841C29.8245 33.2245 29.9837 33.0642 30.1422 32.9033C30.3453 32.6974 30.55 32.4933 30.7553 32.2898C30.9133 32.1328 31.0704 31.975 31.2273 31.8168C31.3024 31.7413 31.3778 31.666 31.4535 31.5909C31.5593 31.4857 31.6639 31.3794 31.7682 31.2727C31.8279 31.2125 31.8876 31.1523 31.9491 31.0903C32.1067 30.8795 32.1409 30.7381 32.1572 30.4775C32.0769 30.2365 32.0177 30.1932 31.7986 30.0472C31.166 29.9148 30.6466 30.6899 30.2465 31.1028Z" fill="#AB1D79"/>
</g>
<g id="Vector_4" filter="url(#filter3_d_2243_9821)">
<path d="M16.5911 11.6145C16.8571 11.7239 17.0077 11.884 17.2008 12.0941C17.8438 12.7476 18.6418 13.1854 19.572 13.2148C19.8104 13.2044 20.0353 13.1677 20.2688 13.1193C20.3325 13.1061 20.3962 13.093 20.4618 13.0795C20.5099 13.0694 20.558 13.0593 20.6075 13.0489C20.613 13.531 20.6168 14.0131 20.6193 14.4953C20.6204 14.6589 20.6219 14.8225 20.6238 14.986C20.6456 16.944 20.293 18.5722 18.9579 20.0776C18.9147 20.1278 18.8714 20.1779 18.8268 20.2295C18.4228 20.6669 17.9296 20.973 17.4303 21.2899C17.3264 21.3569 17.2249 21.4276 17.124 21.4989C16.9766 21.6017 16.9766 21.6017 16.7346 21.7272C15.534 21.4249 14.2899 20.1352 13.6505 19.1453C12.798 17.6681 12.695 16.2251 12.7092 14.5641C12.7099 14.4166 12.7106 14.2691 12.7111 14.1217C12.7127 13.7641 12.7152 13.4065 12.7182 13.0489C12.7718 13.059 12.8254 13.0691 12.8806 13.0795C12.9513 13.0926 13.0219 13.1057 13.0947 13.1193C13.1646 13.1323 13.2345 13.1454 13.3065 13.1588C14.1567 13.3011 14.9552 13.0281 15.6587 12.5469C16.1922 12.1366 16.1922 12.1366 16.5911 11.6145ZM16.6987 16.2361C16.6184 16.3167 16.5381 16.3974 16.4578 16.478C16.2629 16.6736 16.0684 16.8694 15.8739 17.0653C15.6694 16.9714 15.5521 16.89 15.3808 16.7336C15.1729 16.5501 15.1729 16.5501 14.937 16.5185C14.648 16.58 14.5421 16.686 14.3677 16.9219C14.3091 17.1202 14.3091 17.1202 14.3677 17.3522C14.5273 17.5746 14.7179 17.759 14.9146 17.9484C14.9913 18.0267 14.9913 18.0267 15.0696 18.1066C15.2854 18.319 15.4571 18.477 15.7411 18.588C16.2417 18.5476 16.6125 18.068 16.9464 17.7307C16.9995 17.6775 17.0527 17.6243 17.1075 17.5695C17.2193 17.4575 17.3309 17.3453 17.4424 17.2329C17.6132 17.0608 17.7846 16.8893 17.9561 16.7178C18.0648 16.6087 18.1735 16.4996 18.2822 16.3904C18.3334 16.3391 18.3847 16.2878 18.4375 16.2349C18.4849 16.187 18.5323 16.1391 18.5812 16.0898C18.6229 16.0478 18.6646 16.0058 18.7076 15.9626C18.887 15.7671 18.9557 15.6511 18.9848 15.3844C18.9774 15.1305 18.9774 15.1305 18.8459 14.954C18.0585 14.4493 17.211 15.7197 16.6987 16.2361Z" fill="#AB1D79"/>
</g>
<g id="Vector_5" filter="url(#filter4_d_2243_9821)">
<path d="M7.12207 32.4141C11.5953 32.4141 16.0686 32.4141 20.6774 32.4141C20.7011 32.9821 20.7248 33.5501 20.7492 34.1354C20.8517 34.662 20.9675 35.0033 21.1795 35.4981C16.5405 35.4981 11.9016 35.4981 7.12207 35.4981C7.12207 34.4804 7.12207 33.4626 7.12207 32.4141Z" fill="#AB1D79"/>
</g>
<g id="Vector_6" filter="url(#filter5_d_2243_9821)">
<path d="M20.9849 0.186155C21.4188 0.413377 21.7503 0.825758 21.8985 1.28691C21.9241 1.52475 21.9345 1.76101 21.9455 1.99993C21.9695 2.21312 21.9863 2.33496 22.1136 2.50618C22.3923 2.66186 22.6507 2.66757 22.9653 2.67652C23.395 2.7039 23.6457 2.73212 23.9784 3.00823C24.1773 3.2612 24.337 3.46942 24.337 3.79717C21.6862 3.79717 19.0354 3.79717 16.3042 3.79717C16.5501 3.05946 16.5501 3.05946 16.9497 2.79307C17.2656 2.68776 17.5835 2.6973 17.9149 2.6838C18.1876 2.64711 18.3671 2.58093 18.5993 2.43446C18.6763 2.20342 18.6835 2.01833 18.6934 1.77552C18.7354 1.21208 18.8564 0.850748 19.2806 0.47108C19.7714 0.0717592 20.3733 0.00976107 20.9849 0.186155Z" fill="#AB1D79"/>
</g>
<g id="Vector_7" filter="url(#filter6_d_2243_9821)">
<path d="M28.3732 9.085C28.6863 9.31165 28.8848 9.596 29.001 9.96499C29.0128 10.152 29.0178 10.3311 29.0151 10.5177C29.0149 10.5639 29.0148 10.6101 29.0146 10.6576C29.0139 10.8287 29.0119 10.9998 29.01 11.1708C29.007 11.5539 29.0041 11.9371 29.001 12.3318C28.0543 12.3318 27.1076 12.3318 26.1322 12.3318C26.1248 11.9413 26.1174 11.5507 26.1098 11.1484C26.1049 10.9653 26.1049 10.9653 26.0999 10.7784C26.0849 9.81794 26.0849 9.81794 26.3956 9.41751C26.9477 8.84892 27.6638 8.67944 28.3732 9.085Z" fill="#AB1D79"/>
</g>
<g id="Vector_8" filter="url(#filter7_d_2243_9821)">
<path d="M2.46069 32.4141C3.62043 32.4141 4.78017 32.4141 5.97505 32.4141C5.97505 33.4318 5.97505 34.4495 5.97505 35.4981C4.83125 35.3837 3.93515 35.0092 3.17847 34.1169C2.78029 33.5731 2.6074 33.0742 2.46069 32.4141Z" fill="#AB1D79"/>
</g>
</g>
<defs>
<filter id="filter0_d_2243_9821" x="3.08838" y="4.87061" width="26.2544" height="34.6536" filterUnits="userSpaceOnUse" color-interpolation-filters="sRGB">
<feFlood flood-opacity="0" result="BackgroundImageFix"/>
<feColorMatrix in="SourceAlpha" type="matrix" values="0 0 0 0 0 0 0 0 0 0 0 0 0 0 0 0 0 0 127 0" result="hardAlpha"/>
<feOffset/>
<feGaussianBlur stdDeviation="2"/>
<feComposite in2="hardAlpha" operator="out"/>
<feColorMatrix type="matrix" values="0 0 0 0 0.670588 0 0 0 0 0.113725 0 0 0 0 0.47451 0 0 0 0.73 0"/>
<feBlend mode="normal" in2="BackgroundImageFix" result="effect1_dropShadow_2243_9821"/>
<feBlend mode="normal" in="SourceGraphic" in2="effect1_dropShadow_2243_9821" result="shape"/>
</filter>
<filter id="filter1_d_2243_9821" x="5.81079" y="-0.442627" width="29.064" height="31.9077" filterUnits="userSpaceOnUse" color-interpolation-filters="sRGB">
<feFlood flood-opacity="0" result="BackgroundImageFix"/>
<feColorMatrix in="SourceAlpha" type="matrix" values="0 0 0 0 0 0 0 0 0 0 0 0 0 0 0 0 0 0 127 0" result="hardAlpha"/>
<feOffset/>
<feGaussianBlur stdDeviation="2"/>
<feComposite in2="hardAlpha" operator="out"/>
<feColorMatrix type="matrix" values="0 0 0 0 0.670588 0 0 0 0 0.113725 0 0 0 0 0.47451 0 0 0 0.73 0"/>
<feBlend mode="normal" in2="BackgroundImageFix" result="effect1_dropShadow_2243_9821"/>
<feBlend mode="normal" in="SourceGraphic" in2="effect1_dropShadow_2243_9821" result="shape"/>
</filter>
<filter id="filter2_d_2243_9821" x="20.8999" y="23.4888" width="17.3977" height="17.4072" filterUnits="userSpaceOnUse" color-interpolation-filters="sRGB">
<feFlood flood-opacity="0" result="BackgroundImageFix"/>
<feColorMatrix in="SourceAlpha" type="matrix" values="0 0 0 0 0 0 0 0 0 0 0 0 0 0 0 0 0 0 127 0" result="hardAlpha"/>
<feOffset/>
<feGaussianBlur stdDeviation="2"/>
<feComposite in2="hardAlpha" operator="out"/>
<feColorMatrix type="matrix" values="0 0 0 0 0.670588 0 0 0 0 0.113725 0 0 0 0 0.47451 0 0 0 0.73 0"/>
<feBlend mode="normal" in2="BackgroundImageFix" result="effect1_dropShadow_2243_9821"/>
<feBlend mode="normal" in="SourceGraphic" in2="effect1_dropShadow_2243_9821" result="shape"/>
</filter>
<filter id="filter3_d_2243_9821" x="8.70801" y="7.6145" width="15.9167" height="18.1128" filterUnits="userSpaceOnUse" color-interpolation-filters="sRGB">
<feFlood flood-opacity="0" result="BackgroundImageFix"/>
<feColorMatrix in="SourceAlpha" type="matrix" values="0 0 0 0 0 0 0 0 0 0 0 0 0 0 0 0 0 0 127 0" result="hardAlpha"/>
<feOffset/>
<feGaussianBlur stdDeviation="2"/>
<feComposite in2="hardAlpha" operator="out"/>
<feColorMatrix type="matrix" values="0 0 0 0 0.670588 0 0 0 0 0.113725 0 0 0 0 0.47451 0 0 0 0.73 0"/>
<feBlend mode="normal" in2="BackgroundImageFix" result="effect1_dropShadow_2243_9821"/>
<feBlend mode="normal" in="SourceGraphic" in2="effect1_dropShadow_2243_9821" result="shape"/>
</filter>
<filter id="filter4_d_2243_9821" x="3.12207" y="28.4141" width="22.0574" height="11.084" filterUnits="userSpaceOnUse" color-interpolation-filters="sRGB">
<feFlood flood-opacity="0" result="BackgroundImageFix"/>
<feColorMatrix in="SourceAlpha" type="matrix" values="0 0 0 0 0 0 0 0 0 0 0 0 0 0 0 0 0 0 127 0" result="hardAlpha"/>
<feOffset/>
<feGaussianBlur stdDeviation="2"/>
<feComposite in2="hardAlpha" operator="out"/>
<feColorMatrix type="matrix" values="0 0 0 0 0.670588 0 0 0 0 0.113725 0 0 0 0 0.47451 0 0 0 0.73 0"/>
<feBlend mode="normal" in2="BackgroundImageFix" result="effect1_dropShadow_2243_9821"/>
<feBlend mode="normal" in="SourceGraphic" in2="effect1_dropShadow_2243_9821" result="shape"/>
</filter>
<filter id="filter5_d_2243_9821" x="12.3042" y="-3.90723" width="16.0327" height="11.7043" filterUnits="userSpaceOnUse" color-interpolation-filters="sRGB">
<feFlood flood-opacity="0" result="BackgroundImageFix"/>
<feColorMatrix in="SourceAlpha" type="matrix" values="0 0 0 0 0 0 0 0 0 0 0 0 0 0 0 0 0 0 127 0" result="hardAlpha"/>
<feOffset/>
<feGaussianBlur stdDeviation="2"/>
<feComposite in2="hardAlpha" operator="out"/>
<feColorMatrix type="matrix" values="0 0 0 0 0.670588 0 0 0 0 0.113725 0 0 0 0 0.47451 0 0 0 0.73 0"/>
<feBlend mode="normal" in2="BackgroundImageFix" result="effect1_dropShadow_2243_9821"/>
<feBlend mode="normal" in="SourceGraphic" in2="effect1_dropShadow_2243_9821" result="shape"/>
</filter>
<filter id="filter6_d_2243_9821" x="22.095" y="4.86206" width="10.9209" height="11.4697" filterUnits="userSpaceOnUse" color-interpolation-filters="sRGB">
<feFlood flood-opacity="0" result="BackgroundImageFix"/>
<feColorMatrix in="SourceAlpha" type="matrix" values="0 0 0 0 0 0 0 0 0 0 0 0 0 0 0 0 0 0 127 0" result="hardAlpha"/>
<feOffset/>
<feGaussianBlur stdDeviation="2"/>
<feComposite in2="hardAlpha" operator="out"/>
<feColorMatrix type="matrix" values="0 0 0 0 0.670588 0 0 0 0 0.113725 0 0 0 0 0.47451 0 0 0 0.73 0"/>
<feBlend mode="normal" in2="BackgroundImageFix" result="effect1_dropShadow_2243_9821"/>
<feBlend mode="normal" in="SourceGraphic" in2="effect1_dropShadow_2243_9821" result="shape"/>
</filter>
<filter id="filter7_d_2243_9821" x="-1.53931" y="28.4141" width="11.5144" height="11.084" filterUnits="userSpaceOnUse" color-interpolation-filters="sRGB">
<feFlood flood-opacity="0" result="BackgroundImageFix"/>
<feColorMatrix in="SourceAlpha" type="matrix" values="0 0 0 0 0 0 0 0 0 0 0 0 0 0 0 0 0 0 127 0" result="hardAlpha"/>
<feOffset/>
<feGaussianBlur stdDeviation="2"/>
<feComposite in2="hardAlpha" operator="out"/>
<feColorMatrix type="matrix" values="0 0 0 0 0.670588 0 0 0 0 0.113725 0 0 0 0 0.47451 0 0 0 0.73 0"/>
<feBlend mode="normal" in2="BackgroundImageFix" result="effect1_dropShadow_2243_9821"/>
<feBlend mode="normal" in="SourceGraphic" in2="effect1_dropShadow_2243_9821" result="shape"/>
</filter>
<clipPath id="clip0_2243_9821">
<rect width="36.7214" height="36.7214" fill="white" transform="translate(0.0253906 0.13916)"/>
</clipPath>
</defs>
</svg>
