<svg width="294" height="72" viewBox="0 0 294 72" fill="none" xmlns="http://www.w3.org/2000/svg">
<g filter="url(#filter0_d_389_20839)">
<path d="M58.9013 16.0313C58.9013 20.7466 55.6699 25.5443 49.207 30.4244V32.2544C49.207 39.4757 47.6243 45.2296 44.4588 49.5162C40.8976 54.2974 35.6383 56.688 28.6809 56.688C22.3499 56.688 17.1565 54.5777 13.1008 50.357C9.04499 46.1034 7.0171 40.7946 7.0171 34.4307C7.0171 28.8911 8.81417 24.1264 12.4083 20.1366C16.0024 16.1467 20.5693 13.8056 26.1089 13.1132C29.5052 8.5298 33.3961 6.23812 37.7816 6.23812C41.7385 6.23812 45.5469 8.13411 49.207 11.9261L48.564 12.5196C44.9369 8.85954 41.3922 7.02949 37.93 7.02949C35.7537 7.02949 33.7094 7.60653 31.7969 8.76062C29.9174 9.9147 28.4171 11.448 27.296 13.3605C27.5598 13.1956 27.873 13.1132 28.2357 13.1132C32.5553 13.1132 36.1989 14.6629 39.1665 17.7625C42.1342 20.895 43.618 24.621 43.618 28.9406C43.618 29.4352 43.6015 29.9298 43.5685 30.4244C43.5685 30.919 43.552 31.3971 43.519 31.8587C43.6509 31.8258 44.1126 31.6774 44.9039 31.4136C45.0029 31.4136 45.0523 31.3476 45.0523 31.2157C47.0637 18.0592 50.5425 11.481 55.4885 11.481C56.5767 11.481 57.4505 11.9756 58.1099 12.9648C58.6375 13.7891 58.9013 14.8113 58.9013 16.0313ZM57.467 15.0916C57.467 13.245 56.8075 12.3218 55.4885 12.3218C53.1144 12.3218 51.3833 14.7124 50.2952 19.4936C49.9984 20.8455 49.7511 22.3293 49.5532 23.945C49.3884 25.5607 49.273 27.3413 49.207 29.2868C54.7136 24.7694 57.467 20.0376 57.467 15.0916ZM42.6782 28.4954C42.6782 24.4396 41.2603 21.0433 38.4246 18.3065C35.5889 15.5367 32.1431 14.1518 28.0873 14.1518H26.7024C25.6802 16.0973 25.1692 17.9933 25.1692 19.8398C25.1692 23.5988 26.5376 26.6654 29.2744 29.0395C31.8793 31.3147 35.1107 32.4523 38.9687 32.4523C40.1887 32.4523 41.2768 32.3039 42.2331 32.0071C42.5298 30.9849 42.6782 29.8144 42.6782 28.4954ZM45.0523 32.2544C44.6896 32.3533 44.0961 32.5512 43.2717 32.8479C41.0955 40.9925 36.4297 45.0647 29.2744 45.0647C25.977 45.0647 23.2072 44.0425 20.965 41.9982C18.7558 39.9208 17.6511 37.2499 17.6511 33.9855C17.6511 32.5347 17.9644 31.2487 18.5909 30.1276L19.1844 30.4244C18.7887 32.0071 18.5909 33.1942 18.5909 33.9855C18.5909 36.7224 19.5471 39.0965 21.4596 41.1079C23.3721 43.1193 25.7132 44.125 28.483 44.125C31.7144 44.125 34.5502 43.0368 36.9902 40.8606C39.1335 38.9481 40.8317 36.3432 42.0847 33.0458C41.5241 33.1117 40.9636 33.1612 40.403 33.1942C39.8425 33.2271 39.2819 33.2436 38.7214 33.2436C34.7645 33.2436 31.3682 32.0236 28.5325 29.5835C25.5978 27.0116 24.1305 23.7637 24.1305 19.8398C24.1305 18.1252 24.5591 16.2786 25.4165 14.3002C20.4704 15.1246 16.3487 17.5646 13.0513 21.6204C9.78689 25.6432 8.15469 30.1771 8.15469 35.2221C8.15469 40.6957 9.91879 45.4439 13.447 49.4667C17.173 53.5884 21.7234 55.6493 27.0981 55.6493C32.9015 55.6493 37.3035 53.0609 40.3041 47.884C42.2825 44.4877 43.8653 39.2778 45.0523 32.2544ZM76.2894 38.0908C76.2894 39.08 75.5805 40.5308 74.1626 42.4433C69.7771 48.5105 65.2762 51.5441 60.6599 51.5441C58.8463 51.5441 57.4284 50.9835 56.4063 49.8624C55.3841 48.7083 54.873 47.2245 54.873 45.4109C54.873 42.872 55.9116 40.333 57.989 37.794C60.1653 35.1561 62.5229 33.8372 65.0619 33.8372C66.15 33.8372 67.1062 34.1339 67.9306 34.7274C68.7549 35.321 69.1671 36.1453 69.1671 37.2005C69.1671 39.2119 67.7987 41.1079 65.0619 42.8885C63.1494 44.1744 60.8907 45.2131 58.2858 46.0045C58.2858 48.8072 59.5058 50.2086 61.9458 50.2086C64.4518 50.2086 67.2052 48.6094 70.2058 45.4109C71.228 44.3558 72.2337 43.1687 73.2229 41.8498C74.2121 40.5308 75.1848 39.08 76.141 37.4972C76.24 37.794 76.2894 37.9919 76.2894 38.0908ZM66.2489 36.9532C66.2489 35.6672 65.7049 35.0242 64.6167 35.0242C62.9351 35.0242 61.4512 36.3102 60.1653 38.8821C59.209 40.8276 58.5825 42.8225 58.2858 44.8669C60.3961 44.3723 62.1767 43.4655 63.6275 42.1465C65.3751 40.5968 66.2489 38.8657 66.2489 36.9532ZM93.9229 38.1897C93.9229 38.9811 93.3788 40.1681 92.2907 41.7509C87.7733 48.2797 83.1405 51.5441 78.3923 51.5441C76.5787 51.5441 75.1114 50.9835 73.9903 49.8624C72.8692 48.7083 72.3086 47.2245 72.3086 45.4109C72.3086 42.839 73.3638 40.3495 75.4741 37.9424C77.9142 35.2056 80.4202 33.8372 82.9921 33.8372C84.1132 33.8372 85.0365 34.1009 85.7619 34.6285C86.6192 35.2221 87.0479 36.0464 87.0479 37.1016C87.0479 37.9589 86.7346 38.6678 86.1081 39.2284C85.4816 39.7889 84.7397 40.0692 83.8824 40.0692C83.2229 40.0692 82.7283 39.8219 82.3986 39.3273C83.6186 38.7997 84.2286 37.9589 84.2286 36.8048C84.2286 35.5848 83.7011 34.9748 82.6459 34.9748C81.3929 34.9748 80.1564 35.7661 78.9363 37.3489C78.0131 38.6019 77.2877 39.9538 76.7601 41.4046C76.1336 42.9874 75.8203 44.4712 75.8203 45.8561C75.8203 48.7578 77.1228 50.2086 79.7277 50.2086C83.9154 50.2086 88.6141 46.0045 93.824 37.5962C93.8899 37.794 93.9229 37.9919 93.9229 38.1897ZM114.718 37.794C114.718 38.4865 114.009 39.7889 112.592 41.7014C111.635 43.0204 110.778 44.1415 110.02 45.0647C109.261 45.955 108.602 46.6804 108.041 47.241C106.689 48.527 105.585 49.17 104.727 49.17C104.002 49.17 103.375 48.8732 102.848 48.2797C100.639 50.4889 98.3634 51.5935 96.0223 51.5935C94.1098 51.5935 92.593 51.033 91.4719 49.9119C90.3508 48.7908 89.7902 47.274 89.7902 45.3615C89.7902 42.6247 90.9443 40.0362 93.2525 37.5962C95.5607 35.0902 98.0667 33.8372 100.771 33.8372C102.419 33.8372 103.771 34.4637 104.826 35.7167C105.848 36.9367 106.36 38.4205 106.36 40.1681C106.36 41.9157 105.717 43.9436 104.431 46.2518C104.595 46.9113 105.008 47.241 105.667 47.241C106.426 47.241 107.514 46.3837 108.932 44.669C109.525 43.9766 110.283 43.0204 111.207 41.8003C112.163 40.5473 113.284 39.014 114.57 37.2005C114.669 37.6951 114.718 37.8929 114.718 37.794ZM103.788 38.3381C103.359 36.0299 102.287 34.8758 100.573 34.8758C99.3526 34.8758 98.1161 35.6013 96.8631 37.0521C95.9728 38.0743 95.2144 39.3438 94.5879 40.8606C93.7966 42.7401 93.4009 44.5371 93.4009 46.2518C93.4009 49.1205 94.4395 50.5549 96.5169 50.5549C98.1326 50.5549 99.8637 49.17 101.71 46.4002C101.512 45.8726 101.413 45.2626 101.413 44.5701C101.413 42.5587 102.205 40.4814 103.788 38.3381ZM136.825 38.3381C136.825 39.0305 135.621 40.9265 133.214 44.0261C129.455 48.8732 126.669 51.2968 124.855 51.2968C124.031 51.2968 123.355 51.0165 122.827 50.4559C122.3 49.8624 122.036 49.137 122.036 48.2797C122.036 47.4883 122.728 45.0317 124.113 40.91C124.971 38.3381 125.399 36.9697 125.399 36.8048C125.399 36.3102 125.119 36.0629 124.558 36.0629C123.272 36.0629 120.964 38.4205 117.634 43.1358C116.777 44.3558 116.051 45.4604 115.458 46.4496C114.897 47.4059 114.452 48.2632 114.122 49.0216C113.825 49.78 113.661 50.1757 113.628 50.2086C113.364 50.6043 113.051 50.8516 112.688 50.9505L110.858 51.1484H110.66C110.363 51.1484 110.215 51.033 110.215 50.8022C110.215 50.4724 110.231 50.2746 110.264 50.2086L114.666 35.8156C115.029 35.0572 115.425 34.6285 115.853 34.5296L117.535 34.1339C117.568 34.1009 117.7 34.0845 117.931 34.0845C118.161 34.0845 118.277 34.2328 118.277 34.5296C118.277 34.5296 118.244 34.6285 118.178 34.8264L114.815 45.5099C119.827 37.827 123.52 33.9855 125.894 33.9855C126.685 33.9855 127.328 34.2658 127.823 34.8264C128.35 35.354 128.614 36.0134 128.614 36.8048C128.614 37.794 128.202 39.4262 127.378 41.7014C125.993 45.6583 125.3 47.9005 125.3 48.428C125.3 48.9556 125.614 49.2194 126.24 49.2194C127.691 49.2194 131.17 45.3615 136.676 37.6456C136.742 37.8764 136.775 38.0578 136.775 38.1897C136.808 38.2886 136.825 38.3381 136.825 38.3381ZM156.813 38.4865C156.813 39.1789 155.692 41.0419 153.45 44.0755C152.46 45.3945 151.587 46.5156 150.828 47.4388C150.103 48.3291 149.493 49.0051 148.998 49.4667C147.58 50.7857 146.245 51.4451 144.992 51.4451C143.376 51.4451 142.568 50.7032 142.568 49.2194C142.568 48.2962 142.947 46.6475 143.706 44.2734C140.969 49.0216 138.578 51.3957 136.534 51.3957C135.149 51.3957 134.094 50.9011 133.369 49.9119C132.775 48.9886 132.478 47.818 132.478 46.4002C132.478 43.2677 133.781 40.3495 136.386 37.6456C138.727 35.2056 141.117 33.9855 143.557 33.9855C144.085 33.9855 144.942 34.2164 146.129 34.678L149.691 20.829C149.789 20.4333 149.888 20.1695 149.987 20.0376C150.086 19.8728 150.284 19.7574 150.581 19.6914L152.559 19.4936C152.856 19.4936 153.004 19.642 153.004 19.9387C153.004 20.0047 152.988 20.1036 152.955 20.2355C152.922 20.3674 152.905 20.4663 152.905 20.5322L145.882 46.598C145.651 47.3894 145.536 48.0324 145.536 48.527C145.536 49.3843 145.8 49.8129 146.327 49.8129C146.987 49.8129 148.19 48.7908 149.938 46.7464C151.554 44.8669 153.796 41.8828 156.665 37.794C156.763 38.0908 156.813 38.3216 156.813 38.4865ZM145.734 36.3597C145.173 35.5683 144.547 35.1726 143.854 35.1726C142.799 35.1726 141.48 36.1288 139.897 38.0413C136.996 41.5365 135.545 44.702 135.545 47.5378C135.545 49.0545 136.105 49.8129 137.226 49.8129C138.875 49.8129 140.656 47.917 142.568 44.125C143.228 42.872 143.821 41.6025 144.349 40.3165C144.876 38.9976 145.338 37.6786 145.734 36.3597ZM240.811 15.8335C240.811 16.3611 240.597 16.8557 240.168 17.3173C239.739 17.746 239.261 17.9603 238.734 17.9603C238.239 17.9603 237.827 17.7295 237.497 17.2678C237.167 16.8062 237.002 16.3281 237.002 15.8335V15.0421C237.002 13.8551 236.491 13.2615 235.469 13.2615C233.293 13.2615 231.1 15.5367 228.891 20.0871C227.605 22.725 226.418 25.9235 225.33 29.6825L224.984 30.8695C226.797 31.0344 228.479 31.9247 230.029 33.5404L229.138 34.1339C227.918 32.6171 226.599 31.8587 225.181 31.8587H224.736C224.505 32.4523 224.39 32.8315 224.39 32.9963C224.225 33.5569 224.077 34.0845 223.945 34.5791C223.813 35.0737 223.698 35.5353 223.599 35.964C223.599 36.5245 223.186 38.2886 222.362 41.2563C221.208 45.5758 220.631 49.0051 220.631 51.5441C220.631 55.8966 221.67 58.0729 223.747 58.0729C226.055 58.0729 227.737 56.2428 228.792 52.5827L229.682 52.7806C229.287 54.3963 228.644 55.7482 227.753 56.8364C226.698 58.1883 225.429 58.8642 223.945 58.8642C221.703 58.8642 219.939 57.6112 218.653 55.1052C217.597 53.0609 217.07 50.8186 217.07 48.3786C217.07 44.2898 217.927 39.4262 219.642 33.7877L220.087 32.3039L214.646 33.5404L214.35 35.3704C212.074 49.4173 204.985 56.4407 193.081 56.4407C187.014 56.4407 181.969 54.2314 177.946 49.8129C174.089 45.5264 172.16 40.3 172.16 34.1339C172.16 28.3965 173.94 23.6153 177.501 19.7903C180.997 16.0973 185.629 13.8551 191.4 13.0637C192.851 11.6128 194.203 10.5742 195.456 9.94767C196.939 9.2882 198.605 8.95846 200.451 8.95846C202.298 8.95846 204.227 9.51901 206.238 10.6401L209.502 12.4702C211.811 13.7891 213.987 14.4486 216.031 14.4486C217.449 14.4486 219.477 13.9045 222.115 12.8164C223.797 12.1239 225.148 11.7777 226.171 11.7777H226.566V12.6185H226.171C222.807 12.6185 220.12 14.9927 218.109 19.7409C217.185 21.8512 216.147 25.6267 214.993 31.0674L214.844 32.749L220.285 31.2652C221.604 26.8137 223.467 22.8074 225.874 19.2463C229.105 14.4321 232.518 12.025 236.112 12.025C237.299 12.025 238.354 12.3548 239.278 13.0142C240.3 13.7067 240.811 14.6464 240.811 15.8335ZM220.087 14.6464C217.977 15.174 216.509 15.4378 215.685 15.4378C213.871 15.4378 212.223 15.1245 210.739 14.498C210.277 14.3002 209.667 14.0034 208.909 13.6078C208.183 13.1791 207.31 12.6515 206.287 12.025C204.012 10.6401 201.984 9.94767 200.204 9.94767C197.005 9.94767 194.499 10.9863 192.686 13.0637H193.675C198.028 13.0637 201.655 14.6135 204.556 17.713C207.458 20.7466 208.909 24.4726 208.909 28.8911C208.909 30.5728 208.727 32.0566 208.365 33.3426H210.343L211.135 31.0674C211.794 29.1549 212.289 27.6876 212.618 26.6654C212.948 25.6102 213.129 24.9837 213.162 24.7859C214.448 20.7631 216.757 17.3833 220.087 14.6464ZM207.92 28.4459C207.92 24.2913 206.518 20.829 203.715 18.0592C200.946 15.2564 197.483 13.8551 193.329 13.8551H191.845C189.932 16.46 188.976 19.2957 188.976 22.3623C188.976 25.198 189.817 27.7205 191.499 29.9298C193.312 32.3369 195.587 33.5404 198.324 33.5404C200.83 33.5404 202.809 32.7161 204.26 31.0674C204.095 30.6387 204.012 30.243 204.012 29.8803C204.012 28.6603 204.358 28.0503 205.051 28.0503C205.579 28.0503 205.842 28.5119 205.842 29.4352C205.842 29.9298 205.644 30.4738 205.249 31.0674C205.48 31.8258 206.172 32.4687 207.326 32.9963C207.722 31.7104 207.92 30.1936 207.92 28.4459ZM210.096 34.1339H208.117C207.128 37.4313 205.48 40.0197 203.171 41.8992C200.764 43.9106 197.879 44.9163 194.516 44.9163C191.152 44.9163 188.383 43.8282 186.206 41.6519C184.03 39.4757 182.942 36.7059 182.942 33.3426C182.942 32.0236 183.123 30.8695 183.486 29.8803L184.08 30.0287C183.948 31.2817 183.849 32.205 183.783 32.7985C183.75 33.392 183.733 33.6393 183.733 33.5404C183.733 36.4091 184.723 38.8492 186.701 40.8606C188.679 42.872 191.087 43.8777 193.922 43.8777C196.692 43.8777 199.346 42.8555 201.885 40.8111C204.26 38.8657 205.925 36.5245 206.881 33.7877C206.024 33.359 205.265 32.7161 204.606 31.8587C203.023 33.5404 200.929 34.3812 198.324 34.3812C195.357 34.3812 192.884 33.0952 190.905 30.5233C189.092 28.1162 188.185 25.3959 188.185 22.3623C188.185 19.1638 189.075 16.394 190.856 14.0529C185.613 15.0421 181.392 17.4822 178.194 21.3731C174.995 25.264 173.396 29.8638 173.396 35.1726C173.396 40.5473 175.144 45.2296 178.639 49.2194C182.266 53.3411 186.718 55.402 191.993 55.402C196.478 55.402 200.27 53.2092 203.369 48.8237C205.051 46.4166 207.029 42.2125 209.305 36.2113L210.096 34.1339ZM257.432 38.3875C257.432 38.9481 256.838 40.0197 255.651 41.6025C254.2 43.515 252.997 45.0812 252.04 46.3012C251.117 47.4883 250.425 48.3291 249.963 48.8237C248.347 50.5384 246.847 51.3957 245.462 51.3957C243.846 51.3957 243.039 50.5878 243.039 48.9721C243.039 48.0488 243.517 46.2023 244.473 43.4325C241.439 48.6753 238.851 51.2968 236.708 51.2968C235.389 51.2968 234.35 50.7692 233.592 49.714C232.998 48.7908 232.701 47.6037 232.701 46.1529C232.701 42.9874 234.317 39.9208 237.548 36.9532C239.725 34.9748 242.165 33.9855 244.869 33.9855C246.385 33.9855 247.836 34.3153 249.221 34.9748L249.419 35.2221V35.3704C249.419 35.7331 249.089 37.0521 248.43 39.3273L246.155 46.9937C245.957 47.6532 245.858 48.2137 245.858 48.6753C245.858 49.3348 246.171 49.6646 246.798 49.6646C248.183 49.6646 251.678 45.6583 257.283 37.6456C257.382 38.2392 257.432 38.4865 257.432 38.3875ZM246.847 35.8156C246.287 35.354 245.561 35.1231 244.671 35.1231C243.022 35.1231 241.308 36.3926 239.527 38.9316C237.054 42.4598 235.817 45.3285 235.817 47.5378C235.817 49.0216 236.328 49.7635 237.351 49.7635C238.867 49.7635 240.763 47.7686 243.039 43.7787C243.698 42.5587 244.341 41.3057 244.968 40.0197C245.627 38.7008 246.254 37.2994 246.847 35.8156ZM273.168 38.3381C273.168 38.9316 272.294 40.4484 270.546 42.8885C266.392 48.5929 263.012 51.4451 260.407 51.4451C258.824 51.4451 257.637 50.8186 256.846 49.5656C256.186 48.4445 255.857 47.0596 255.857 45.4109C255.857 43.8282 256.45 40.4814 257.637 35.3704C258.561 31.4795 259.995 27.5227 261.94 23.4999C263.721 19.8398 265.32 17.5481 266.738 16.6249L267.084 16.5754C267.612 17.103 267.876 18.29 267.876 20.1366C267.876 27.127 265.122 34.1669 259.616 41.2563C259.286 42.6741 259.121 44.059 259.121 45.4109C259.121 48.2467 259.912 49.6646 261.495 49.6646C263.045 49.6646 265.205 47.9499 267.975 44.5207C268.535 43.8612 269.228 42.9379 270.052 41.7509C270.876 40.5638 271.865 39.1294 273.019 37.4478L273.168 38.3381ZM265.254 25.4783C265.254 24.2253 265.106 22.725 264.809 20.9774C262.303 25.8245 260.638 31.9247 259.814 39.2778C263.441 34.5626 265.254 29.9627 265.254 25.4783ZM287.779 37.6456C287.779 38.5029 287.103 39.8549 285.751 41.7014C283.871 44.2734 282.355 46.0374 281.201 46.9937C279.651 48.2467 277.986 48.8732 276.205 48.8732C274.952 48.8732 273.814 48.527 272.792 47.8345C273.814 50.8022 274.326 53.2587 274.326 55.2042C274.326 59.6886 272.677 63.0354 269.379 65.2447L269.182 65.1457C268.786 64.6182 268.588 62.8706 268.588 59.9029C268.588 56.7704 269.297 52.4838 270.715 47.0431C268.934 46.1199 268.044 45.4769 268.044 45.1142C268.077 44.9823 268.159 44.8504 268.291 44.7185L268.934 43.6798C269.066 43.482 269.198 43.3831 269.33 43.3831C269.561 43.3831 269.759 43.449 269.924 43.5809L271.21 44.4217C274.672 29.2208 278.019 19.8893 281.25 16.427H281.497C282.19 17.2843 282.536 19.0814 282.536 21.8182C282.536 28.7097 280.014 34.7769 274.969 40.0197C274.771 41.8992 274.326 43.8777 273.633 45.955C274.655 46.7794 275.875 47.1915 277.293 47.1915C278.909 47.1915 280.525 46.3342 282.14 44.6196C282.701 44.0261 283.443 43.1028 284.366 41.8498C285.289 40.5968 286.41 38.9811 287.729 37.0026C287.729 37.1345 287.746 37.2499 287.779 37.3489V37.6456ZM280.607 25.7751C280.607 24.0604 280.31 22.4118 279.717 20.829C279.486 21.3896 279.206 22.2469 278.876 23.401C278.579 24.555 278.249 26.0059 277.887 27.7535C277.458 29.7649 277.046 31.5949 276.65 33.2436C276.287 34.8593 275.925 36.3267 275.562 37.6456C278.925 34.0515 280.607 30.0946 280.607 25.7751ZM273.188 54.9074C273.188 53.4565 272.957 51.9892 272.496 50.5054C270.616 55.0228 269.676 58.7159 269.676 61.5846V62.5243C272.017 60.7767 273.188 58.2377 273.188 54.9074Z" fill="#970564"/>
</g>
<defs>
<filter id="filter0_d_389_20839" x="0.834999" y="0.0557017" width="293.127" height="71.372" filterUnits="userSpaceOnUse" color-interpolation-filters="sRGB">
<feFlood flood-opacity="0" result="BackgroundImageFix"/>
<feColorMatrix in="SourceAlpha" type="matrix" values="0 0 0 0 0 0 0 0 0 0 0 0 0 0 0 0 0 0 127 0" result="hardAlpha"/>
<feOffset/>
<feGaussianBlur stdDeviation="3.09129"/>
<feComposite in2="hardAlpha" operator="out"/>
<feColorMatrix type="matrix" values="0 0 0 0 0 0 0 0 0 0 0 0 0 0 0 0 0 0 0.55 0"/>
<feBlend mode="normal" in2="BackgroundImageFix" result="effect1_dropShadow_389_20839"/>
<feBlend mode="normal" in="SourceGraphic" in2="effect1_dropShadow_389_20839" result="shape"/>
</filter>
</defs>
</svg>
